M48
;DRILL file {KiCad (2016-09-14 revision 83ed3c9)-makepkg} date 10/14/16 01:05:59
;FORMAT={-:-/ absolute / inch / decimal}
FMAT,2
INCH,TZ
T1C0.013
T2C0.028
T3C0.033
T4C0.040
T5C0.051
T6C0.098
%
G90
G05
M72
T1
X5.949Y-3.1458
X5.9714Y-2.8429
X5.9714Y-2.8833
X5.994Y-2.8646
X5.994Y-3.5937
X5.994Y-3.6586
X5.994Y-3.6921
X6.0266Y-3.6595
X6.0388Y-3.2276
X6.0428Y-3.0056
X6.0428Y-3.1816
X6.0517Y-2.8936
X6.0745Y-3.6595
X6.08Y-3.5104
X6.1136Y-3.4431
X6.114Y-3.0346
X6.1269Y-3.6596
X6.1712Y-3.6596
X6.1889Y-3.6173
X6.1938Y-3.4943
X6.199Y-3.7864
X6.2194Y-3.4696
X6.22Y-3.7454
X6.233Y-3.8274
X6.3139Y-3.5858
X6.3731Y-3.1321
X6.3756Y-3.2321
X6.3756Y-3.3321
X6.3759Y-3.2826
X6.3927Y-3.5858
X6.4495Y-3.6064
X6.4495Y-3.6814
X6.462Y-3.3964
X6.582Y-3.6239
X6.582Y-3.6839
X6.6081Y-3.3321
X6.6081Y-3.1321
X6.6081Y-3.1825
X6.6081Y-3.2321
X6.6081Y-3.282
X6.6392Y-3.1901
X6.6427Y-3.2817
X6.6436Y-3.2305
X6.6436Y-3.3565
X6.6489Y-3.1595
X6.7292Y-3.1813
X6.7535Y-3.1531
X6.7767Y-3.1761
X6.7997Y-3.1507
X6.835Y-3.1812
X6.975Y-3.4782
X7.0021Y-3.4953
X7.0098Y-3.5661
X7.0494Y-3.5659
X7.056Y-3.0614
X7.096Y-3.0614
X7.1225Y-3.52
X7.1313Y-2.9878
X7.146Y-3.1614
X7.151Y-3.4806
X7.1655Y-2.9878
X7.1801Y-3.1724
X7.201Y-2.9878
X7.226Y-3.1814
X7.229Y-3.636
X7.242Y-3.5169
X7.2683Y-3.4982
X7.319Y-3.1804
X7.3435Y-3.201
X7.363Y-3.6889
X7.3707Y-3.1811
X7.3796Y-3.0278
X7.3799Y-3.5198
X7.4095Y-3.3042
X7.415Y-3.0264
X7.42Y-3.1776
X7.437Y-3.384
X7.441Y-3.6663
X7.4488Y-3.3397
X7.4498Y-3.4775
X7.4525Y-3.0233
X7.4583Y-3.2768
X7.4991Y-3.1508
X7.501Y-3.5937
X7.5127Y-3.0215
X7.5545Y-3.2966
X7.5551Y-3.1699
X7.5649Y-3.6567
X7.5679Y-3.5543
X7.5865Y-3.2961
X7.5994Y-3.6793
X7.6083Y-3.1932
X7.6407Y-3.2905
X7.6427Y-3.4923
X7.685Y-3.1189
X7.6998Y-3.3771
X7.7352Y-3.4667
X7.7421Y-3.3004
X7.7647Y-3.2268
X7.7702Y-3.6984
X7.7903Y-3.3801
X7.7933Y-3.5582
X7.881Y-3.4006
X7.8858Y-3.3105
X7.889Y-3.1733
X7.895Y-3.045
X7.9098Y-3.4665
X7.9139Y-3.235
X7.935Y-3.17
X7.955Y-3.04
X7.9708Y-3.4686
X7.9922Y-3.3815
X7.9922Y-3.3228
X7.9923Y-3.2642
X8.0128Y-3.1535
X8.0318Y-3.5066
X8.0436Y-3.6059
X8.0509Y-3.2652
X8.051Y-3.3228
X8.051Y-3.3228
X8.051Y-3.3805
X8.0732Y-3.042
X8.0778Y-3.151
X8.0858Y-3.4986
X8.1096Y-3.2641
X8.1096Y-3.3227
X8.1097Y-3.3814
X8.1238Y-3.4986
X8.125Y-3.08
X8.1589Y-3.0799
X8.1907Y-3.0832
X8.1961Y-3.2364
X8.2095Y-3.3964
X8.2215Y-3.0918
X8.2458Y-3.4566
X8.2495Y-3.3964
X8.265Y-3.09
X8.2661Y-3.2064
X8.2777Y-3.3261
X8.305Y-3.095
X8.3076Y-3.0216
X8.3311Y-3.1443
X8.4205Y-3.5169
X8.421Y-3.3844
X8.5365Y-3.3844
X8.5365Y-3.5164
X8.5679Y-3.1409
X8.5679Y-3.2226
T2
X5.822Y-3.3877
X5.822Y-3.4664
X5.822Y-3.6377
X5.822Y-3.7164
X5.822Y-3.7952
T3
X5.9186Y-3.0071
X5.9186Y-3.1823
T4
X6.5305Y-2.8996
X6.5305Y-3.7996
X6.6305Y-2.8996
X6.6305Y-3.7996
X6.7305Y-2.8996
X6.7305Y-3.7996
X6.8305Y-2.8996
X6.8305Y-3.7996
X6.9305Y-2.8996
X6.9305Y-3.7996
X7.0305Y-2.8996
X7.0305Y-3.7996
X7.1305Y-2.8996
X7.1305Y-3.7996
X7.2305Y-2.8996
X7.2305Y-3.7996
X7.3305Y-2.8996
X7.3305Y-3.7996
X7.4305Y-2.8996
X7.4305Y-3.7996
X7.5305Y-2.8996
X7.5305Y-3.7996
X7.6305Y-2.8996
X7.6305Y-3.7996
X7.7305Y-2.8996
X7.7305Y-3.7996
X7.8305Y-2.8996
X7.8305Y-3.7996
X7.9305Y-2.8996
X7.9305Y-3.7996
X8.0305Y-2.8996
X8.0305Y-3.7996
X8.1305Y-2.8996
X8.1305Y-3.7996
X8.2305Y-2.8996
X8.2305Y-3.7996
T5
X5.7995Y-2.9304
X5.7995Y-3.2591
T6
X6.3336Y-2.9362
X6.3336Y-3.763
X8.4202Y-2.9362
X8.4202Y-3.763
T0
M30
