G04 #@! TF.FileFunction,Soldermask,Bot*
%FSLAX46Y46*%
G04 Gerber Fmt 4.6, Leading zero omitted, Abs format (unit mm)*
G04 Created by KiCad (PCBNEW (2016-09-14 revision 83ed3c9)-makepkg) date 10/14/16 01:05:57*
%MOMM*%
%LPD*%
G01*
G04 APERTURE LIST*
%ADD10C,0.100000*%
%ADD11O,2.127200X2.432000*%
%ADD12R,2.127200X2.432000*%
%ADD13C,4.400000*%
%ADD14R,2.100000X1.600000*%
%ADD15O,2.100000X1.600000*%
%ADD16C,2.204000*%
%ADD17C,1.245000*%
G04 APERTURE END LIST*
D10*
D11*
X209053691Y-96508953D03*
X206513691Y-96508953D03*
X203973691Y-96508953D03*
X201433691Y-96508953D03*
X198893691Y-96508953D03*
X196353691Y-96508953D03*
X193813691Y-96508953D03*
X191273691Y-96508953D03*
X188733691Y-96508953D03*
X186193691Y-96508953D03*
X183653691Y-96508953D03*
X181113691Y-96508953D03*
X178573691Y-96508953D03*
X176033691Y-96508953D03*
X173493691Y-96508953D03*
X170953691Y-96508953D03*
X168413691Y-96508953D03*
D12*
X165873691Y-96508953D03*
X165873691Y-73648953D03*
D11*
X168413691Y-73648953D03*
X170953691Y-73648953D03*
X173493691Y-73648953D03*
X176033691Y-73648953D03*
X178573691Y-73648953D03*
X181113691Y-73648953D03*
X183653691Y-73648953D03*
X186193691Y-73648953D03*
X188733691Y-73648953D03*
X191273691Y-73648953D03*
X193813691Y-73648953D03*
X196353691Y-73648953D03*
X198893691Y-73648953D03*
X201433691Y-73648953D03*
X203973691Y-73648953D03*
X206513691Y-73648953D03*
X209053691Y-73648953D03*
D13*
X160873691Y-74578953D03*
X213873691Y-74578953D03*
X160873691Y-95578953D03*
X213873691Y-95578953D03*
D14*
X147877691Y-88046953D03*
D15*
X147877691Y-86046953D03*
D14*
X147877691Y-96396953D03*
D15*
X147877691Y-94396953D03*
X147877691Y-92396953D03*
D16*
X147307691Y-74431553D03*
X147307691Y-82781553D03*
D17*
X150332691Y-76381553D03*
X150332691Y-80831553D03*
M02*
