G04 #@! TF.FileFunction,Legend,Bot*
%FSLAX46Y46*%
G04 Gerber Fmt 4.6, Leading zero omitted, Abs format (unit mm)*
G04 Created by KiCad (PCBNEW (2016-09-14 revision 83ed3c9)-makepkg) date 10/14/16 01:05:57*
%MOMM*%
%LPD*%
G01*
G04 APERTURE LIST*
%ADD10C,0.100000*%
%ADD11C,0.300000*%
%ADD12C,0.450000*%
G04 APERTURE END LIST*
D10*
D11*
X162354405Y-84246810D02*
X162568691Y-84175381D01*
X162925833Y-84175381D01*
X163068691Y-84246810D01*
X163140119Y-84318238D01*
X163211548Y-84461095D01*
X163211548Y-84603953D01*
X163140119Y-84746810D01*
X163068691Y-84818238D01*
X162925833Y-84889667D01*
X162640119Y-84961095D01*
X162497262Y-85032524D01*
X162425833Y-85103953D01*
X162354405Y-85246810D01*
X162354405Y-85389667D01*
X162425833Y-85532524D01*
X162497262Y-85603953D01*
X162640119Y-85675381D01*
X162997262Y-85675381D01*
X163211548Y-85603953D01*
X164068691Y-84175381D02*
X163925833Y-84246810D01*
X163854405Y-84318238D01*
X163782976Y-84461095D01*
X163782976Y-84889667D01*
X163854405Y-85032524D01*
X163925833Y-85103953D01*
X164068691Y-85175381D01*
X164282976Y-85175381D01*
X164425833Y-85103953D01*
X164497262Y-85032524D01*
X164568691Y-84889667D01*
X164568691Y-84461095D01*
X164497262Y-84318238D01*
X164425833Y-84246810D01*
X164282976Y-84175381D01*
X164068691Y-84175381D01*
X165425833Y-84175381D02*
X165282976Y-84246810D01*
X165211548Y-84389667D01*
X165211548Y-85675381D01*
X166640119Y-84175381D02*
X166640119Y-84961095D01*
X166568691Y-85103953D01*
X166425833Y-85175381D01*
X166140119Y-85175381D01*
X165997262Y-85103953D01*
X166640119Y-84246810D02*
X166497262Y-84175381D01*
X166140119Y-84175381D01*
X165997262Y-84246810D01*
X165925833Y-84389667D01*
X165925833Y-84532524D01*
X165997262Y-84675381D01*
X166140119Y-84746810D01*
X166497262Y-84746810D01*
X166640119Y-84818238D01*
X167354405Y-84175381D02*
X167354405Y-85175381D01*
X167354405Y-84889667D02*
X167425833Y-85032524D01*
X167497262Y-85103953D01*
X167640119Y-85175381D01*
X167782976Y-85175381D01*
X168282976Y-84746810D02*
X169425833Y-84746810D01*
X168854405Y-84175381D02*
X168854405Y-85318238D01*
X169997262Y-85675381D02*
X170354405Y-84175381D01*
X170640119Y-85246810D01*
X170925833Y-84175381D01*
X171282976Y-85675381D01*
X171854405Y-84175381D02*
X171854405Y-85175381D01*
X171854405Y-85675381D02*
X171782976Y-85603953D01*
X171854405Y-85532524D01*
X171925833Y-85603953D01*
X171854405Y-85675381D01*
X171854405Y-85532524D01*
X173068691Y-84961095D02*
X172568691Y-84961095D01*
X172568691Y-84175381D02*
X172568691Y-85675381D01*
X173282976Y-85675381D01*
X173854405Y-84175381D02*
X173854405Y-85175381D01*
X173854405Y-85675381D02*
X173782976Y-85603953D01*
X173854405Y-85532524D01*
X173925833Y-85603953D01*
X173854405Y-85675381D01*
X173854405Y-85532524D01*
X175711548Y-84175381D02*
X175711548Y-85675381D01*
X176068691Y-85675381D01*
X176282976Y-85603953D01*
X176425833Y-85461095D01*
X176497262Y-85318238D01*
X176568691Y-85032524D01*
X176568691Y-84818238D01*
X176497262Y-84532524D01*
X176425833Y-84389667D01*
X176282976Y-84246810D01*
X176068691Y-84175381D01*
X175711548Y-84175381D01*
X177782976Y-84246810D02*
X177640119Y-84175381D01*
X177354405Y-84175381D01*
X177211548Y-84246810D01*
X177140119Y-84389667D01*
X177140119Y-84961095D01*
X177211548Y-85103953D01*
X177354405Y-85175381D01*
X177640119Y-85175381D01*
X177782976Y-85103953D01*
X177854405Y-84961095D01*
X177854405Y-84818238D01*
X177140119Y-84675381D01*
X178354405Y-85175381D02*
X178711548Y-84175381D01*
X179068691Y-85175381D01*
X180782976Y-84175381D02*
X180782976Y-85675381D01*
X181640119Y-84175381D02*
X180997262Y-85032524D01*
X181640119Y-85675381D02*
X180782976Y-84818238D01*
X182282976Y-84175381D02*
X182282976Y-85175381D01*
X182282976Y-85675381D02*
X182211548Y-85603953D01*
X182282976Y-85532524D01*
X182354405Y-85603953D01*
X182282976Y-85675381D01*
X182282976Y-85532524D01*
X182782976Y-85175381D02*
X183354405Y-85175381D01*
X182997262Y-85675381D02*
X182997262Y-84389667D01*
X183068691Y-84246810D01*
X183211548Y-84175381D01*
X183354405Y-84175381D01*
X162425833Y-81625381D02*
X162425833Y-83125381D01*
X163068691Y-81625381D02*
X163068691Y-82411095D01*
X162997262Y-82553953D01*
X162854405Y-82625381D01*
X162640119Y-82625381D01*
X162497262Y-82553953D01*
X162425833Y-82482524D01*
X163568691Y-82625381D02*
X164140119Y-82625381D01*
X163782976Y-83125381D02*
X163782976Y-81839667D01*
X163854405Y-81696810D01*
X163997262Y-81625381D01*
X164140119Y-81625381D01*
X164425833Y-82625381D02*
X164997262Y-82625381D01*
X164640119Y-83125381D02*
X164640119Y-81839667D01*
X164711548Y-81696810D01*
X164854405Y-81625381D01*
X164997262Y-81625381D01*
X165497262Y-82625381D02*
X165497262Y-81125381D01*
X165497262Y-82553953D02*
X165640119Y-82625381D01*
X165925833Y-82625381D01*
X166068691Y-82553953D01*
X166140119Y-82482524D01*
X166211548Y-82339667D01*
X166211548Y-81911095D01*
X166140119Y-81768238D01*
X166068691Y-81696810D01*
X165925833Y-81625381D01*
X165640119Y-81625381D01*
X165497262Y-81696810D01*
X166782976Y-81696810D02*
X166925833Y-81625381D01*
X167211548Y-81625381D01*
X167354405Y-81696810D01*
X167425833Y-81839667D01*
X167425833Y-81911095D01*
X167354405Y-82053953D01*
X167211548Y-82125381D01*
X166997262Y-82125381D01*
X166854405Y-82196810D01*
X166782976Y-82339667D01*
X166782976Y-82411095D01*
X166854405Y-82553953D01*
X166997262Y-82625381D01*
X167211548Y-82625381D01*
X167354405Y-82553953D01*
X168068691Y-81768238D02*
X168140119Y-81696810D01*
X168068691Y-81625381D01*
X167997262Y-81696810D01*
X168068691Y-81768238D01*
X168068691Y-81625381D01*
X168068691Y-82553953D02*
X168140119Y-82482524D01*
X168068691Y-82411095D01*
X167997262Y-82482524D01*
X168068691Y-82553953D01*
X168068691Y-82411095D01*
X169854405Y-83196810D02*
X168568691Y-81268238D01*
X171425833Y-83196810D02*
X170140119Y-81268238D01*
X172568691Y-82625381D02*
X172568691Y-81411095D01*
X172497262Y-81268238D01*
X172425833Y-81196810D01*
X172282976Y-81125381D01*
X172068691Y-81125381D01*
X171925833Y-81196810D01*
X172568691Y-81696810D02*
X172425833Y-81625381D01*
X172140119Y-81625381D01*
X171997262Y-81696810D01*
X171925833Y-81768238D01*
X171854405Y-81911095D01*
X171854405Y-82339667D01*
X171925833Y-82482524D01*
X171997262Y-82553953D01*
X172140119Y-82625381D01*
X172425833Y-82625381D01*
X172568691Y-82553953D01*
X173282976Y-81625381D02*
X173282976Y-82625381D01*
X173282976Y-83125381D02*
X173211548Y-83053953D01*
X173282976Y-82982524D01*
X173354405Y-83053953D01*
X173282976Y-83125381D01*
X173282976Y-82982524D01*
X173782976Y-82625381D02*
X174354405Y-82625381D01*
X173997262Y-83125381D02*
X173997262Y-81839667D01*
X174068691Y-81696810D01*
X174211548Y-81625381D01*
X174354405Y-81625381D01*
X174854405Y-81625381D02*
X174854405Y-83125381D01*
X175497262Y-81625381D02*
X175497262Y-82411095D01*
X175425833Y-82553953D01*
X175282976Y-82625381D01*
X175068691Y-82625381D01*
X174925833Y-82553953D01*
X174854405Y-82482524D01*
X176854405Y-82625381D02*
X176854405Y-81625381D01*
X176211548Y-82625381D02*
X176211548Y-81839667D01*
X176282976Y-81696810D01*
X176425833Y-81625381D01*
X176640119Y-81625381D01*
X176782976Y-81696810D01*
X176854405Y-81768238D01*
X177568691Y-81625381D02*
X177568691Y-83125381D01*
X177568691Y-82553953D02*
X177711548Y-82625381D01*
X177997262Y-82625381D01*
X178140119Y-82553953D01*
X178211548Y-82482524D01*
X178282976Y-82339667D01*
X178282976Y-81911095D01*
X178211548Y-81768238D01*
X178140119Y-81696810D01*
X177997262Y-81625381D01*
X177711548Y-81625381D01*
X177568691Y-81696810D01*
X178925833Y-81768238D02*
X178997262Y-81696810D01*
X178925833Y-81625381D01*
X178854405Y-81696810D01*
X178925833Y-81768238D01*
X178925833Y-81625381D01*
X180282976Y-81696810D02*
X180140119Y-81625381D01*
X179854405Y-81625381D01*
X179711548Y-81696810D01*
X179640119Y-81768238D01*
X179568691Y-81911095D01*
X179568691Y-82339667D01*
X179640119Y-82482524D01*
X179711548Y-82553953D01*
X179854405Y-82625381D01*
X180140119Y-82625381D01*
X180282976Y-82553953D01*
X181140119Y-81625381D02*
X180997262Y-81696810D01*
X180925833Y-81768238D01*
X180854405Y-81911095D01*
X180854405Y-82339667D01*
X180925833Y-82482524D01*
X180997262Y-82553953D01*
X181140119Y-82625381D01*
X181354405Y-82625381D01*
X181497262Y-82553953D01*
X181568691Y-82482524D01*
X181640119Y-82339667D01*
X181640119Y-81911095D01*
X181568691Y-81768238D01*
X181497262Y-81696810D01*
X181354405Y-81625381D01*
X181140119Y-81625381D01*
X182282976Y-81625381D02*
X182282976Y-82625381D01*
X182282976Y-82482524D02*
X182354405Y-82553953D01*
X182497262Y-82625381D01*
X182711548Y-82625381D01*
X182854405Y-82553953D01*
X182925833Y-82411095D01*
X182925833Y-81625381D01*
X182925833Y-82411095D02*
X182997262Y-82553953D01*
X183140119Y-82625381D01*
X183354405Y-82625381D01*
X183497262Y-82553953D01*
X183568691Y-82411095D01*
X183568691Y-81625381D01*
X185354405Y-83196810D02*
X184068691Y-81268238D01*
X186497262Y-81625381D02*
X186497262Y-82411095D01*
X186425833Y-82553953D01*
X186282976Y-82625381D01*
X185997262Y-82625381D01*
X185854405Y-82553953D01*
X186497262Y-81696810D02*
X186354405Y-81625381D01*
X185997262Y-81625381D01*
X185854405Y-81696810D01*
X185782976Y-81839667D01*
X185782976Y-81982524D01*
X185854405Y-82125381D01*
X185997262Y-82196810D01*
X186354405Y-82196810D01*
X186497262Y-82268238D01*
X187854405Y-81625381D02*
X187854405Y-83125381D01*
X187854405Y-81696810D02*
X187711548Y-81625381D01*
X187425833Y-81625381D01*
X187282976Y-81696810D01*
X187211548Y-81768238D01*
X187140119Y-81911095D01*
X187140119Y-82339667D01*
X187211548Y-82482524D01*
X187282976Y-82553953D01*
X187425833Y-82625381D01*
X187711548Y-82625381D01*
X187854405Y-82553953D01*
X189211548Y-81625381D02*
X189211548Y-82411095D01*
X189140119Y-82553953D01*
X188997262Y-82625381D01*
X188711548Y-82625381D01*
X188568691Y-82553953D01*
X189211548Y-81696810D02*
X189068691Y-81625381D01*
X188711548Y-81625381D01*
X188568691Y-81696810D01*
X188497262Y-81839667D01*
X188497262Y-81982524D01*
X188568691Y-82125381D01*
X188711548Y-82196810D01*
X189068691Y-82196810D01*
X189211548Y-82268238D01*
X189925833Y-81625381D02*
X189925833Y-82625381D01*
X189925833Y-82482524D02*
X189997262Y-82553953D01*
X190140119Y-82625381D01*
X190354405Y-82625381D01*
X190497262Y-82553953D01*
X190568691Y-82411095D01*
X190568691Y-81625381D01*
X190568691Y-82411095D02*
X190640119Y-82553953D01*
X190782976Y-82625381D01*
X190997262Y-82625381D01*
X191140119Y-82553953D01*
X191211548Y-82411095D01*
X191211548Y-81625381D01*
X191925833Y-82625381D02*
X191925833Y-81339667D01*
X191854405Y-81196810D01*
X191711548Y-81125381D01*
X191640119Y-81125381D01*
X191925833Y-83125381D02*
X191854405Y-83053953D01*
X191925833Y-82982524D01*
X191997262Y-83053953D01*
X191925833Y-83125381D01*
X191925833Y-82982524D01*
X192497262Y-82625381D02*
X192854405Y-81625381D01*
X193211548Y-82625381D01*
X193782976Y-81625381D02*
X193782976Y-82625381D01*
X193782976Y-82339667D02*
X193854405Y-82482524D01*
X193925833Y-82553953D01*
X194068691Y-82625381D01*
X194211548Y-82625381D01*
X195782976Y-83196810D02*
X194497262Y-81268238D01*
X196211548Y-82053953D02*
X196925833Y-82053953D01*
X196068691Y-81625381D02*
X196568691Y-83125381D01*
X197068691Y-81625381D01*
X197568691Y-81625381D02*
X197568691Y-82625381D01*
X197568691Y-82339667D02*
X197640119Y-82482524D01*
X197711548Y-82553953D01*
X197854405Y-82625381D01*
X197997262Y-82625381D01*
X198497262Y-81625381D02*
X198497262Y-82625381D01*
X198497262Y-83125381D02*
X198425833Y-83053953D01*
X198497262Y-82982524D01*
X198568691Y-83053953D01*
X198497262Y-83125381D01*
X198497262Y-82982524D01*
X199854405Y-81625381D02*
X199854405Y-82411095D01*
X199782976Y-82553953D01*
X199640119Y-82625381D01*
X199354405Y-82625381D01*
X199211548Y-82553953D01*
X199854405Y-81696810D02*
X199711548Y-81625381D01*
X199354405Y-81625381D01*
X199211548Y-81696810D01*
X199140119Y-81839667D01*
X199140119Y-81982524D01*
X199211548Y-82125381D01*
X199354405Y-82196810D01*
X199711548Y-82196810D01*
X199854405Y-82268238D01*
D12*
X162642381Y-87162286D02*
X163832857Y-87162286D01*
X162404286Y-86448000D02*
X163237619Y-88948000D01*
X164070952Y-86448000D01*
X164904286Y-86448000D02*
X164904286Y-88114667D01*
X164904286Y-87638476D02*
X165023333Y-87876572D01*
X165142381Y-87995619D01*
X165380476Y-88114667D01*
X165618571Y-88114667D01*
X166451905Y-86448000D02*
X166451905Y-88114667D01*
X166451905Y-88948000D02*
X166332857Y-88828953D01*
X166451905Y-88709905D01*
X166570952Y-88828953D01*
X166451905Y-88948000D01*
X166451905Y-88709905D01*
X168713810Y-86448000D02*
X168713810Y-87757524D01*
X168594762Y-87995619D01*
X168356667Y-88114667D01*
X167880476Y-88114667D01*
X167642381Y-87995619D01*
X168713810Y-86567048D02*
X168475714Y-86448000D01*
X167880476Y-86448000D01*
X167642381Y-86567048D01*
X167523333Y-86805143D01*
X167523333Y-87043238D01*
X167642381Y-87281333D01*
X167880476Y-87400381D01*
X168475714Y-87400381D01*
X168713810Y-87519429D01*
X172285238Y-88948000D02*
X172523333Y-88948000D01*
X172761429Y-88828953D01*
X172880476Y-88709905D01*
X172999524Y-88471810D01*
X173118571Y-87995619D01*
X173118571Y-87400381D01*
X172999524Y-86924191D01*
X172880476Y-86686095D01*
X172761429Y-86567048D01*
X172523333Y-86448000D01*
X172285238Y-86448000D01*
X172047143Y-86567048D01*
X171928095Y-86686095D01*
X171809048Y-86924191D01*
X171690000Y-87400381D01*
X171690000Y-87995619D01*
X171809048Y-88471810D01*
X171928095Y-88709905D01*
X172047143Y-88828953D01*
X172285238Y-88948000D01*
X174190000Y-86686095D02*
X174309048Y-86567048D01*
X174190000Y-86448000D01*
X174070952Y-86567048D01*
X174190000Y-86686095D01*
X174190000Y-86448000D01*
X176690000Y-86448000D02*
X175261429Y-86448000D01*
X175975714Y-86448000D02*
X175975714Y-88948000D01*
X175737619Y-88590857D01*
X175499524Y-88352762D01*
X175261429Y-88233714D01*
X178832857Y-86448000D02*
X178832857Y-87757524D01*
X178713810Y-87995619D01*
X178475714Y-88114667D01*
X177999524Y-88114667D01*
X177761429Y-87995619D01*
X178832857Y-86567048D02*
X178594762Y-86448000D01*
X177999524Y-86448000D01*
X177761429Y-86567048D01*
X177642381Y-86805143D01*
X177642381Y-87043238D01*
X177761429Y-87281333D01*
X177999524Y-87400381D01*
X178594762Y-87400381D01*
X178832857Y-87519429D01*
D11*
X150231548Y-88928953D02*
X150088691Y-89000381D01*
X149874405Y-89000381D01*
X149660119Y-88928953D01*
X149517262Y-88786095D01*
X149445833Y-88643238D01*
X149374405Y-88357524D01*
X149374405Y-88143238D01*
X149445833Y-87857524D01*
X149517262Y-87714667D01*
X149660119Y-87571810D01*
X149874405Y-87500381D01*
X150017262Y-87500381D01*
X150231548Y-87571810D01*
X150302976Y-87643238D01*
X150302976Y-88143238D01*
X150017262Y-88143238D01*
X150945833Y-87500381D02*
X150945833Y-89000381D01*
X151802976Y-87500381D01*
X151802976Y-89000381D01*
X152517262Y-87500381D02*
X152517262Y-89000381D01*
X152874405Y-89000381D01*
X153088691Y-88928953D01*
X153231548Y-88786095D01*
X153302976Y-88643238D01*
X153374405Y-88357524D01*
X153374405Y-88143238D01*
X153302976Y-87857524D01*
X153231548Y-87714667D01*
X153088691Y-87571810D01*
X152874405Y-87500381D01*
X152517262Y-87500381D01*
X149374405Y-85021810D02*
X149588691Y-84950381D01*
X149945833Y-84950381D01*
X150088691Y-85021810D01*
X150160119Y-85093238D01*
X150231548Y-85236095D01*
X150231548Y-85378953D01*
X150160119Y-85521810D01*
X150088691Y-85593238D01*
X149945833Y-85664667D01*
X149660119Y-85736095D01*
X149517262Y-85807524D01*
X149445833Y-85878953D01*
X149374405Y-86021810D01*
X149374405Y-86164667D01*
X149445833Y-86307524D01*
X149517262Y-86378953D01*
X149660119Y-86450381D01*
X150017262Y-86450381D01*
X150231548Y-86378953D01*
X151160119Y-86450381D02*
X151445833Y-86450381D01*
X151588691Y-86378953D01*
X151731548Y-86236095D01*
X151802976Y-85950381D01*
X151802976Y-85450381D01*
X151731548Y-85164667D01*
X151588691Y-85021810D01*
X151445833Y-84950381D01*
X151160119Y-84950381D01*
X151017262Y-85021810D01*
X150874405Y-85164667D01*
X150802976Y-85450381D01*
X150802976Y-85950381D01*
X150874405Y-86236095D01*
X151017262Y-86378953D01*
X151160119Y-86450381D01*
X153160119Y-84950381D02*
X152445833Y-84950381D01*
X152445833Y-86450381D01*
X153588691Y-85378953D02*
X154302976Y-85378953D01*
X153445833Y-84950381D02*
X153945833Y-86450381D01*
X154445833Y-84950381D01*
X155802976Y-84950381D02*
X155302976Y-85664667D01*
X154945833Y-84950381D02*
X154945833Y-86450381D01*
X155517262Y-86450381D01*
X155660119Y-86378953D01*
X155731548Y-86307524D01*
X155802976Y-86164667D01*
X155802976Y-85950381D01*
X155731548Y-85807524D01*
X155660119Y-85736095D01*
X155517262Y-85664667D01*
X154945833Y-85664667D01*
X157374405Y-86450381D02*
X157874405Y-84950381D01*
X158374405Y-86450381D01*
X158874405Y-85521810D02*
X160017262Y-85521810D01*
X159445833Y-84950381D02*
X159445833Y-86093238D01*
X150231548Y-97442953D02*
X150088691Y-97514381D01*
X149874405Y-97514381D01*
X149660119Y-97442953D01*
X149517262Y-97300095D01*
X149445833Y-97157238D01*
X149374405Y-96871524D01*
X149374405Y-96657238D01*
X149445833Y-96371524D01*
X149517262Y-96228667D01*
X149660119Y-96085810D01*
X149874405Y-96014381D01*
X150017262Y-96014381D01*
X150231548Y-96085810D01*
X150302976Y-96157238D01*
X150302976Y-96657238D01*
X150017262Y-96657238D01*
X150945833Y-96014381D02*
X150945833Y-97514381D01*
X151802976Y-96014381D01*
X151802976Y-97514381D01*
X152517262Y-96014381D02*
X152517262Y-97514381D01*
X152874405Y-97514381D01*
X153088691Y-97442953D01*
X153231548Y-97300095D01*
X153302976Y-97157238D01*
X153374405Y-96871524D01*
X153374405Y-96657238D01*
X153302976Y-96371524D01*
X153231548Y-96228667D01*
X153088691Y-96085810D01*
X152874405Y-96014381D01*
X152517262Y-96014381D01*
X149231548Y-94964381D02*
X150088691Y-94964381D01*
X149660119Y-93464381D02*
X149660119Y-94964381D01*
X150588691Y-93464381D02*
X150588691Y-94964381D01*
X150588691Y-94250095D02*
X151445833Y-94250095D01*
X151445833Y-93464381D02*
X151445833Y-94964381D01*
X152160119Y-94250095D02*
X152660119Y-94250095D01*
X152874405Y-93464381D02*
X152160119Y-93464381D01*
X152160119Y-94964381D01*
X152874405Y-94964381D01*
X154374405Y-93464381D02*
X153874405Y-94178667D01*
X153517262Y-93464381D02*
X153517262Y-94964381D01*
X154088691Y-94964381D01*
X154231548Y-94892953D01*
X154302976Y-94821524D01*
X154374405Y-94678667D01*
X154374405Y-94464381D01*
X154302976Y-94321524D01*
X154231548Y-94250095D01*
X154088691Y-94178667D01*
X153517262Y-94178667D01*
X155017262Y-93464381D02*
X155017262Y-94964381D01*
X155517262Y-93892953D01*
X156017262Y-94964381D01*
X156017262Y-93464381D01*
X149945833Y-91700095D02*
X150160119Y-91628667D01*
X150231548Y-91557238D01*
X150302976Y-91414381D01*
X150302976Y-91200095D01*
X150231548Y-91057238D01*
X150160119Y-90985810D01*
X150017262Y-90914381D01*
X149445833Y-90914381D01*
X149445833Y-92414381D01*
X149945833Y-92414381D01*
X150088691Y-92342953D01*
X150160119Y-92271524D01*
X150231548Y-92128667D01*
X150231548Y-91985810D01*
X150160119Y-91842953D01*
X150088691Y-91771524D01*
X149945833Y-91700095D01*
X149445833Y-91700095D01*
X150874405Y-91342953D02*
X151588691Y-91342953D01*
X150731548Y-90914381D02*
X151231548Y-92414381D01*
X151731548Y-90914381D01*
X152017262Y-92414381D02*
X152874405Y-92414381D01*
X152445833Y-90914381D02*
X152445833Y-92414381D01*
X153160119Y-92414381D02*
X154017262Y-92414381D01*
X153588691Y-90914381D02*
X153588691Y-92414381D01*
X154517262Y-91700095D02*
X155017262Y-91700095D01*
X155231548Y-90914381D02*
X154517262Y-90914381D01*
X154517262Y-92414381D01*
X155231548Y-92414381D01*
X156731548Y-90914381D02*
X156231548Y-91628667D01*
X155874405Y-90914381D02*
X155874405Y-92414381D01*
X156445833Y-92414381D01*
X156588691Y-92342953D01*
X156660119Y-92271524D01*
X156731548Y-92128667D01*
X156731548Y-91914381D01*
X156660119Y-91771524D01*
X156588691Y-91700095D01*
X156445833Y-91628667D01*
X155874405Y-91628667D01*
X157660119Y-91628667D02*
X157660119Y-90914381D01*
X157160119Y-92414381D02*
X157660119Y-91628667D01*
X158160119Y-92414381D01*
X165203691Y-91789381D02*
X165132262Y-91646524D01*
X165132262Y-91432238D01*
X165203691Y-91217953D01*
X165346548Y-91075095D01*
X165489405Y-91003667D01*
X165775119Y-90932238D01*
X165989405Y-90932238D01*
X166275119Y-91003667D01*
X166417976Y-91075095D01*
X166560833Y-91217953D01*
X166632262Y-91432238D01*
X166632262Y-91575095D01*
X166560833Y-91789381D01*
X166489405Y-91860810D01*
X165989405Y-91860810D01*
X165989405Y-91575095D01*
X166632262Y-92503667D02*
X165132262Y-92503667D01*
X166632262Y-93360810D01*
X165132262Y-93360810D01*
X166632262Y-94075095D02*
X165132262Y-94075095D01*
X165132262Y-94432238D01*
X165203691Y-94646524D01*
X165346548Y-94789381D01*
X165489405Y-94860810D01*
X165775119Y-94932238D01*
X165989405Y-94932238D01*
X166275119Y-94860810D01*
X166417976Y-94789381D01*
X166560833Y-94646524D01*
X166632262Y-94432238D01*
X166632262Y-94075095D01*
X167682262Y-91289381D02*
X167682262Y-92217953D01*
X168253691Y-91717953D01*
X168253691Y-91932238D01*
X168325119Y-92075095D01*
X168396548Y-92146524D01*
X168539405Y-92217953D01*
X168896548Y-92217953D01*
X169039405Y-92146524D01*
X169110833Y-92075095D01*
X169182262Y-91932238D01*
X169182262Y-91503667D01*
X169110833Y-91360810D01*
X169039405Y-91289381D01*
X167682262Y-92646524D02*
X169182262Y-93146524D01*
X167682262Y-93646524D01*
X167682262Y-94003667D02*
X167682262Y-94932238D01*
X168253691Y-94432238D01*
X168253691Y-94646524D01*
X168325119Y-94789381D01*
X168396548Y-94860810D01*
X168539405Y-94932238D01*
X168896548Y-94932238D01*
X169039405Y-94860810D01*
X169110833Y-94789381D01*
X169182262Y-94646524D01*
X169182262Y-94217953D01*
X169110833Y-94075095D01*
X169039405Y-94003667D01*
X171732262Y-91360810D02*
X170232262Y-91360810D01*
X170232262Y-91932238D01*
X170303691Y-92075095D01*
X170375119Y-92146524D01*
X170517976Y-92217953D01*
X170732262Y-92217953D01*
X170875119Y-92146524D01*
X170946548Y-92075095D01*
X171017976Y-91932238D01*
X171017976Y-91360810D01*
X171303691Y-92789381D02*
X171303691Y-93503667D01*
X171732262Y-92646524D02*
X170232262Y-93146524D01*
X171732262Y-93646524D01*
X171732262Y-94217953D02*
X171732262Y-94503667D01*
X171660833Y-94646524D01*
X171589405Y-94717953D01*
X171375119Y-94860810D01*
X171089405Y-94932238D01*
X170517976Y-94932238D01*
X170375119Y-94860810D01*
X170303691Y-94789381D01*
X170232262Y-94646524D01*
X170232262Y-94360810D01*
X170303691Y-94217953D01*
X170375119Y-94146524D01*
X170517976Y-94075095D01*
X170875119Y-94075095D01*
X171017976Y-94146524D01*
X171089405Y-94217953D01*
X171160833Y-94360810D01*
X171160833Y-94646524D01*
X171089405Y-94789381D01*
X171017976Y-94860810D01*
X170875119Y-94932238D01*
X174282262Y-89932238D02*
X172782262Y-89932238D01*
X172782262Y-90503667D01*
X172853691Y-90646524D01*
X172925119Y-90717953D01*
X173067976Y-90789381D01*
X173282262Y-90789381D01*
X173425119Y-90717953D01*
X173496548Y-90646524D01*
X173567976Y-90503667D01*
X173567976Y-89932238D01*
X173853691Y-91360810D02*
X173853691Y-92075095D01*
X174282262Y-91217953D02*
X172782262Y-91717953D01*
X174282262Y-92217953D01*
X174282262Y-93503667D02*
X174282262Y-92646524D01*
X174282262Y-93075095D02*
X172782262Y-93075095D01*
X172996548Y-92932238D01*
X173139405Y-92789381D01*
X173210833Y-92646524D01*
X172782262Y-94432238D02*
X172782262Y-94575095D01*
X172853691Y-94717953D01*
X172925119Y-94789381D01*
X173067976Y-94860810D01*
X173353691Y-94932238D01*
X173710833Y-94932238D01*
X173996548Y-94860810D01*
X174139405Y-94789381D01*
X174210833Y-94717953D01*
X174282262Y-94575095D01*
X174282262Y-94432238D01*
X174210833Y-94289381D01*
X174139405Y-94217953D01*
X173996548Y-94146524D01*
X173710833Y-94075095D01*
X173353691Y-94075095D01*
X173067976Y-94146524D01*
X172925119Y-94217953D01*
X172853691Y-94289381D01*
X172782262Y-94432238D01*
X176832262Y-89932238D02*
X175332262Y-89932238D01*
X175332262Y-90503667D01*
X175403691Y-90646524D01*
X175475119Y-90717953D01*
X175617976Y-90789381D01*
X175832262Y-90789381D01*
X175975119Y-90717953D01*
X176046548Y-90646524D01*
X176117976Y-90503667D01*
X176117976Y-89932238D01*
X176403691Y-91360810D02*
X176403691Y-92075095D01*
X176832262Y-91217953D02*
X175332262Y-91717953D01*
X176832262Y-92217953D01*
X176832262Y-93503667D02*
X176832262Y-92646524D01*
X176832262Y-93075095D02*
X175332262Y-93075095D01*
X175546548Y-92932238D01*
X175689405Y-92789381D01*
X175760833Y-92646524D01*
X176832262Y-94932238D02*
X176832262Y-94075095D01*
X176832262Y-94503667D02*
X175332262Y-94503667D01*
X175546548Y-94360810D01*
X175689405Y-94217953D01*
X175760833Y-94075095D01*
X179382262Y-89932238D02*
X177882262Y-89932238D01*
X177882262Y-90503667D01*
X177953691Y-90646524D01*
X178025119Y-90717953D01*
X178167976Y-90789381D01*
X178382262Y-90789381D01*
X178525119Y-90717953D01*
X178596548Y-90646524D01*
X178667976Y-90503667D01*
X178667976Y-89932238D01*
X178953691Y-91360810D02*
X178953691Y-92075095D01*
X179382262Y-91217953D02*
X177882262Y-91717953D01*
X179382262Y-92217953D01*
X179382262Y-93503667D02*
X179382262Y-92646524D01*
X179382262Y-93075095D02*
X177882262Y-93075095D01*
X178096548Y-92932238D01*
X178239405Y-92789381D01*
X178310833Y-92646524D01*
X178025119Y-94075095D02*
X177953691Y-94146524D01*
X177882262Y-94289381D01*
X177882262Y-94646524D01*
X177953691Y-94789381D01*
X178025119Y-94860810D01*
X178167976Y-94932238D01*
X178310833Y-94932238D01*
X178525119Y-94860810D01*
X179382262Y-94003667D01*
X179382262Y-94932238D01*
X181932262Y-89717953D02*
X180432262Y-89717953D01*
X180432262Y-90289381D01*
X180503691Y-90432238D01*
X180575119Y-90503667D01*
X180717976Y-90575095D01*
X180932262Y-90575095D01*
X181075119Y-90503667D01*
X181146548Y-90432238D01*
X181217976Y-90289381D01*
X181217976Y-89717953D01*
X181789405Y-92075095D02*
X181860833Y-92003667D01*
X181932262Y-91789381D01*
X181932262Y-91646524D01*
X181860833Y-91432238D01*
X181717976Y-91289381D01*
X181575119Y-91217953D01*
X181289405Y-91146524D01*
X181075119Y-91146524D01*
X180789405Y-91217953D01*
X180646548Y-91289381D01*
X180503691Y-91432238D01*
X180432262Y-91646524D01*
X180432262Y-91789381D01*
X180503691Y-92003667D01*
X180575119Y-92075095D01*
X181932262Y-93503667D02*
X181932262Y-92646524D01*
X181932262Y-93075095D02*
X180432262Y-93075095D01*
X180646548Y-92932238D01*
X180789405Y-92789381D01*
X180860833Y-92646524D01*
X180432262Y-94432238D02*
X180432262Y-94575095D01*
X180503691Y-94717953D01*
X180575119Y-94789381D01*
X180717976Y-94860810D01*
X181003691Y-94932238D01*
X181360833Y-94932238D01*
X181646548Y-94860810D01*
X181789405Y-94789381D01*
X181860833Y-94717953D01*
X181932262Y-94575095D01*
X181932262Y-94432238D01*
X181860833Y-94289381D01*
X181789405Y-94217953D01*
X181646548Y-94146524D01*
X181360833Y-94075095D01*
X181003691Y-94075095D01*
X180717976Y-94146524D01*
X180575119Y-94217953D01*
X180503691Y-94289381D01*
X180432262Y-94432238D01*
X184482262Y-89717953D02*
X182982262Y-89717953D01*
X182982262Y-90289381D01*
X183053691Y-90432238D01*
X183125119Y-90503667D01*
X183267976Y-90575095D01*
X183482262Y-90575095D01*
X183625119Y-90503667D01*
X183696548Y-90432238D01*
X183767976Y-90289381D01*
X183767976Y-89717953D01*
X184339405Y-92075095D02*
X184410833Y-92003667D01*
X184482262Y-91789381D01*
X184482262Y-91646524D01*
X184410833Y-91432238D01*
X184267976Y-91289381D01*
X184125119Y-91217953D01*
X183839405Y-91146524D01*
X183625119Y-91146524D01*
X183339405Y-91217953D01*
X183196548Y-91289381D01*
X183053691Y-91432238D01*
X182982262Y-91646524D01*
X182982262Y-91789381D01*
X183053691Y-92003667D01*
X183125119Y-92075095D01*
X184482262Y-93503667D02*
X184482262Y-92646524D01*
X184482262Y-93075095D02*
X182982262Y-93075095D01*
X183196548Y-92932238D01*
X183339405Y-92789381D01*
X183410833Y-92646524D01*
X184482262Y-94932238D02*
X184482262Y-94075095D01*
X184482262Y-94503667D02*
X182982262Y-94503667D01*
X183196548Y-94360810D01*
X183339405Y-94217953D01*
X183410833Y-94075095D01*
X187032262Y-89717953D02*
X185532262Y-89717953D01*
X185532262Y-90289381D01*
X185603691Y-90432238D01*
X185675119Y-90503667D01*
X185817976Y-90575095D01*
X186032262Y-90575095D01*
X186175119Y-90503667D01*
X186246548Y-90432238D01*
X186317976Y-90289381D01*
X186317976Y-89717953D01*
X186889405Y-92075095D02*
X186960833Y-92003667D01*
X187032262Y-91789381D01*
X187032262Y-91646524D01*
X186960833Y-91432238D01*
X186817976Y-91289381D01*
X186675119Y-91217953D01*
X186389405Y-91146524D01*
X186175119Y-91146524D01*
X185889405Y-91217953D01*
X185746548Y-91289381D01*
X185603691Y-91432238D01*
X185532262Y-91646524D01*
X185532262Y-91789381D01*
X185603691Y-92003667D01*
X185675119Y-92075095D01*
X187032262Y-93503667D02*
X187032262Y-92646524D01*
X187032262Y-93075095D02*
X185532262Y-93075095D01*
X185746548Y-92932238D01*
X185889405Y-92789381D01*
X185960833Y-92646524D01*
X185675119Y-94075095D02*
X185603691Y-94146524D01*
X185532262Y-94289381D01*
X185532262Y-94646524D01*
X185603691Y-94789381D01*
X185675119Y-94860810D01*
X185817976Y-94932238D01*
X185960833Y-94932238D01*
X186175119Y-94860810D01*
X187032262Y-94003667D01*
X187032262Y-94932238D01*
X189582262Y-91146524D02*
X188082262Y-91146524D01*
X188082262Y-91717953D01*
X188153691Y-91860810D01*
X188225119Y-91932238D01*
X188367976Y-92003667D01*
X188582262Y-92003667D01*
X188725119Y-91932238D01*
X188796548Y-91860810D01*
X188867976Y-91717953D01*
X188867976Y-91146524D01*
X188796548Y-93146524D02*
X188867976Y-93360810D01*
X188939405Y-93432238D01*
X189082262Y-93503667D01*
X189296548Y-93503667D01*
X189439405Y-93432238D01*
X189510833Y-93360810D01*
X189582262Y-93217953D01*
X189582262Y-92646524D01*
X188082262Y-92646524D01*
X188082262Y-93146524D01*
X188153691Y-93289381D01*
X188225119Y-93360810D01*
X188367976Y-93432238D01*
X188510833Y-93432238D01*
X188653691Y-93360810D01*
X188725119Y-93289381D01*
X188796548Y-93146524D01*
X188796548Y-92646524D01*
X188082262Y-94860810D02*
X188082262Y-94146524D01*
X188796548Y-94075095D01*
X188725119Y-94146524D01*
X188653691Y-94289381D01*
X188653691Y-94646524D01*
X188725119Y-94789381D01*
X188796548Y-94860810D01*
X188939405Y-94932238D01*
X189296548Y-94932238D01*
X189439405Y-94860810D01*
X189510833Y-94789381D01*
X189582262Y-94646524D01*
X189582262Y-94289381D01*
X189510833Y-94146524D01*
X189439405Y-94075095D01*
X192132262Y-91146524D02*
X190632262Y-91146524D01*
X190632262Y-91717953D01*
X190703691Y-91860810D01*
X190775119Y-91932238D01*
X190917976Y-92003667D01*
X191132262Y-92003667D01*
X191275119Y-91932238D01*
X191346548Y-91860810D01*
X191417976Y-91717953D01*
X191417976Y-91146524D01*
X191346548Y-93146524D02*
X191417976Y-93360810D01*
X191489405Y-93432238D01*
X191632262Y-93503667D01*
X191846548Y-93503667D01*
X191989405Y-93432238D01*
X192060833Y-93360810D01*
X192132262Y-93217953D01*
X192132262Y-92646524D01*
X190632262Y-92646524D01*
X190632262Y-93146524D01*
X190703691Y-93289381D01*
X190775119Y-93360810D01*
X190917976Y-93432238D01*
X191060833Y-93432238D01*
X191203691Y-93360810D01*
X191275119Y-93289381D01*
X191346548Y-93146524D01*
X191346548Y-92646524D01*
X190632262Y-94789381D02*
X190632262Y-94503667D01*
X190703691Y-94360810D01*
X190775119Y-94289381D01*
X190989405Y-94146524D01*
X191275119Y-94075095D01*
X191846548Y-94075095D01*
X191989405Y-94146524D01*
X192060833Y-94217953D01*
X192132262Y-94360810D01*
X192132262Y-94646524D01*
X192060833Y-94789381D01*
X191989405Y-94860810D01*
X191846548Y-94932238D01*
X191489405Y-94932238D01*
X191346548Y-94860810D01*
X191275119Y-94789381D01*
X191203691Y-94646524D01*
X191203691Y-94360810D01*
X191275119Y-94217953D01*
X191346548Y-94146524D01*
X191489405Y-94075095D01*
X194682262Y-91146524D02*
X193182262Y-91146524D01*
X193182262Y-91717953D01*
X193253691Y-91860810D01*
X193325119Y-91932238D01*
X193467976Y-92003667D01*
X193682262Y-92003667D01*
X193825119Y-91932238D01*
X193896548Y-91860810D01*
X193967976Y-91717953D01*
X193967976Y-91146524D01*
X193896548Y-93146524D02*
X193967976Y-93360810D01*
X194039405Y-93432238D01*
X194182262Y-93503667D01*
X194396548Y-93503667D01*
X194539405Y-93432238D01*
X194610833Y-93360810D01*
X194682262Y-93217953D01*
X194682262Y-92646524D01*
X193182262Y-92646524D01*
X193182262Y-93146524D01*
X193253691Y-93289381D01*
X193325119Y-93360810D01*
X193467976Y-93432238D01*
X193610833Y-93432238D01*
X193753691Y-93360810D01*
X193825119Y-93289381D01*
X193896548Y-93146524D01*
X193896548Y-92646524D01*
X193182262Y-94003667D02*
X193182262Y-95003667D01*
X194682262Y-94360810D01*
X197232262Y-91146524D02*
X195732262Y-91146524D01*
X195732262Y-91717953D01*
X195803691Y-91860810D01*
X195875119Y-91932238D01*
X196017976Y-92003667D01*
X196232262Y-92003667D01*
X196375119Y-91932238D01*
X196446548Y-91860810D01*
X196517976Y-91717953D01*
X196517976Y-91146524D01*
X196446548Y-93146524D02*
X196517976Y-93360810D01*
X196589405Y-93432238D01*
X196732262Y-93503667D01*
X196946548Y-93503667D01*
X197089405Y-93432238D01*
X197160833Y-93360810D01*
X197232262Y-93217953D01*
X197232262Y-92646524D01*
X195732262Y-92646524D01*
X195732262Y-93146524D01*
X195803691Y-93289381D01*
X195875119Y-93360810D01*
X196017976Y-93432238D01*
X196160833Y-93432238D01*
X196303691Y-93360810D01*
X196375119Y-93289381D01*
X196446548Y-93146524D01*
X196446548Y-92646524D01*
X196375119Y-94360810D02*
X196303691Y-94217953D01*
X196232262Y-94146524D01*
X196089405Y-94075095D01*
X196017976Y-94075095D01*
X195875119Y-94146524D01*
X195803691Y-94217953D01*
X195732262Y-94360810D01*
X195732262Y-94646524D01*
X195803691Y-94789381D01*
X195875119Y-94860810D01*
X196017976Y-94932238D01*
X196089405Y-94932238D01*
X196232262Y-94860810D01*
X196303691Y-94789381D01*
X196375119Y-94646524D01*
X196375119Y-94360810D01*
X196446548Y-94217953D01*
X196517976Y-94146524D01*
X196660833Y-94075095D01*
X196946548Y-94075095D01*
X197089405Y-94146524D01*
X197160833Y-94217953D01*
X197232262Y-94360810D01*
X197232262Y-94646524D01*
X197160833Y-94789381D01*
X197089405Y-94860810D01*
X196946548Y-94932238D01*
X196660833Y-94932238D01*
X196517976Y-94860810D01*
X196446548Y-94789381D01*
X196375119Y-94646524D01*
X199782262Y-91146524D02*
X198282262Y-91146524D01*
X198282262Y-91717953D01*
X198353691Y-91860810D01*
X198425119Y-91932238D01*
X198567976Y-92003667D01*
X198782262Y-92003667D01*
X198925119Y-91932238D01*
X198996548Y-91860810D01*
X199067976Y-91717953D01*
X199067976Y-91146524D01*
X198996548Y-93146524D02*
X199067976Y-93360810D01*
X199139405Y-93432238D01*
X199282262Y-93503667D01*
X199496548Y-93503667D01*
X199639405Y-93432238D01*
X199710833Y-93360810D01*
X199782262Y-93217953D01*
X199782262Y-92646524D01*
X198282262Y-92646524D01*
X198282262Y-93146524D01*
X198353691Y-93289381D01*
X198425119Y-93360810D01*
X198567976Y-93432238D01*
X198710833Y-93432238D01*
X198853691Y-93360810D01*
X198925119Y-93289381D01*
X198996548Y-93146524D01*
X198996548Y-92646524D01*
X199782262Y-94217953D02*
X199782262Y-94503667D01*
X199710833Y-94646524D01*
X199639405Y-94717953D01*
X199425119Y-94860810D01*
X199139405Y-94932238D01*
X198567976Y-94932238D01*
X198425119Y-94860810D01*
X198353691Y-94789381D01*
X198282262Y-94646524D01*
X198282262Y-94360810D01*
X198353691Y-94217953D01*
X198425119Y-94146524D01*
X198567976Y-94075095D01*
X198925119Y-94075095D01*
X199067976Y-94146524D01*
X199139405Y-94217953D01*
X199210833Y-94360810D01*
X199210833Y-94646524D01*
X199139405Y-94789381D01*
X199067976Y-94860810D01*
X198925119Y-94932238D01*
X202332262Y-89717953D02*
X200832262Y-89717953D01*
X200832262Y-90289381D01*
X200903691Y-90432238D01*
X200975119Y-90503667D01*
X201117976Y-90575095D01*
X201332262Y-90575095D01*
X201475119Y-90503667D01*
X201546548Y-90432238D01*
X201617976Y-90289381D01*
X201617976Y-89717953D01*
X202189405Y-92075095D02*
X202260833Y-92003667D01*
X202332262Y-91789381D01*
X202332262Y-91646524D01*
X202260833Y-91432238D01*
X202117976Y-91289381D01*
X201975119Y-91217953D01*
X201689405Y-91146524D01*
X201475119Y-91146524D01*
X201189405Y-91217953D01*
X201046548Y-91289381D01*
X200903691Y-91432238D01*
X200832262Y-91646524D01*
X200832262Y-91789381D01*
X200903691Y-92003667D01*
X200975119Y-92075095D01*
X202332262Y-93503667D02*
X202332262Y-92646524D01*
X202332262Y-93075095D02*
X200832262Y-93075095D01*
X201046548Y-92932238D01*
X201189405Y-92789381D01*
X201260833Y-92646524D01*
X200832262Y-94003667D02*
X200832262Y-94932238D01*
X201403691Y-94432238D01*
X201403691Y-94646524D01*
X201475119Y-94789381D01*
X201546548Y-94860810D01*
X201689405Y-94932238D01*
X202046548Y-94932238D01*
X202189405Y-94860810D01*
X202260833Y-94789381D01*
X202332262Y-94646524D01*
X202332262Y-94217953D01*
X202260833Y-94075095D01*
X202189405Y-94003667D01*
X204882262Y-91146524D02*
X203382262Y-91146524D01*
X203382262Y-91717953D01*
X203453691Y-91860810D01*
X203525119Y-91932238D01*
X203667976Y-92003667D01*
X203882262Y-92003667D01*
X204025119Y-91932238D01*
X204096548Y-91860810D01*
X204167976Y-91717953D01*
X204167976Y-91146524D01*
X204739405Y-93503667D02*
X204810833Y-93432238D01*
X204882262Y-93217953D01*
X204882262Y-93075095D01*
X204810833Y-92860810D01*
X204667976Y-92717953D01*
X204525119Y-92646524D01*
X204239405Y-92575095D01*
X204025119Y-92575095D01*
X203739405Y-92646524D01*
X203596548Y-92717953D01*
X203453691Y-92860810D01*
X203382262Y-93075095D01*
X203382262Y-93217953D01*
X203453691Y-93432238D01*
X203525119Y-93503667D01*
X203382262Y-94432238D02*
X203382262Y-94575095D01*
X203453691Y-94717953D01*
X203525119Y-94789381D01*
X203667976Y-94860810D01*
X203953691Y-94932238D01*
X204310833Y-94932238D01*
X204596548Y-94860810D01*
X204739405Y-94789381D01*
X204810833Y-94717953D01*
X204882262Y-94575095D01*
X204882262Y-94432238D01*
X204810833Y-94289381D01*
X204739405Y-94217953D01*
X204596548Y-94146524D01*
X204310833Y-94075095D01*
X203953691Y-94075095D01*
X203667976Y-94146524D01*
X203525119Y-94217953D01*
X203453691Y-94289381D01*
X203382262Y-94432238D01*
X207432262Y-91146524D02*
X205932262Y-91146524D01*
X205932262Y-91717953D01*
X206003691Y-91860810D01*
X206075119Y-91932238D01*
X206217976Y-92003667D01*
X206432262Y-92003667D01*
X206575119Y-91932238D01*
X206646548Y-91860810D01*
X206717976Y-91717953D01*
X206717976Y-91146524D01*
X207289405Y-93503667D02*
X207360833Y-93432238D01*
X207432262Y-93217953D01*
X207432262Y-93075095D01*
X207360833Y-92860810D01*
X207217976Y-92717953D01*
X207075119Y-92646524D01*
X206789405Y-92575095D01*
X206575119Y-92575095D01*
X206289405Y-92646524D01*
X206146548Y-92717953D01*
X206003691Y-92860810D01*
X205932262Y-93075095D01*
X205932262Y-93217953D01*
X206003691Y-93432238D01*
X206075119Y-93503667D01*
X207432262Y-94932238D02*
X207432262Y-94075095D01*
X207432262Y-94503667D02*
X205932262Y-94503667D01*
X206146548Y-94360810D01*
X206289405Y-94217953D01*
X206360833Y-94075095D01*
X208553691Y-91789381D02*
X208482262Y-91646524D01*
X208482262Y-91432238D01*
X208553691Y-91217953D01*
X208696548Y-91075095D01*
X208839405Y-91003667D01*
X209125119Y-90932238D01*
X209339405Y-90932238D01*
X209625119Y-91003667D01*
X209767976Y-91075095D01*
X209910833Y-91217953D01*
X209982262Y-91432238D01*
X209982262Y-91575095D01*
X209910833Y-91789381D01*
X209839405Y-91860810D01*
X209339405Y-91860810D01*
X209339405Y-91575095D01*
X209982262Y-92503667D02*
X208482262Y-92503667D01*
X209982262Y-93360810D01*
X208482262Y-93360810D01*
X209982262Y-94075095D02*
X208482262Y-94075095D01*
X208482262Y-94432238D01*
X208553691Y-94646524D01*
X208696548Y-94789381D01*
X208839405Y-94860810D01*
X209125119Y-94932238D01*
X209339405Y-94932238D01*
X209625119Y-94860810D01*
X209767976Y-94789381D01*
X209910833Y-94646524D01*
X209982262Y-94432238D01*
X209982262Y-94075095D01*
X165203691Y-76049810D02*
X165132262Y-75906953D01*
X165132262Y-75692667D01*
X165203691Y-75478381D01*
X165346548Y-75335524D01*
X165489405Y-75264095D01*
X165775119Y-75192667D01*
X165989405Y-75192667D01*
X166275119Y-75264095D01*
X166417976Y-75335524D01*
X166560833Y-75478381D01*
X166632262Y-75692667D01*
X166632262Y-75835524D01*
X166560833Y-76049810D01*
X166489405Y-76121238D01*
X165989405Y-76121238D01*
X165989405Y-75835524D01*
X166632262Y-76764095D02*
X165132262Y-76764095D01*
X166632262Y-77621238D01*
X165132262Y-77621238D01*
X166632262Y-78335524D02*
X165132262Y-78335524D01*
X165132262Y-78692667D01*
X165203691Y-78906953D01*
X165346548Y-79049810D01*
X165489405Y-79121238D01*
X165775119Y-79192667D01*
X165989405Y-79192667D01*
X166275119Y-79121238D01*
X166417976Y-79049810D01*
X166560833Y-78906953D01*
X166632262Y-78692667D01*
X166632262Y-78335524D01*
X167682262Y-75121238D02*
X167682262Y-76049810D01*
X168253691Y-75549810D01*
X168253691Y-75764095D01*
X168325119Y-75906953D01*
X168396548Y-75978381D01*
X168539405Y-76049810D01*
X168896548Y-76049810D01*
X169039405Y-75978381D01*
X169110833Y-75906953D01*
X169182262Y-75764095D01*
X169182262Y-75335524D01*
X169110833Y-75192667D01*
X169039405Y-75121238D01*
X167682262Y-76478381D02*
X169182262Y-76978381D01*
X167682262Y-77478381D01*
X167682262Y-77835524D02*
X167682262Y-78764095D01*
X168253691Y-78264095D01*
X168253691Y-78478381D01*
X168325119Y-78621238D01*
X168396548Y-78692667D01*
X168539405Y-78764095D01*
X168896548Y-78764095D01*
X169039405Y-78692667D01*
X169110833Y-78621238D01*
X169182262Y-78478381D01*
X169182262Y-78049810D01*
X169110833Y-77906953D01*
X169039405Y-77835524D01*
X171732262Y-75264095D02*
X170232262Y-75264095D01*
X170232262Y-75835524D01*
X170303691Y-75978381D01*
X170375119Y-76049810D01*
X170517976Y-76121238D01*
X170732262Y-76121238D01*
X170875119Y-76049810D01*
X170946548Y-75978381D01*
X171017976Y-75835524D01*
X171017976Y-75264095D01*
X171303691Y-76692667D02*
X171303691Y-77406953D01*
X171732262Y-76549810D02*
X170232262Y-77049810D01*
X171732262Y-77549810D01*
X170875119Y-78264095D02*
X170803691Y-78121238D01*
X170732262Y-78049810D01*
X170589405Y-77978381D01*
X170517976Y-77978381D01*
X170375119Y-78049810D01*
X170303691Y-78121238D01*
X170232262Y-78264095D01*
X170232262Y-78549810D01*
X170303691Y-78692667D01*
X170375119Y-78764095D01*
X170517976Y-78835524D01*
X170589405Y-78835524D01*
X170732262Y-78764095D01*
X170803691Y-78692667D01*
X170875119Y-78549810D01*
X170875119Y-78264095D01*
X170946548Y-78121238D01*
X171017976Y-78049810D01*
X171160833Y-77978381D01*
X171446548Y-77978381D01*
X171589405Y-78049810D01*
X171660833Y-78121238D01*
X171732262Y-78264095D01*
X171732262Y-78549810D01*
X171660833Y-78692667D01*
X171589405Y-78764095D01*
X171446548Y-78835524D01*
X171160833Y-78835524D01*
X171017976Y-78764095D01*
X170946548Y-78692667D01*
X170875119Y-78549810D01*
X174282262Y-75264095D02*
X172782262Y-75264095D01*
X172782262Y-75835524D01*
X172853691Y-75978381D01*
X172925119Y-76049810D01*
X173067976Y-76121238D01*
X173282262Y-76121238D01*
X173425119Y-76049810D01*
X173496548Y-75978381D01*
X173567976Y-75835524D01*
X173567976Y-75264095D01*
X174139405Y-77621238D02*
X174210833Y-77549810D01*
X174282262Y-77335524D01*
X174282262Y-77192667D01*
X174210833Y-76978381D01*
X174067976Y-76835524D01*
X173925119Y-76764095D01*
X173639405Y-76692667D01*
X173425119Y-76692667D01*
X173139405Y-76764095D01*
X172996548Y-76835524D01*
X172853691Y-76978381D01*
X172782262Y-77192667D01*
X172782262Y-77335524D01*
X172853691Y-77549810D01*
X172925119Y-77621238D01*
X174282262Y-78335524D02*
X174282262Y-78621238D01*
X174210833Y-78764095D01*
X174139405Y-78835524D01*
X173925119Y-78978381D01*
X173639405Y-79049810D01*
X173067976Y-79049810D01*
X172925119Y-78978381D01*
X172853691Y-78906953D01*
X172782262Y-78764095D01*
X172782262Y-78478381D01*
X172853691Y-78335524D01*
X172925119Y-78264095D01*
X173067976Y-78192667D01*
X173425119Y-78192667D01*
X173567976Y-78264095D01*
X173639405Y-78335524D01*
X173710833Y-78478381D01*
X173710833Y-78764095D01*
X173639405Y-78906953D01*
X173567976Y-78978381D01*
X173425119Y-79049810D01*
X176832262Y-75264095D02*
X175332262Y-75264095D01*
X175332262Y-75835524D01*
X175403691Y-75978381D01*
X175475119Y-76049810D01*
X175617976Y-76121238D01*
X175832262Y-76121238D01*
X175975119Y-76049810D01*
X176046548Y-75978381D01*
X176117976Y-75835524D01*
X176117976Y-75264095D01*
X176689405Y-77621238D02*
X176760833Y-77549810D01*
X176832262Y-77335524D01*
X176832262Y-77192667D01*
X176760833Y-76978381D01*
X176617976Y-76835524D01*
X176475119Y-76764095D01*
X176189405Y-76692667D01*
X175975119Y-76692667D01*
X175689405Y-76764095D01*
X175546548Y-76835524D01*
X175403691Y-76978381D01*
X175332262Y-77192667D01*
X175332262Y-77335524D01*
X175403691Y-77549810D01*
X175475119Y-77621238D01*
X175975119Y-78478381D02*
X175903691Y-78335524D01*
X175832262Y-78264095D01*
X175689405Y-78192667D01*
X175617976Y-78192667D01*
X175475119Y-78264095D01*
X175403691Y-78335524D01*
X175332262Y-78478381D01*
X175332262Y-78764095D01*
X175403691Y-78906953D01*
X175475119Y-78978381D01*
X175617976Y-79049810D01*
X175689405Y-79049810D01*
X175832262Y-78978381D01*
X175903691Y-78906953D01*
X175975119Y-78764095D01*
X175975119Y-78478381D01*
X176046548Y-78335524D01*
X176117976Y-78264095D01*
X176260833Y-78192667D01*
X176546548Y-78192667D01*
X176689405Y-78264095D01*
X176760833Y-78335524D01*
X176832262Y-78478381D01*
X176832262Y-78764095D01*
X176760833Y-78906953D01*
X176689405Y-78978381D01*
X176546548Y-79049810D01*
X176260833Y-79049810D01*
X176117976Y-78978381D01*
X176046548Y-78906953D01*
X175975119Y-78764095D01*
X179382262Y-75264095D02*
X177882262Y-75264095D01*
X177882262Y-75835524D01*
X177953691Y-75978381D01*
X178025119Y-76049810D01*
X178167976Y-76121238D01*
X178382262Y-76121238D01*
X178525119Y-76049810D01*
X178596548Y-75978381D01*
X178667976Y-75835524D01*
X178667976Y-75264095D01*
X179239405Y-77621238D02*
X179310833Y-77549810D01*
X179382262Y-77335524D01*
X179382262Y-77192667D01*
X179310833Y-76978381D01*
X179167976Y-76835524D01*
X179025119Y-76764095D01*
X178739405Y-76692667D01*
X178525119Y-76692667D01*
X178239405Y-76764095D01*
X178096548Y-76835524D01*
X177953691Y-76978381D01*
X177882262Y-77192667D01*
X177882262Y-77335524D01*
X177953691Y-77549810D01*
X178025119Y-77621238D01*
X177882262Y-78121238D02*
X177882262Y-79121238D01*
X179382262Y-78478381D01*
X181932262Y-75264095D02*
X180432262Y-75264095D01*
X180432262Y-75835524D01*
X180503691Y-75978381D01*
X180575119Y-76049810D01*
X180717976Y-76121238D01*
X180932262Y-76121238D01*
X181075119Y-76049810D01*
X181146548Y-75978381D01*
X181217976Y-75835524D01*
X181217976Y-75264095D01*
X181789405Y-77621238D02*
X181860833Y-77549810D01*
X181932262Y-77335524D01*
X181932262Y-77192667D01*
X181860833Y-76978381D01*
X181717976Y-76835524D01*
X181575119Y-76764095D01*
X181289405Y-76692667D01*
X181075119Y-76692667D01*
X180789405Y-76764095D01*
X180646548Y-76835524D01*
X180503691Y-76978381D01*
X180432262Y-77192667D01*
X180432262Y-77335524D01*
X180503691Y-77549810D01*
X180575119Y-77621238D01*
X180432262Y-78906953D02*
X180432262Y-78621238D01*
X180503691Y-78478381D01*
X180575119Y-78406953D01*
X180789405Y-78264095D01*
X181075119Y-78192667D01*
X181646548Y-78192667D01*
X181789405Y-78264095D01*
X181860833Y-78335524D01*
X181932262Y-78478381D01*
X181932262Y-78764095D01*
X181860833Y-78906953D01*
X181789405Y-78978381D01*
X181646548Y-79049810D01*
X181289405Y-79049810D01*
X181146548Y-78978381D01*
X181075119Y-78906953D01*
X181003691Y-78764095D01*
X181003691Y-78478381D01*
X181075119Y-78335524D01*
X181146548Y-78264095D01*
X181289405Y-78192667D01*
X184482262Y-75264095D02*
X182982262Y-75264095D01*
X182982262Y-75835524D01*
X183053691Y-75978381D01*
X183125119Y-76049810D01*
X183267976Y-76121238D01*
X183482262Y-76121238D01*
X183625119Y-76049810D01*
X183696548Y-75978381D01*
X183767976Y-75835524D01*
X183767976Y-75264095D01*
X183696548Y-77264095D02*
X183767976Y-77478381D01*
X183839405Y-77549810D01*
X183982262Y-77621238D01*
X184196548Y-77621238D01*
X184339405Y-77549810D01*
X184410833Y-77478381D01*
X184482262Y-77335524D01*
X184482262Y-76764095D01*
X182982262Y-76764095D01*
X182982262Y-77264095D01*
X183053691Y-77406953D01*
X183125119Y-77478381D01*
X183267976Y-77549810D01*
X183410833Y-77549810D01*
X183553691Y-77478381D01*
X183625119Y-77406953D01*
X183696548Y-77264095D01*
X183696548Y-76764095D01*
X184482262Y-79049810D02*
X184482262Y-78192667D01*
X184482262Y-78621238D02*
X182982262Y-78621238D01*
X183196548Y-78478381D01*
X183339405Y-78335524D01*
X183410833Y-78192667D01*
X182982262Y-79978381D02*
X182982262Y-80121238D01*
X183053691Y-80264095D01*
X183125119Y-80335524D01*
X183267976Y-80406953D01*
X183553691Y-80478381D01*
X183910833Y-80478381D01*
X184196548Y-80406953D01*
X184339405Y-80335524D01*
X184410833Y-80264095D01*
X184482262Y-80121238D01*
X184482262Y-79978381D01*
X184410833Y-79835524D01*
X184339405Y-79764095D01*
X184196548Y-79692667D01*
X183910833Y-79621238D01*
X183553691Y-79621238D01*
X183267976Y-79692667D01*
X183125119Y-79764095D01*
X183053691Y-79835524D01*
X182982262Y-79978381D01*
X187032262Y-75264095D02*
X185532262Y-75264095D01*
X185532262Y-75835524D01*
X185603691Y-75978381D01*
X185675119Y-76049810D01*
X185817976Y-76121238D01*
X186032262Y-76121238D01*
X186175119Y-76049810D01*
X186246548Y-75978381D01*
X186317976Y-75835524D01*
X186317976Y-75264095D01*
X186246548Y-77264095D02*
X186317976Y-77478381D01*
X186389405Y-77549810D01*
X186532262Y-77621238D01*
X186746548Y-77621238D01*
X186889405Y-77549810D01*
X186960833Y-77478381D01*
X187032262Y-77335524D01*
X187032262Y-76764095D01*
X185532262Y-76764095D01*
X185532262Y-77264095D01*
X185603691Y-77406953D01*
X185675119Y-77478381D01*
X185817976Y-77549810D01*
X185960833Y-77549810D01*
X186103691Y-77478381D01*
X186175119Y-77406953D01*
X186246548Y-77264095D01*
X186246548Y-76764095D01*
X187032262Y-79049810D02*
X187032262Y-78192667D01*
X187032262Y-78621238D02*
X185532262Y-78621238D01*
X185746548Y-78478381D01*
X185889405Y-78335524D01*
X185960833Y-78192667D01*
X189582262Y-75264095D02*
X188082262Y-75264095D01*
X188082262Y-75835524D01*
X188153691Y-75978381D01*
X188225119Y-76049810D01*
X188367976Y-76121238D01*
X188582262Y-76121238D01*
X188725119Y-76049810D01*
X188796548Y-75978381D01*
X188867976Y-75835524D01*
X188867976Y-75264095D01*
X188796548Y-77264095D02*
X188867976Y-77478381D01*
X188939405Y-77549810D01*
X189082262Y-77621238D01*
X189296548Y-77621238D01*
X189439405Y-77549810D01*
X189510833Y-77478381D01*
X189582262Y-77335524D01*
X189582262Y-76764095D01*
X188082262Y-76764095D01*
X188082262Y-77264095D01*
X188153691Y-77406953D01*
X188225119Y-77478381D01*
X188367976Y-77549810D01*
X188510833Y-77549810D01*
X188653691Y-77478381D01*
X188725119Y-77406953D01*
X188796548Y-77264095D01*
X188796548Y-76764095D01*
X188082262Y-78549810D02*
X188082262Y-78692667D01*
X188153691Y-78835524D01*
X188225119Y-78906953D01*
X188367976Y-78978381D01*
X188653691Y-79049810D01*
X189010833Y-79049810D01*
X189296548Y-78978381D01*
X189439405Y-78906953D01*
X189510833Y-78835524D01*
X189582262Y-78692667D01*
X189582262Y-78549810D01*
X189510833Y-78406953D01*
X189439405Y-78335524D01*
X189296548Y-78264095D01*
X189010833Y-78192667D01*
X188653691Y-78192667D01*
X188367976Y-78264095D01*
X188225119Y-78335524D01*
X188153691Y-78406953D01*
X188082262Y-78549810D01*
X192132262Y-75264095D02*
X190632262Y-75264095D01*
X190632262Y-75835524D01*
X190703691Y-75978381D01*
X190775119Y-76049810D01*
X190917976Y-76121238D01*
X191132262Y-76121238D01*
X191275119Y-76049810D01*
X191346548Y-75978381D01*
X191417976Y-75835524D01*
X191417976Y-75264095D01*
X191989405Y-77621238D02*
X192060833Y-77549810D01*
X192132262Y-77335524D01*
X192132262Y-77192667D01*
X192060833Y-76978381D01*
X191917976Y-76835524D01*
X191775119Y-76764095D01*
X191489405Y-76692667D01*
X191275119Y-76692667D01*
X190989405Y-76764095D01*
X190846548Y-76835524D01*
X190703691Y-76978381D01*
X190632262Y-77192667D01*
X190632262Y-77335524D01*
X190703691Y-77549810D01*
X190775119Y-77621238D01*
X190632262Y-78978381D02*
X190632262Y-78264095D01*
X191346548Y-78192667D01*
X191275119Y-78264095D01*
X191203691Y-78406953D01*
X191203691Y-78764095D01*
X191275119Y-78906953D01*
X191346548Y-78978381D01*
X191489405Y-79049810D01*
X191846548Y-79049810D01*
X191989405Y-78978381D01*
X192060833Y-78906953D01*
X192132262Y-78764095D01*
X192132262Y-78406953D01*
X192060833Y-78264095D01*
X191989405Y-78192667D01*
X194682262Y-75264095D02*
X193182262Y-75264095D01*
X193182262Y-75835524D01*
X193253691Y-75978381D01*
X193325119Y-76049810D01*
X193467976Y-76121238D01*
X193682262Y-76121238D01*
X193825119Y-76049810D01*
X193896548Y-75978381D01*
X193967976Y-75835524D01*
X193967976Y-75264095D01*
X194539405Y-77621238D02*
X194610833Y-77549810D01*
X194682262Y-77335524D01*
X194682262Y-77192667D01*
X194610833Y-76978381D01*
X194467976Y-76835524D01*
X194325119Y-76764095D01*
X194039405Y-76692667D01*
X193825119Y-76692667D01*
X193539405Y-76764095D01*
X193396548Y-76835524D01*
X193253691Y-76978381D01*
X193182262Y-77192667D01*
X193182262Y-77335524D01*
X193253691Y-77549810D01*
X193325119Y-77621238D01*
X193682262Y-78906953D02*
X194682262Y-78906953D01*
X193110833Y-78549810D02*
X194182262Y-78192667D01*
X194182262Y-79121238D01*
X197232262Y-75264095D02*
X195732262Y-75264095D01*
X195732262Y-75835524D01*
X195803691Y-75978381D01*
X195875119Y-76049810D01*
X196017976Y-76121238D01*
X196232262Y-76121238D01*
X196375119Y-76049810D01*
X196446548Y-75978381D01*
X196517976Y-75835524D01*
X196517976Y-75264095D01*
X196803691Y-76692667D02*
X196803691Y-77406953D01*
X197232262Y-76549810D02*
X195732262Y-77049810D01*
X197232262Y-77549810D01*
X195732262Y-77906953D02*
X195732262Y-78906953D01*
X197232262Y-78264095D01*
X199782262Y-75264095D02*
X198282262Y-75264095D01*
X198282262Y-75835524D01*
X198353691Y-75978381D01*
X198425119Y-76049810D01*
X198567976Y-76121238D01*
X198782262Y-76121238D01*
X198925119Y-76049810D01*
X198996548Y-75978381D01*
X199067976Y-75835524D01*
X199067976Y-75264095D01*
X199353691Y-76692667D02*
X199353691Y-77406953D01*
X199782262Y-76549810D02*
X198282262Y-77049810D01*
X199782262Y-77549810D01*
X198282262Y-78692667D02*
X198282262Y-78406953D01*
X198353691Y-78264095D01*
X198425119Y-78192667D01*
X198639405Y-78049810D01*
X198925119Y-77978381D01*
X199496548Y-77978381D01*
X199639405Y-78049810D01*
X199710833Y-78121238D01*
X199782262Y-78264095D01*
X199782262Y-78549810D01*
X199710833Y-78692667D01*
X199639405Y-78764095D01*
X199496548Y-78835524D01*
X199139405Y-78835524D01*
X198996548Y-78764095D01*
X198925119Y-78692667D01*
X198853691Y-78549810D01*
X198853691Y-78264095D01*
X198925119Y-78121238D01*
X198996548Y-78049810D01*
X199139405Y-77978381D01*
X202332262Y-75264095D02*
X200832262Y-75264095D01*
X200832262Y-75835524D01*
X200903691Y-75978381D01*
X200975119Y-76049810D01*
X201117976Y-76121238D01*
X201332262Y-76121238D01*
X201475119Y-76049810D01*
X201546548Y-75978381D01*
X201617976Y-75835524D01*
X201617976Y-75264095D01*
X201903691Y-76692667D02*
X201903691Y-77406953D01*
X202332262Y-76549810D02*
X200832262Y-77049810D01*
X202332262Y-77549810D01*
X200832262Y-78764095D02*
X200832262Y-78049810D01*
X201546548Y-77978381D01*
X201475119Y-78049810D01*
X201403691Y-78192667D01*
X201403691Y-78549810D01*
X201475119Y-78692667D01*
X201546548Y-78764095D01*
X201689405Y-78835524D01*
X202046548Y-78835524D01*
X202189405Y-78764095D01*
X202260833Y-78692667D01*
X202332262Y-78549810D01*
X202332262Y-78192667D01*
X202260833Y-78049810D01*
X202189405Y-77978381D01*
X204882262Y-75264095D02*
X203382262Y-75264095D01*
X203382262Y-75835524D01*
X203453691Y-75978381D01*
X203525119Y-76049810D01*
X203667976Y-76121238D01*
X203882262Y-76121238D01*
X204025119Y-76049810D01*
X204096548Y-75978381D01*
X204167976Y-75835524D01*
X204167976Y-75264095D01*
X204453691Y-76692667D02*
X204453691Y-77406953D01*
X204882262Y-76549810D02*
X203382262Y-77049810D01*
X204882262Y-77549810D01*
X203882262Y-78692667D02*
X204882262Y-78692667D01*
X203310833Y-78335524D02*
X204382262Y-77978381D01*
X204382262Y-78906953D01*
X207432262Y-75264095D02*
X205932262Y-75264095D01*
X205932262Y-75835524D01*
X206003691Y-75978381D01*
X206075119Y-76049810D01*
X206217976Y-76121238D01*
X206432262Y-76121238D01*
X206575119Y-76049810D01*
X206646548Y-75978381D01*
X206717976Y-75835524D01*
X206717976Y-75264095D01*
X207003691Y-76692667D02*
X207003691Y-77406953D01*
X207432262Y-76549810D02*
X205932262Y-77049810D01*
X207432262Y-77549810D01*
X205932262Y-77906953D02*
X205932262Y-78835524D01*
X206503691Y-78335524D01*
X206503691Y-78549810D01*
X206575119Y-78692667D01*
X206646548Y-78764095D01*
X206789405Y-78835524D01*
X207146548Y-78835524D01*
X207289405Y-78764095D01*
X207360833Y-78692667D01*
X207432262Y-78549810D01*
X207432262Y-78121238D01*
X207360833Y-77978381D01*
X207289405Y-77906953D01*
X208553691Y-76049810D02*
X208482262Y-75906953D01*
X208482262Y-75692667D01*
X208553691Y-75478381D01*
X208696548Y-75335524D01*
X208839405Y-75264095D01*
X209125119Y-75192667D01*
X209339405Y-75192667D01*
X209625119Y-75264095D01*
X209767976Y-75335524D01*
X209910833Y-75478381D01*
X209982262Y-75692667D01*
X209982262Y-75835524D01*
X209910833Y-76049810D01*
X209839405Y-76121238D01*
X209339405Y-76121238D01*
X209339405Y-75835524D01*
X209982262Y-76764095D02*
X208482262Y-76764095D01*
X209982262Y-77621238D01*
X208482262Y-77621238D01*
X209982262Y-78335524D02*
X208482262Y-78335524D01*
X208482262Y-78692667D01*
X208553691Y-78906953D01*
X208696548Y-79049810D01*
X208839405Y-79121238D01*
X209125119Y-79192667D01*
X209339405Y-79192667D01*
X209625119Y-79121238D01*
X209767976Y-79049810D01*
X209910833Y-78906953D01*
X209982262Y-78692667D01*
X209982262Y-78335524D01*
M02*
