G04 #@! TF.FileFunction,Copper,L4,Bot,Signal*
%FSLAX46Y46*%
G04 Gerber Fmt 4.6, Leading zero omitted, Abs format (unit mm)*
G04 Created by KiCad (PCBNEW (2016-09-14 revision 83ed3c9)-makepkg) date 10/14/16 01:05:57*
%MOMM*%
%LPD*%
G01*
G04 APERTURE LIST*
%ADD10C,0.100000*%
%ADD11O,1.727200X2.032000*%
%ADD12R,1.727200X2.032000*%
%ADD13C,4.000000*%
%ADD14R,1.700000X1.200000*%
%ADD15O,1.700000X1.200000*%
%ADD16C,2.000000*%
%ADD17C,1.041000*%
%ADD18C,0.635000*%
%ADD19C,0.635000*%
%ADD20C,0.177800*%
%ADD21C,0.254000*%
G04 APERTURE END LIST*
D10*
D11*
X209053691Y-96508953D03*
X206513691Y-96508953D03*
X203973691Y-96508953D03*
X201433691Y-96508953D03*
X198893691Y-96508953D03*
X196353691Y-96508953D03*
X193813691Y-96508953D03*
X191273691Y-96508953D03*
X188733691Y-96508953D03*
X186193691Y-96508953D03*
X183653691Y-96508953D03*
X181113691Y-96508953D03*
X178573691Y-96508953D03*
X176033691Y-96508953D03*
X173493691Y-96508953D03*
X170953691Y-96508953D03*
X168413691Y-96508953D03*
D12*
X165873691Y-96508953D03*
X165873691Y-73648953D03*
D11*
X168413691Y-73648953D03*
X170953691Y-73648953D03*
X173493691Y-73648953D03*
X176033691Y-73648953D03*
X178573691Y-73648953D03*
X181113691Y-73648953D03*
X183653691Y-73648953D03*
X186193691Y-73648953D03*
X188733691Y-73648953D03*
X191273691Y-73648953D03*
X193813691Y-73648953D03*
X196353691Y-73648953D03*
X198893691Y-73648953D03*
X201433691Y-73648953D03*
X203973691Y-73648953D03*
X206513691Y-73648953D03*
X209053691Y-73648953D03*
D13*
X160873691Y-74578953D03*
X213873691Y-74578953D03*
X160873691Y-95578953D03*
X213873691Y-95578953D03*
D14*
X147877691Y-88046953D03*
D15*
X147877691Y-86046953D03*
D14*
X147877691Y-96396953D03*
D15*
X147877691Y-94396953D03*
X147877691Y-92396953D03*
D16*
X147307691Y-74431553D03*
X147307691Y-82781553D03*
D17*
X150332691Y-76381553D03*
X150332691Y-80831553D03*
D18*
X210947000Y-78613000D03*
X201549000Y-80518000D03*
X200533000Y-77343000D03*
X207235997Y-78229078D03*
X208827137Y-78532494D03*
X206375000Y-78232000D03*
X205175353Y-80035409D03*
X202057000Y-77216000D03*
X203526348Y-80098198D03*
X195199000Y-79219111D03*
X216825991Y-85964153D03*
X216825991Y-89316953D03*
X213892291Y-85964153D03*
X213879591Y-89329653D03*
X217623691Y-79778953D03*
X217623691Y-81853953D03*
X188339891Y-76870953D03*
X190478276Y-80029504D03*
X189293885Y-76793016D03*
X197364148Y-93938496D03*
X197948691Y-90378953D03*
X195573691Y-85778953D03*
X197873691Y-85853953D03*
X196648691Y-83828953D03*
X196473691Y-88053953D03*
X194123691Y-88703953D03*
X192223691Y-90278953D03*
X192148691Y-92878953D03*
X193023691Y-93453953D03*
X152248691Y-72759953D03*
X151673691Y-72209953D03*
X151673691Y-73234953D03*
X157973691Y-88128953D03*
X157323691Y-88753953D03*
X157198691Y-91878953D03*
X156748691Y-92953953D03*
X155623691Y-92953953D03*
X154291191Y-92952453D03*
X153075191Y-92952453D03*
X152248691Y-91278953D03*
X152248691Y-92928953D03*
X152248691Y-93778953D03*
X194073691Y-83578953D03*
X192696273Y-83721051D03*
X189441469Y-83230010D03*
X177853499Y-88780199D03*
X178048691Y-90578953D03*
X187019047Y-93698248D03*
X153713641Y-73497304D03*
X151103491Y-79902953D03*
X204306225Y-91588794D03*
X203001469Y-85889738D03*
X205985976Y-85887091D03*
X205984474Y-82908914D03*
X203003380Y-82910435D03*
X205984494Y-84396949D03*
X203001598Y-84399802D03*
X204494763Y-85865804D03*
X204493943Y-82936843D03*
X204494549Y-84398953D03*
X204494549Y-84398953D03*
X179222691Y-77759953D03*
X190525691Y-91278953D03*
X200908993Y-88049798D03*
X205059691Y-77267953D03*
X211013691Y-76748953D03*
X182004455Y-75889533D03*
X181135213Y-75889533D03*
X162373691Y-91078953D03*
X209957691Y-81441953D03*
X210253366Y-84483338D03*
X153487891Y-76341353D03*
X154430891Y-89164553D03*
X153386291Y-81980153D03*
X153487891Y-80811753D03*
X206343685Y-88863506D03*
X209537427Y-86268706D03*
X164133691Y-86268953D03*
X181508691Y-80299953D03*
X161947697Y-83377090D03*
X161940591Y-82094953D03*
X161877091Y-79554953D03*
X209931000Y-78486000D03*
X208044408Y-78313445D03*
X167845265Y-84634127D03*
X167846091Y-82094953D03*
X187440815Y-76907023D03*
X190821945Y-76747235D03*
X191883576Y-83734762D03*
X179055290Y-90573042D03*
X204007091Y-89068753D03*
X180238691Y-77759953D03*
X167846091Y-79554953D03*
X167846091Y-80836617D03*
X167846091Y-83362190D03*
X182905949Y-75889533D03*
X200177640Y-86374183D03*
X208179691Y-82203953D03*
X167181691Y-92047453D03*
X163816191Y-91602953D03*
X205378485Y-88863506D03*
X209442485Y-87796706D03*
X208521427Y-86268706D03*
X167181691Y-93571453D03*
X163816191Y-93507953D03*
X189001691Y-93122953D03*
X161940591Y-84634953D03*
X155294491Y-77078953D03*
X155285691Y-87453953D03*
X157986891Y-95133553D03*
X157453491Y-96174953D03*
X158317091Y-97216353D03*
X168748691Y-85253953D03*
X177165085Y-88345347D03*
X168723691Y-83353953D03*
X180912051Y-89406848D03*
X168748691Y-82053953D03*
X183947595Y-89329652D03*
X168636162Y-81027496D03*
X181635492Y-88405980D03*
X168880904Y-80252417D03*
X184615969Y-88853101D03*
X183616181Y-92353953D03*
X200298681Y-84087440D03*
X197223848Y-81959671D03*
X183540691Y-80807953D03*
X201014245Y-82170107D03*
X202457691Y-88103553D03*
X211608691Y-79865953D03*
X200381709Y-80601865D03*
X193251024Y-81106418D03*
X191899526Y-80516658D03*
X188200857Y-83925589D03*
X160373691Y-91078953D03*
X187448691Y-89403953D03*
X187214535Y-80799009D03*
X186523939Y-81305907D03*
X185903387Y-80780951D03*
X170921866Y-80803953D03*
X172127098Y-80673473D03*
X171537901Y-80088685D03*
X173608079Y-80802038D03*
X172711308Y-80026971D03*
X182373691Y-80578953D03*
X188898691Y-85953953D03*
X189198691Y-84828953D03*
X189223691Y-88328953D03*
X188468236Y-80710438D03*
D19*
X155294491Y-87445153D02*
X155294491Y-77078953D01*
X155285691Y-87453953D02*
X155294491Y-87445153D01*
X158317091Y-97216353D02*
X158317091Y-97038553D01*
X158317091Y-97038553D02*
X157453491Y-96174953D01*
D20*
X168748691Y-85253953D02*
X171857880Y-85253953D01*
X171857880Y-85253953D02*
X174363490Y-87759563D01*
X174363490Y-87759563D02*
X176579301Y-87759563D01*
X176579301Y-87759563D02*
X177165085Y-88345347D01*
X174798691Y-87403953D02*
X179208706Y-87403953D01*
X168723691Y-83353953D02*
X170477325Y-83353953D01*
X170477325Y-83353953D02*
X174527323Y-87403951D01*
X174527323Y-87403951D02*
X174798689Y-87403951D01*
X174798689Y-87403951D02*
X174798691Y-87403953D01*
X180594552Y-89089349D02*
X180912051Y-89406848D01*
X179208706Y-87403953D02*
X180594552Y-88789799D01*
X180594552Y-88789799D02*
X180594552Y-89089349D01*
X174848691Y-87048342D02*
X179448260Y-87048342D01*
X169680233Y-82053953D02*
X174674622Y-87048342D01*
X174674622Y-87048342D02*
X174848691Y-87048342D01*
X168748691Y-82053953D02*
X169680233Y-82053953D01*
X179448260Y-87048342D02*
X181651439Y-89251521D01*
X181651439Y-89251521D02*
X182249784Y-89251521D01*
X182249784Y-89251521D02*
X182499635Y-89001670D01*
X182499635Y-89001670D02*
X183619613Y-89001670D01*
X183619613Y-89001670D02*
X183947595Y-89329652D01*
X175073691Y-86682496D02*
X179912008Y-86682496D01*
X168636162Y-81027496D02*
X168637619Y-81028953D01*
X168637619Y-81028953D02*
X169158141Y-81028953D01*
X169158141Y-81028953D02*
X174811684Y-86682496D01*
X174811684Y-86682496D02*
X175073691Y-86682496D01*
X181317993Y-88088481D02*
X181635492Y-88405980D01*
X179912008Y-86682496D02*
X181317993Y-88088481D01*
X184615969Y-88853101D02*
X184298470Y-88535602D01*
X184298470Y-88535602D02*
X182591313Y-88535602D01*
X182591313Y-88535602D02*
X180382597Y-86326886D01*
X180382597Y-86326886D02*
X174958982Y-86326886D01*
X174958982Y-86326886D02*
X168884513Y-80252417D01*
X168884513Y-80252417D02*
X168880904Y-80252417D01*
X199803691Y-84087440D02*
X199451507Y-84087440D01*
X199451507Y-84087440D02*
X198499994Y-85038953D01*
X198499994Y-85038953D02*
X192108691Y-85038953D01*
X192108691Y-85038953D02*
X191304644Y-84234906D01*
X191304644Y-84234906D02*
X188717738Y-84234906D01*
X188717738Y-84234906D02*
X188065926Y-84886718D01*
X188065926Y-84886718D02*
X188065926Y-87904208D01*
X188065926Y-87904208D02*
X183616181Y-92353953D01*
X199803691Y-84087440D02*
X200298681Y-84087440D01*
X199700868Y-84087440D02*
X199803691Y-84087440D01*
X196774836Y-81959671D02*
X197223848Y-81959671D01*
X184692409Y-81959671D02*
X196774836Y-81959671D01*
X183540691Y-80807953D02*
X184692409Y-81959671D01*
X202457691Y-88103553D02*
X201014245Y-86660107D01*
X201014245Y-86660107D02*
X201014245Y-82619119D01*
X201014245Y-82619119D02*
X201014245Y-82170107D01*
X211608691Y-79865953D02*
X211171907Y-79429169D01*
X201554405Y-79429169D02*
X200699208Y-80284366D01*
X200699208Y-80284366D02*
X200381709Y-80601865D01*
X211171907Y-79429169D02*
X201554405Y-79429169D01*
X191899526Y-80516658D02*
X192661264Y-80516658D01*
X192661264Y-80516658D02*
X192933525Y-80788919D01*
X192933525Y-80788919D02*
X193251024Y-81106418D01*
X188200857Y-83925589D02*
X187710316Y-84416130D01*
X187710316Y-84416130D02*
X187710316Y-87699146D01*
X187710316Y-87699146D02*
X185418413Y-89991049D01*
X185418413Y-89991049D02*
X180631634Y-89991049D01*
X180631634Y-89991049D02*
X180629426Y-89988841D01*
X180629426Y-89988841D02*
X161463803Y-89988841D01*
X161463803Y-89988841D02*
X160373691Y-91078953D01*
X187448691Y-89403953D02*
X190303963Y-92259225D01*
X190303963Y-92259225D02*
X196821996Y-92259225D01*
X196821996Y-92259225D02*
X198893691Y-94330920D01*
X198893691Y-94330920D02*
X198893691Y-96508953D01*
X203973691Y-73801353D02*
X203973691Y-73648953D01*
X200479186Y-75269644D02*
X202505400Y-75269644D01*
X197623892Y-78124939D02*
X200479186Y-75269644D01*
X189888605Y-78124939D02*
X197623892Y-78124939D01*
X187214535Y-80799009D02*
X189888605Y-78124939D01*
X202505400Y-75269644D02*
X203973691Y-73801353D01*
X197465714Y-77769330D02*
X201433691Y-73801353D01*
X201433691Y-73801353D02*
X201433691Y-73648953D01*
X186523939Y-81305907D02*
X186523939Y-80663407D01*
X186523939Y-80663407D02*
X189418016Y-77769330D01*
X189418016Y-77769330D02*
X197465714Y-77769330D01*
X185903387Y-80780951D02*
X189270619Y-77413719D01*
X189270619Y-77413719D02*
X197278632Y-77413719D01*
X197278632Y-77413719D02*
X198893691Y-75798660D01*
X198893691Y-75798660D02*
X198893691Y-73648953D01*
X170921866Y-80803953D02*
X170921866Y-73680778D01*
X170921866Y-73680778D02*
X170953691Y-73648953D01*
X176033691Y-73648953D02*
X176033691Y-73848563D01*
X176033691Y-73848563D02*
X172127098Y-77755156D01*
X172127098Y-77755156D02*
X172127098Y-80224461D01*
X172127098Y-80224461D02*
X172127098Y-80673473D01*
X171537901Y-80088685D02*
X171537901Y-77841445D01*
X171537901Y-77841445D02*
X173493691Y-75885655D01*
X173493691Y-75885655D02*
X173493691Y-73648953D01*
X178552091Y-76362953D02*
X181113691Y-73801353D01*
X181113691Y-73801353D02*
X181113691Y-73648953D01*
X174019378Y-80390739D02*
X174019378Y-76917085D01*
X174019378Y-76917085D02*
X174573510Y-76362953D01*
X173608079Y-80802038D02*
X174019378Y-80390739D01*
X174573510Y-76362953D02*
X178552091Y-76362953D01*
X174426212Y-76007342D02*
X172711308Y-77722246D01*
X176367702Y-76007342D02*
X174426212Y-76007342D01*
X178573691Y-73801353D02*
X176367702Y-76007342D01*
X178573691Y-73648953D02*
X178573691Y-73801353D01*
X172711308Y-79577959D02*
X172711308Y-80026971D01*
X172711308Y-77722246D02*
X172711308Y-79577959D01*
X182373691Y-80578953D02*
X183653691Y-79298953D01*
X183653691Y-79298953D02*
X183653691Y-73648953D01*
X188898691Y-85953953D02*
X194485945Y-91541207D01*
X194485945Y-91541207D02*
X197121253Y-91541207D01*
X197121253Y-91541207D02*
X200256399Y-94676353D01*
X200256399Y-94676353D02*
X202293491Y-94676353D01*
X202293491Y-94676353D02*
X203973691Y-96356553D01*
X203973691Y-96356553D02*
X203973691Y-96508953D01*
X200200507Y-94117553D02*
X204274691Y-94117553D01*
X204274691Y-94117553D02*
X206513691Y-96356553D01*
X206513691Y-96356553D02*
X206513691Y-96508953D01*
X197268552Y-91185598D02*
X200200507Y-94117553D01*
X196960250Y-91185596D02*
X197268552Y-91185598D01*
X189198691Y-84828953D02*
X189199046Y-84828953D01*
X189199046Y-84828953D02*
X195555689Y-91185596D01*
X195555689Y-91185596D02*
X196960250Y-91185596D01*
X189223691Y-88328953D02*
X192798352Y-91903614D01*
X192798352Y-91903614D02*
X196980752Y-91903614D01*
X196980752Y-91903614D02*
X201433691Y-96356553D01*
X201433691Y-96356553D02*
X201433691Y-96508953D01*
X206513691Y-73648953D02*
X206513691Y-73801353D01*
X206513691Y-73801353D02*
X204689789Y-75625255D01*
X204689789Y-75625255D02*
X200626484Y-75625255D01*
X200626484Y-75625255D02*
X197756951Y-78494788D01*
X197756951Y-78494788D02*
X190683886Y-78494788D01*
X190683886Y-78494788D02*
X188785735Y-80392939D01*
X188785735Y-80392939D02*
X188468236Y-80710438D01*
D21*
G36*
X150671691Y-94777953D02*
X150681358Y-94826554D01*
X150708888Y-94867756D01*
X150750090Y-94895286D01*
X150798691Y-94904953D01*
X158575451Y-94904953D01*
X158493105Y-95103265D01*
X158492278Y-96050485D01*
X158799691Y-96794481D01*
X158799691Y-97444953D01*
X149401691Y-97444953D01*
X149401691Y-93634953D01*
X149392024Y-93586352D01*
X149364494Y-93545150D01*
X149323292Y-93517620D01*
X149274691Y-93507953D01*
X148553150Y-93507953D01*
X148527220Y-93490627D01*
X148151808Y-93415953D01*
X147603574Y-93415953D01*
X147228162Y-93490627D01*
X147202232Y-93507953D01*
X146329691Y-93507953D01*
X146329691Y-92674560D01*
X146686789Y-92674560D01*
X146694813Y-92747413D01*
X146899939Y-93077733D01*
X147215859Y-93304410D01*
X147594476Y-93392935D01*
X147750691Y-93290619D01*
X147750691Y-92523953D01*
X148004691Y-92523953D01*
X148004691Y-93290619D01*
X148160906Y-93392935D01*
X148539523Y-93304410D01*
X148855443Y-93077733D01*
X149060569Y-92747413D01*
X149068593Y-92674560D01*
X149004289Y-92523953D01*
X148004691Y-92523953D01*
X147750691Y-92523953D01*
X146751093Y-92523953D01*
X146686789Y-92674560D01*
X146329691Y-92674560D01*
X146329691Y-92119346D01*
X146686789Y-92119346D01*
X146751093Y-92269953D01*
X147750691Y-92269953D01*
X147750691Y-91503287D01*
X148004691Y-91503287D01*
X148004691Y-92269953D01*
X149004289Y-92269953D01*
X149068593Y-92119346D01*
X149060569Y-92046493D01*
X148855443Y-91716173D01*
X148539523Y-91489496D01*
X148160906Y-91400971D01*
X148004691Y-91503287D01*
X147750691Y-91503287D01*
X147594476Y-91400971D01*
X147215859Y-91489496D01*
X146899939Y-91716173D01*
X146694813Y-92046493D01*
X146686789Y-92119346D01*
X146329691Y-92119346D01*
X146329691Y-90586953D01*
X150671691Y-90586953D01*
X150671691Y-94777953D01*
X150671691Y-94777953D01*
G37*
X150671691Y-94777953D02*
X150681358Y-94826554D01*
X150708888Y-94867756D01*
X150750090Y-94895286D01*
X150798691Y-94904953D01*
X158575451Y-94904953D01*
X158493105Y-95103265D01*
X158492278Y-96050485D01*
X158799691Y-96794481D01*
X158799691Y-97444953D01*
X149401691Y-97444953D01*
X149401691Y-93634953D01*
X149392024Y-93586352D01*
X149364494Y-93545150D01*
X149323292Y-93517620D01*
X149274691Y-93507953D01*
X148553150Y-93507953D01*
X148527220Y-93490627D01*
X148151808Y-93415953D01*
X147603574Y-93415953D01*
X147228162Y-93490627D01*
X147202232Y-93507953D01*
X146329691Y-93507953D01*
X146329691Y-92674560D01*
X146686789Y-92674560D01*
X146694813Y-92747413D01*
X146899939Y-93077733D01*
X147215859Y-93304410D01*
X147594476Y-93392935D01*
X147750691Y-93290619D01*
X147750691Y-92523953D01*
X148004691Y-92523953D01*
X148004691Y-93290619D01*
X148160906Y-93392935D01*
X148539523Y-93304410D01*
X148855443Y-93077733D01*
X149060569Y-92747413D01*
X149068593Y-92674560D01*
X149004289Y-92523953D01*
X148004691Y-92523953D01*
X147750691Y-92523953D01*
X146751093Y-92523953D01*
X146686789Y-92674560D01*
X146329691Y-92674560D01*
X146329691Y-92119346D01*
X146686789Y-92119346D01*
X146751093Y-92269953D01*
X147750691Y-92269953D01*
X147750691Y-91503287D01*
X148004691Y-91503287D01*
X148004691Y-92269953D01*
X149004289Y-92269953D01*
X149068593Y-92119346D01*
X149060569Y-92046493D01*
X148855443Y-91716173D01*
X148539523Y-91489496D01*
X148160906Y-91400971D01*
X148004691Y-91503287D01*
X147750691Y-91503287D01*
X147594476Y-91400971D01*
X147215859Y-91489496D01*
X146899939Y-91716173D01*
X146694813Y-92046493D01*
X146686789Y-92119346D01*
X146329691Y-92119346D01*
X146329691Y-90586953D01*
X150671691Y-90586953D01*
X150671691Y-94777953D01*
M02*
