G04 #@! TF.FileFunction,Legend,Top*
%FSLAX46Y46*%
G04 Gerber Fmt 4.6, Leading zero omitted, Abs format (unit mm)*
G04 Created by KiCad (PCBNEW (2016-09-14 revision 83ed3c9)-makepkg) date 10/14/16 01:05:57*
%MOMM*%
%LPD*%
G01*
G04 APERTURE LIST*
%ADD10C,0.100000*%
%ADD11C,0.300000*%
%ADD12C,0.450000*%
%ADD13C,0.150000*%
%ADD14C,0.250000*%
%ADD15C,0.200000*%
%ADD16C,0.350000*%
%ADD17C,0.600000*%
%ADD18C,0.060000*%
G04 APERTURE END LIST*
D10*
D11*
X199445119Y-94257524D02*
X199445119Y-93471810D01*
X199373691Y-93328953D01*
X199230833Y-93257524D01*
X198945119Y-93257524D01*
X198802262Y-93328953D01*
X199445119Y-94186095D02*
X199302262Y-94257524D01*
X198945119Y-94257524D01*
X198802262Y-94186095D01*
X198730833Y-94043238D01*
X198730833Y-93900381D01*
X198802262Y-93757524D01*
X198945119Y-93686095D01*
X199302262Y-93686095D01*
X199445119Y-93614667D01*
X200802262Y-94257524D02*
X200802262Y-92757524D01*
X200802262Y-94186095D02*
X200659405Y-94257524D01*
X200373691Y-94257524D01*
X200230833Y-94186095D01*
X200159405Y-94114667D01*
X200087976Y-93971810D01*
X200087976Y-93543238D01*
X200159405Y-93400381D01*
X200230833Y-93328953D01*
X200373691Y-93257524D01*
X200659405Y-93257524D01*
X200802262Y-93328953D01*
X202159405Y-94257524D02*
X202159405Y-93471810D01*
X202087976Y-93328953D01*
X201945119Y-93257524D01*
X201659405Y-93257524D01*
X201516548Y-93328953D01*
X202159405Y-94186095D02*
X202016548Y-94257524D01*
X201659405Y-94257524D01*
X201516548Y-94186095D01*
X201445119Y-94043238D01*
X201445119Y-93900381D01*
X201516548Y-93757524D01*
X201659405Y-93686095D01*
X202016548Y-93686095D01*
X202159405Y-93614667D01*
X202873691Y-94257524D02*
X202873691Y-93257524D01*
X202873691Y-93400381D02*
X202945119Y-93328953D01*
X203087976Y-93257524D01*
X203302262Y-93257524D01*
X203445119Y-93328953D01*
X203516548Y-93471810D01*
X203516548Y-94257524D01*
X203516548Y-93471810D02*
X203587976Y-93328953D01*
X203730833Y-93257524D01*
X203945119Y-93257524D01*
X204087976Y-93328953D01*
X204159405Y-93471810D01*
X204159405Y-94257524D01*
X204873691Y-93257524D02*
X204873691Y-94543238D01*
X204802262Y-94686095D01*
X204659405Y-94757524D01*
X204587976Y-94757524D01*
X204873691Y-92757524D02*
X204802262Y-92828953D01*
X204873691Y-92900381D01*
X204945119Y-92828953D01*
X204873691Y-92757524D01*
X204873691Y-92900381D01*
X205445119Y-93257524D02*
X205802262Y-94257524D01*
X206159405Y-93257524D01*
X206730833Y-94257524D02*
X206730833Y-93257524D01*
X206730833Y-93543238D02*
X206802262Y-93400381D01*
X206873691Y-93328953D01*
X207016548Y-93257524D01*
X207159405Y-93257524D01*
D12*
X168218929Y-93995619D02*
X169409405Y-93995619D01*
X167980833Y-94709905D02*
X168814167Y-92209905D01*
X169647500Y-94709905D01*
X170480833Y-94709905D02*
X170480833Y-93043238D01*
X170480833Y-93519429D02*
X170599881Y-93281333D01*
X170718929Y-93162286D01*
X170957024Y-93043238D01*
X171195119Y-93043238D01*
X172028452Y-94709905D02*
X172028452Y-93043238D01*
X172028452Y-92209905D02*
X171909405Y-92328953D01*
X172028452Y-92448000D01*
X172147500Y-92328953D01*
X172028452Y-92209905D01*
X172028452Y-92448000D01*
X174290357Y-94709905D02*
X174290357Y-93400381D01*
X174171310Y-93162286D01*
X173933214Y-93043238D01*
X173457024Y-93043238D01*
X173218929Y-93162286D01*
X174290357Y-94590857D02*
X174052262Y-94709905D01*
X173457024Y-94709905D01*
X173218929Y-94590857D01*
X173099881Y-94352762D01*
X173099881Y-94114667D01*
X173218929Y-93876572D01*
X173457024Y-93757524D01*
X174052262Y-93757524D01*
X174290357Y-93638476D01*
X177861786Y-92209905D02*
X178099881Y-92209905D01*
X178337976Y-92328953D01*
X178457024Y-92448000D01*
X178576071Y-92686095D01*
X178695119Y-93162286D01*
X178695119Y-93757524D01*
X178576071Y-94233714D01*
X178457024Y-94471810D01*
X178337976Y-94590857D01*
X178099881Y-94709905D01*
X177861786Y-94709905D01*
X177623691Y-94590857D01*
X177504643Y-94471810D01*
X177385595Y-94233714D01*
X177266548Y-93757524D01*
X177266548Y-93162286D01*
X177385595Y-92686095D01*
X177504643Y-92448000D01*
X177623691Y-92328953D01*
X177861786Y-92209905D01*
X179766548Y-94471810D02*
X179885595Y-94590857D01*
X179766548Y-94709905D01*
X179647500Y-94590857D01*
X179766548Y-94471810D01*
X179766548Y-94709905D01*
X182266548Y-94709905D02*
X180837976Y-94709905D01*
X181552262Y-94709905D02*
X181552262Y-92209905D01*
X181314167Y-92567048D01*
X181076071Y-92805143D01*
X180837976Y-92924191D01*
X184409405Y-94709905D02*
X184409405Y-93400381D01*
X184290357Y-93162286D01*
X184052262Y-93043238D01*
X183576071Y-93043238D01*
X183337976Y-93162286D01*
X184409405Y-94590857D02*
X184171310Y-94709905D01*
X183576071Y-94709905D01*
X183337976Y-94590857D01*
X183218929Y-94352762D01*
X183218929Y-94114667D01*
X183337976Y-93876572D01*
X183576071Y-93757524D01*
X184171310Y-93757524D01*
X184409405Y-93638476D01*
D10*
X211582000Y-83408520D02*
X211836000Y-83408520D01*
X211582000Y-82900520D02*
X211836000Y-82900520D01*
X215111491Y-83513053D02*
X215111491Y-83767053D01*
X215619491Y-83513053D02*
X215619491Y-83767053D01*
X216597391Y-83411453D02*
X216851391Y-83411453D01*
X216597391Y-82903453D02*
X216851391Y-82903453D01*
X203499091Y-88713553D02*
X203499091Y-88459553D01*
X202991091Y-88713553D02*
X202991091Y-88459553D01*
D13*
X167143691Y-97778953D02*
X210323691Y-97778953D01*
X210323691Y-97778953D02*
X210323691Y-95238953D01*
X210323691Y-95238953D02*
X167143691Y-95238953D01*
X164323691Y-98058953D02*
X165873691Y-98058953D01*
X167143691Y-97778953D02*
X167143691Y-95238953D01*
X165873691Y-94958953D02*
X164323691Y-94958953D01*
X164323691Y-94958953D02*
X164323691Y-98058953D01*
X164323691Y-72098953D02*
X164323691Y-75198953D01*
X165873691Y-72098953D02*
X164323691Y-72098953D01*
X167143691Y-74918953D02*
X167143691Y-72378953D01*
X164323691Y-75198953D02*
X165873691Y-75198953D01*
X210323691Y-72378953D02*
X167143691Y-72378953D01*
X210323691Y-74918953D02*
X210323691Y-72378953D01*
X167143691Y-74918953D02*
X210323691Y-74918953D01*
D14*
X156563998Y-91884610D02*
G75*
G03X156563998Y-91884610I-127000J0D01*
G01*
D13*
X155991191Y-92677453D02*
X155991191Y-91752453D01*
X155991191Y-91752453D02*
X155816191Y-91752453D01*
X155991191Y-94152453D02*
X155991191Y-93227453D01*
X155991191Y-94152453D02*
X155816191Y-94152453D01*
X152591191Y-94152453D02*
X152591191Y-93227453D01*
X152591191Y-92677453D02*
X152591191Y-91752453D01*
X152766191Y-91752453D02*
X152591191Y-91752453D01*
X152766191Y-94152453D02*
X152591191Y-94152453D01*
D15*
X159627691Y-86086453D02*
X159627691Y-85886453D01*
X161527691Y-85886453D02*
X159627691Y-85886453D01*
X161527691Y-86086453D02*
X161527691Y-85886453D01*
X159627691Y-87286453D02*
X161527691Y-87286453D01*
X159627691Y-87086453D02*
X159627691Y-87286453D01*
X161527691Y-87086453D02*
X161527691Y-87286453D01*
X159270494Y-86078453D02*
G75*
G03X159270494Y-86078453I-89803J0D01*
G01*
X151801691Y-85466953D02*
X151801691Y-86736953D01*
X152690691Y-85466953D02*
X151801691Y-85466953D01*
X154595691Y-85466953D02*
X154595691Y-86736953D01*
X153706691Y-85466953D02*
X154595691Y-85466953D01*
D16*
X151674691Y-87371953D02*
G75*
G03X151674691Y-87371953I-127000J0D01*
G01*
D15*
X159688691Y-90713953D02*
X160958691Y-90713953D01*
X159688691Y-89824953D02*
X159688691Y-90713953D01*
X159688691Y-87919953D02*
X160958691Y-87919953D01*
X159688691Y-88808953D02*
X159688691Y-87919953D01*
D16*
X161720691Y-90967953D02*
G75*
G03X161720691Y-90967953I-127000J0D01*
G01*
D15*
X196585691Y-91420953D02*
X196585691Y-92436953D01*
X195061691Y-91420953D02*
X195061691Y-92436953D01*
D13*
X196966691Y-90531953D02*
X196966691Y-89896953D01*
X196966691Y-89896953D02*
X196331691Y-89896953D01*
X194680691Y-89896953D02*
X195315691Y-89896953D01*
X194680691Y-89896953D02*
X194680691Y-90531953D01*
X194680691Y-93960953D02*
X195315691Y-93960953D01*
X194680691Y-93325953D02*
X194680691Y-93960953D01*
X196331691Y-93960953D02*
X196966691Y-93960953D01*
X196966691Y-93325953D02*
X196966691Y-93960953D01*
X150703291Y-72085353D02*
X148703291Y-72085353D01*
X148703291Y-72085353D02*
X148703291Y-73485353D01*
X148703291Y-73485353D02*
X150703291Y-73485353D01*
X150703291Y-73485353D02*
X150703291Y-72085353D01*
X150353291Y-72085353D02*
X150353291Y-73485353D01*
D10*
X150338291Y-72785353D02*
X149957291Y-73166353D01*
X149957291Y-73166353D02*
X149957291Y-72404353D01*
X149957291Y-72404353D02*
X150338291Y-72785353D01*
D14*
X151078018Y-71896353D02*
G75*
G03X151078018Y-71896353I-104727J0D01*
G01*
D13*
X155011891Y-78830553D02*
X155011891Y-78322553D01*
X151963891Y-78830553D02*
X155011891Y-78830553D01*
X155011891Y-78322553D02*
X151963891Y-78322553D01*
X151963891Y-78830553D02*
X151963891Y-78322553D01*
D16*
X151709891Y-80100553D02*
G75*
G03X151709891Y-80100553I-127000J0D01*
G01*
D15*
X194820691Y-86967953D02*
X194820691Y-85189953D01*
X196217691Y-83157953D02*
X196979691Y-83157953D01*
X196217691Y-88999953D02*
X196979691Y-88999953D01*
X198376691Y-86967953D02*
X198376691Y-85189953D01*
X163339585Y-74578953D02*
G75*
G03X163339585Y-74578953I-2465894J0D01*
G01*
X216339585Y-74578953D02*
G75*
G03X216339585Y-74578953I-2465894J0D01*
G01*
X163339585Y-95578953D02*
G75*
G03X163339585Y-95578953I-2465894J0D01*
G01*
X216339585Y-95578953D02*
G75*
G03X216339585Y-95578953I-2465894J0D01*
G01*
D13*
X189397691Y-80379953D02*
X189397691Y-89777953D01*
X179999691Y-80379953D02*
X189397691Y-80379953D01*
X179999691Y-89777953D02*
X179999691Y-80379953D01*
X189397691Y-89777953D02*
X179999691Y-89777953D01*
D17*
X188792672Y-89015953D02*
G75*
G03X188792672Y-89015953I-283981J0D01*
G01*
D11*
X190794691Y-89650953D02*
G75*
G03X190794691Y-89650953I-127000J0D01*
G01*
D13*
X207161549Y-87065953D02*
X207161549Y-86430953D01*
X206526549Y-87065953D02*
X207161549Y-87065953D01*
X201827549Y-87065953D02*
X201827549Y-86430953D01*
X202462549Y-87065953D02*
X201827549Y-87065953D01*
X201827549Y-81731953D02*
X202462549Y-81731953D01*
X201827549Y-82366953D02*
X201827549Y-81731953D01*
X207161549Y-81731953D02*
X207161549Y-82366953D01*
X206526549Y-81731953D02*
X207161549Y-81731953D01*
D11*
X207796549Y-82366953D02*
G75*
G03X207796549Y-82366953I-127000J0D01*
G01*
D10*
X155853691Y-89189953D02*
X155599691Y-89189953D01*
X155853691Y-88681953D02*
X155599691Y-88681953D01*
X163879691Y-87690953D02*
X163879691Y-87436953D01*
X164387691Y-87690953D02*
X164387691Y-87436953D01*
X165956691Y-86903953D02*
X166464691Y-86903953D01*
X165956691Y-87665953D02*
X166464691Y-87665953D01*
X190500291Y-77731353D02*
X190246291Y-77731353D01*
X190500291Y-77223353D02*
X190246291Y-77223353D01*
X194333691Y-86947953D02*
X194333691Y-87201953D01*
X193825691Y-86947953D02*
X193825691Y-87201953D01*
X188620691Y-92487953D02*
X188366691Y-92487953D01*
X188620691Y-91979953D02*
X188366691Y-91979953D01*
X178650691Y-90032953D02*
X178396691Y-90032953D01*
X178650691Y-89524953D02*
X178396691Y-89524953D01*
X193825691Y-85169953D02*
X193825691Y-84915953D01*
X194333691Y-85169953D02*
X194333691Y-84915953D01*
X190246291Y-79001353D02*
X190500291Y-79001353D01*
X190246291Y-79509353D02*
X190500291Y-79509353D01*
X191454691Y-90001953D02*
X191454691Y-90255953D01*
X190946691Y-90001953D02*
X190946691Y-90255953D01*
X187731691Y-77424953D02*
X187985691Y-77424953D01*
X187731691Y-77932953D02*
X187985691Y-77932953D01*
X179857691Y-78775953D02*
X179603691Y-78775953D01*
X179857691Y-78267953D02*
X179603691Y-78267953D01*
X192346691Y-85067953D02*
X192346691Y-84813953D01*
X192854691Y-85067953D02*
X192854691Y-84813953D01*
X193696691Y-90705953D02*
X193696691Y-90451953D01*
X194204691Y-90705953D02*
X194204691Y-90451953D01*
X194204691Y-92860953D02*
X194204691Y-93114953D01*
X193696691Y-92860953D02*
X193696691Y-93114953D01*
X181762691Y-77251953D02*
X181762691Y-76997953D01*
X182270691Y-77251953D02*
X182270691Y-76997953D01*
X180873691Y-77251953D02*
X180873691Y-76997953D01*
X181381691Y-77251953D02*
X181381691Y-76997953D01*
X153360891Y-74563353D02*
X153106891Y-74563353D01*
X153360891Y-74055353D02*
X153106891Y-74055353D01*
X200634727Y-78763006D02*
X200634727Y-78509006D01*
X201142727Y-78763006D02*
X201142727Y-78509006D01*
X201162085Y-86730306D02*
X201162085Y-86984306D01*
X200654085Y-86730306D02*
X200654085Y-86984306D01*
X204444727Y-78699506D02*
X204444727Y-78445506D01*
X204952727Y-78699506D02*
X204952727Y-78445506D01*
X205734085Y-87771306D02*
X205988085Y-87771306D01*
X205734085Y-88279306D02*
X205988085Y-88279306D01*
X207010000Y-79629000D02*
X207010000Y-79375000D01*
X207518000Y-79629000D02*
X207518000Y-79375000D01*
X206121000Y-79629000D02*
X206121000Y-79375000D01*
X206629000Y-79629000D02*
X206629000Y-79375000D01*
X210058000Y-79883000D02*
X210058000Y-79629000D01*
X210566000Y-79883000D02*
X210566000Y-79629000D01*
X208902427Y-85201906D02*
X209156427Y-85201906D01*
X208902427Y-85709906D02*
X209156427Y-85709906D01*
X208902427Y-84236706D02*
X209156427Y-84236706D01*
X208902427Y-84744706D02*
X209156427Y-84744706D01*
X208560691Y-81187953D02*
X208814691Y-81187953D01*
X208560691Y-81695953D02*
X208814691Y-81695953D01*
D18*
X190500291Y-78620353D02*
X190246291Y-78620353D01*
X190246291Y-78112353D02*
X190500291Y-78112353D01*
D10*
X153676891Y-75833353D02*
X153168891Y-75833353D01*
X153168891Y-75071353D02*
X153676891Y-75071353D01*
D13*
X150177691Y-87046953D02*
X149677691Y-87046953D01*
X149677691Y-86946953D02*
X150177691Y-86946953D01*
X149677691Y-87146953D02*
X149677691Y-86946953D01*
X150177691Y-87146953D02*
X149677691Y-87146953D01*
X146077691Y-88346953D02*
X146077691Y-88646953D01*
X145977691Y-88646953D02*
X146177691Y-88646953D01*
X145977691Y-88346953D02*
X145977691Y-88646953D01*
X146177691Y-88346953D02*
X145977691Y-88346953D01*
X148677691Y-84596953D02*
X148677691Y-84096953D01*
X147377691Y-84596953D02*
X147377691Y-84096953D01*
X148677691Y-89996953D02*
X148677691Y-89496953D01*
X147377691Y-89996953D02*
X147377691Y-89496953D01*
X146677691Y-86546953D02*
X146177691Y-86546953D01*
X146677691Y-84596953D02*
X146677691Y-86546953D01*
X150177691Y-84596953D02*
X146677691Y-84596953D01*
X150177691Y-89496953D02*
X150177691Y-84596953D01*
X146677691Y-89496953D02*
X150177691Y-89496953D01*
X146677691Y-87546953D02*
X146677691Y-89496953D01*
X146177691Y-87546953D02*
X146677691Y-87546953D01*
X150677691Y-84096953D02*
X150677691Y-89996953D01*
X146177691Y-84096953D02*
X150677691Y-84096953D01*
X146177691Y-89996953D02*
X146177691Y-84096953D01*
X150677691Y-89996953D02*
X146177691Y-89996953D01*
X150177691Y-93396953D02*
X149677691Y-93396953D01*
X149677691Y-93296953D02*
X150177691Y-93296953D01*
X149677691Y-93496953D02*
X149677691Y-93296953D01*
X150177691Y-93496953D02*
X149677691Y-93496953D01*
X150177691Y-95396953D02*
X149677691Y-95396953D01*
X149677691Y-95296953D02*
X150177691Y-95296953D01*
X149677691Y-95496953D02*
X149677691Y-95296953D01*
X150177691Y-95496953D02*
X149677691Y-95496953D01*
X146077691Y-96696953D02*
X146077691Y-96996953D01*
X145977691Y-96996953D02*
X146177691Y-96996953D01*
X145977691Y-96696953D02*
X145977691Y-96996953D01*
X146177691Y-96696953D02*
X145977691Y-96696953D01*
X148677691Y-90946953D02*
X148677691Y-90446953D01*
X147377691Y-90946953D02*
X147377691Y-90446953D01*
X148677691Y-98346953D02*
X148677691Y-97846953D01*
X147377691Y-98346953D02*
X147377691Y-97846953D01*
X146677691Y-92896953D02*
X146177691Y-92896953D01*
X146677691Y-90946953D02*
X146677691Y-92896953D01*
X150177691Y-90946953D02*
X146677691Y-90946953D01*
X150177691Y-97846953D02*
X150177691Y-90946953D01*
X146677691Y-97846953D02*
X150177691Y-97846953D01*
X146677691Y-95896953D02*
X146677691Y-97846953D01*
X146177691Y-95896953D02*
X146677691Y-95896953D01*
X150677691Y-90446953D02*
X150677691Y-98346953D01*
X146177691Y-90446953D02*
X150677691Y-90446953D01*
X146177691Y-98346953D02*
X146177691Y-90446953D01*
X150677691Y-98346953D02*
X146177691Y-98346953D01*
D16*
X159151921Y-85523127D02*
G75*
G03X159151921Y-85523127I-127016J0D01*
G01*
D13*
X162072905Y-85396127D02*
X164104905Y-85396127D01*
X160040905Y-85396127D02*
X162072905Y-85396127D01*
X160040905Y-78792127D02*
X162072905Y-78792127D01*
X162072905Y-78792127D02*
X164104905Y-78792127D01*
X164104905Y-84126127D02*
X164104905Y-83872127D01*
X164104905Y-82856127D02*
X164104905Y-82602127D01*
X164104905Y-81586127D02*
X164104905Y-81332127D01*
X164104905Y-80316127D02*
X164104905Y-80062127D01*
X160040905Y-80062127D02*
X160040905Y-80316127D01*
X160040905Y-81332127D02*
X160040905Y-81586127D01*
X160040905Y-82602127D02*
X160040905Y-82856127D01*
X160040905Y-83872127D02*
X160040905Y-84126127D01*
X150744691Y-73780553D02*
X150744691Y-75812553D01*
X148331691Y-73780553D02*
X150744691Y-73780553D01*
X150744691Y-83432553D02*
X148331691Y-83432553D01*
X150744691Y-81527553D02*
X150744691Y-83432553D01*
D15*
X151997891Y-95946053D02*
X151997891Y-94930053D01*
D10*
X153521891Y-95819053D02*
X153013891Y-95819053D01*
X153013891Y-95057053D02*
X153521891Y-95057053D01*
D15*
X151966691Y-97368453D02*
X151966691Y-96352453D01*
D10*
X153490691Y-97241453D02*
X152982691Y-97241453D01*
X152982691Y-96479453D02*
X153490691Y-96479453D01*
D15*
X175528691Y-78236953D02*
X175528691Y-77220953D01*
D10*
X177052691Y-78109953D02*
X176544691Y-78109953D01*
X176544691Y-77347953D02*
X177052691Y-77347953D01*
D15*
X204896091Y-90110153D02*
X204896091Y-91126153D01*
D10*
X203372091Y-90237153D02*
X203880091Y-90237153D01*
X203880091Y-90999153D02*
X203372091Y-90999153D01*
X155040891Y-90269453D02*
X154786891Y-90269453D01*
X155040891Y-89761453D02*
X154786891Y-89761453D01*
X153109691Y-90269453D02*
X152855691Y-90269453D01*
X153109691Y-89761453D02*
X152855691Y-89761453D01*
X155567691Y-95057053D02*
X156075691Y-95057053D01*
X155567691Y-95819053D02*
X156075691Y-95819053D01*
X155567691Y-96479453D02*
X156075691Y-96479453D01*
X155567691Y-97241453D02*
X156075691Y-97241453D01*
X158799691Y-91674453D02*
X159307691Y-91674453D01*
X158799691Y-92436453D02*
X159307691Y-92436453D01*
X161466691Y-91674453D02*
X161974691Y-91674453D01*
X161466691Y-92436453D02*
X161974691Y-92436453D01*
X186715691Y-92487953D02*
X186715691Y-92741953D01*
X186207691Y-92487953D02*
X186207691Y-92741953D01*
X192004691Y-84813953D02*
X192004691Y-85067953D01*
X191496691Y-84813953D02*
X191496691Y-85067953D01*
X177294691Y-79505953D02*
X177294691Y-79251953D01*
X177802691Y-79505953D02*
X177802691Y-79251953D01*
X156692291Y-77329553D02*
X156438291Y-77329553D01*
X156692291Y-76821553D02*
X156438291Y-76821553D01*
X156692291Y-78370953D02*
X156438291Y-78370953D01*
X156692291Y-77862953D02*
X156438291Y-77862953D01*
X156689091Y-79361553D02*
X156435091Y-79361553D01*
X156689091Y-78853553D02*
X156435091Y-78853553D01*
X183183691Y-76997953D02*
X183183691Y-77251953D01*
X182675691Y-76997953D02*
X182675691Y-77251953D01*
X166746905Y-84888127D02*
X166492905Y-84888127D01*
X166746905Y-84380127D02*
X166492905Y-84380127D01*
X152852891Y-81345553D02*
X152852891Y-81599553D01*
X152344891Y-81345553D02*
X152344891Y-81599553D01*
X166771905Y-83618127D02*
X166517905Y-83618127D01*
X166771905Y-83110127D02*
X166517905Y-83110127D01*
X166771905Y-82348127D02*
X166517905Y-82348127D01*
X166771905Y-81840127D02*
X166517905Y-81840127D01*
X166746905Y-81078127D02*
X166492905Y-81078127D01*
X166746905Y-80570127D02*
X166492905Y-80570127D01*
X166746905Y-79808127D02*
X166492905Y-79808127D01*
X166746905Y-79300127D02*
X166492905Y-79300127D01*
X209169000Y-79883000D02*
X209169000Y-79629000D01*
X209677000Y-79883000D02*
X209677000Y-79629000D01*
X201390891Y-89627553D02*
X201390891Y-89373553D01*
X201898891Y-89627553D02*
X201898891Y-89373553D01*
X208858285Y-86729906D02*
X209112285Y-86729906D01*
X208858285Y-87237906D02*
X209112285Y-87237906D01*
D13*
X194030691Y-78073953D02*
X194284691Y-78073953D01*
X194030691Y-81883953D02*
X194030691Y-78073953D01*
X194284691Y-81883953D02*
X194030691Y-81883953D01*
X196316691Y-81883953D02*
X196062691Y-81883953D01*
X196316691Y-78073953D02*
X196316691Y-81883953D01*
X196062691Y-78073953D02*
X196316691Y-78073953D01*
X196165593Y-79978953D02*
G75*
G03X196165593Y-79978953I-991902J0D01*
G01*
X213233000Y-81187953D02*
X212979000Y-81187953D01*
X213233000Y-77377953D02*
X213233000Y-81187953D01*
X212979000Y-77377953D02*
X213233000Y-77377953D01*
X210947000Y-77377953D02*
X211201000Y-77377953D01*
X210947000Y-81187953D02*
X210947000Y-77377953D01*
X211201000Y-81187953D02*
X210947000Y-81187953D01*
X213081902Y-79282953D02*
G75*
G03X213081902Y-79282953I-991902J0D01*
G01*
X213206491Y-86358853D02*
X214730491Y-86358853D01*
X213206491Y-88898853D02*
X213206491Y-86358853D01*
X216889491Y-88898853D02*
X213206491Y-88898853D01*
X217524491Y-88898853D02*
X216889491Y-88898853D01*
X217524491Y-86358853D02*
X217524491Y-88898853D01*
X216000491Y-86358853D02*
X217524491Y-86358853D01*
X216127491Y-88644853D02*
X216127491Y-86866853D01*
X214603491Y-88644853D02*
X216127491Y-88644853D01*
X214603491Y-86866853D02*
X214603491Y-88644853D01*
X214603491Y-86866853D02*
X216127491Y-86866853D01*
X215933452Y-87755853D02*
G75*
G03X215933452Y-87755853I-567961J0D01*
G01*
X163280251Y-92763733D02*
X163930491Y-92763733D01*
X163280251Y-92763733D02*
X163280251Y-90962873D01*
X167781131Y-92763733D02*
X167130891Y-92763733D01*
X167781131Y-92763733D02*
X167781131Y-90962873D01*
X167080091Y-91712173D02*
X167080091Y-90863813D01*
X167181691Y-91562313D02*
X167080091Y-91712173D01*
X167430611Y-91262593D02*
X167181691Y-91562313D01*
D16*
X168377296Y-89558253D02*
G75*
G03X168377296Y-89558253I-179605J0D01*
G01*
D10*
X208788000Y-79629000D02*
X208788000Y-79883000D01*
X208280000Y-79629000D02*
X208280000Y-79883000D01*
X211021811Y-82499971D02*
X210998001Y-82523780D01*
X210926573Y-82547590D01*
X210878954Y-82547590D01*
X210807525Y-82523780D01*
X210759906Y-82476161D01*
X210736097Y-82428542D01*
X210712287Y-82333304D01*
X210712287Y-82261876D01*
X210736097Y-82166638D01*
X210759906Y-82119019D01*
X210807525Y-82071400D01*
X210878954Y-82047590D01*
X210926573Y-82047590D01*
X210998001Y-82071400D01*
X211021811Y-82095209D01*
X211212287Y-82095209D02*
X211236097Y-82071400D01*
X211283716Y-82047590D01*
X211402763Y-82047590D01*
X211450382Y-82071400D01*
X211474192Y-82095209D01*
X211498001Y-82142828D01*
X211498001Y-82190447D01*
X211474192Y-82261876D01*
X211188478Y-82547590D01*
X211498001Y-82547590D01*
X211736097Y-82547590D02*
X211831335Y-82547590D01*
X211878954Y-82523780D01*
X211902763Y-82499971D01*
X211950382Y-82428542D01*
X211974192Y-82333304D01*
X211974192Y-82142828D01*
X211950382Y-82095209D01*
X211926573Y-82071400D01*
X211878954Y-82047590D01*
X211783716Y-82047590D01*
X211736097Y-82071400D01*
X211712287Y-82095209D01*
X211688478Y-82142828D01*
X211688478Y-82261876D01*
X211712287Y-82309495D01*
X211736097Y-82333304D01*
X211783716Y-82357114D01*
X211878954Y-82357114D01*
X211926573Y-82333304D01*
X211950382Y-82309495D01*
X211974192Y-82261876D01*
X215591681Y-82335881D02*
X215353586Y-82502548D01*
X215591681Y-82621595D02*
X215091681Y-82621595D01*
X215091681Y-82431119D01*
X215115491Y-82383500D01*
X215139300Y-82359691D01*
X215186919Y-82335881D01*
X215258348Y-82335881D01*
X215305967Y-82359691D01*
X215329776Y-82383500D01*
X215353586Y-82431119D01*
X215353586Y-82621595D01*
X215139300Y-82145405D02*
X215115491Y-82121595D01*
X215091681Y-82073976D01*
X215091681Y-81954929D01*
X215115491Y-81907310D01*
X215139300Y-81883500D01*
X215186919Y-81859691D01*
X215234538Y-81859691D01*
X215305967Y-81883500D01*
X215591681Y-82169214D01*
X215591681Y-81859691D01*
X215091681Y-81431119D02*
X215091681Y-81526357D01*
X215115491Y-81573976D01*
X215139300Y-81597786D01*
X215210729Y-81645405D01*
X215305967Y-81669214D01*
X215496443Y-81669214D01*
X215544062Y-81645405D01*
X215567871Y-81621595D01*
X215591681Y-81573976D01*
X215591681Y-81478738D01*
X215567871Y-81431119D01*
X215544062Y-81407310D01*
X215496443Y-81383500D01*
X215377395Y-81383500D01*
X215329776Y-81407310D01*
X215305967Y-81431119D01*
X215282157Y-81478738D01*
X215282157Y-81573976D01*
X215305967Y-81621595D01*
X215329776Y-81645405D01*
X215377395Y-81669214D01*
X217473581Y-82358881D02*
X217235486Y-82525548D01*
X217473581Y-82644595D02*
X216973581Y-82644595D01*
X216973581Y-82454119D01*
X216997391Y-82406500D01*
X217021200Y-82382691D01*
X217068819Y-82358881D01*
X217140248Y-82358881D01*
X217187867Y-82382691D01*
X217211676Y-82406500D01*
X217235486Y-82454119D01*
X217235486Y-82644595D01*
X217021200Y-82168405D02*
X216997391Y-82144595D01*
X216973581Y-82096976D01*
X216973581Y-81977929D01*
X216997391Y-81930310D01*
X217021200Y-81906500D01*
X217068819Y-81882691D01*
X217116438Y-81882691D01*
X217187867Y-81906500D01*
X217473581Y-82192214D01*
X217473581Y-81882691D01*
X216973581Y-81430310D02*
X216973581Y-81668405D01*
X217211676Y-81692214D01*
X217187867Y-81668405D01*
X217164057Y-81620786D01*
X217164057Y-81501738D01*
X217187867Y-81454119D01*
X217211676Y-81430310D01*
X217259295Y-81406500D01*
X217378343Y-81406500D01*
X217425962Y-81430310D01*
X217449771Y-81454119D01*
X217473581Y-81501738D01*
X217473581Y-81620786D01*
X217449771Y-81668405D01*
X217425962Y-81692214D01*
X202734681Y-89440981D02*
X202496586Y-89607648D01*
X202734681Y-89726695D02*
X202234681Y-89726695D01*
X202234681Y-89536219D01*
X202258491Y-89488600D01*
X202282300Y-89464791D01*
X202329919Y-89440981D01*
X202401348Y-89440981D01*
X202448967Y-89464791D01*
X202472776Y-89488600D01*
X202496586Y-89536219D01*
X202496586Y-89726695D01*
X202282300Y-89250505D02*
X202258491Y-89226695D01*
X202234681Y-89179076D01*
X202234681Y-89060029D01*
X202258491Y-89012410D01*
X202282300Y-88988600D01*
X202329919Y-88964791D01*
X202377538Y-88964791D01*
X202448967Y-88988600D01*
X202734681Y-89274314D01*
X202734681Y-88964791D01*
X202401348Y-88536219D02*
X202734681Y-88536219D01*
X202210871Y-88655267D02*
X202568014Y-88774314D01*
X202568014Y-88464791D01*
X165504643Y-91635143D02*
X165504643Y-91135143D01*
X165695119Y-91135143D01*
X165742738Y-91158953D01*
X165766548Y-91182762D01*
X165790357Y-91230381D01*
X165790357Y-91301810D01*
X165766548Y-91349429D01*
X165742738Y-91373238D01*
X165695119Y-91397048D01*
X165504643Y-91397048D01*
X166266548Y-91635143D02*
X165980833Y-91635143D01*
X166123691Y-91635143D02*
X166123691Y-91135143D01*
X166076071Y-91206572D01*
X166028452Y-91254191D01*
X165980833Y-91278000D01*
X164897500Y-75959905D02*
X165397500Y-75959905D01*
X165397500Y-76150381D01*
X165373691Y-76198000D01*
X165349881Y-76221810D01*
X165302262Y-76245619D01*
X165230833Y-76245619D01*
X165183214Y-76221810D01*
X165159405Y-76198000D01*
X165135595Y-76150381D01*
X165135595Y-75959905D01*
X165349881Y-76436095D02*
X165373691Y-76459905D01*
X165397500Y-76507524D01*
X165397500Y-76626572D01*
X165373691Y-76674191D01*
X165349881Y-76698000D01*
X165302262Y-76721810D01*
X165254643Y-76721810D01*
X165183214Y-76698000D01*
X164897500Y-76412286D01*
X164897500Y-76721810D01*
X151871081Y-92491905D02*
X152275843Y-92491905D01*
X152323462Y-92468095D01*
X152347271Y-92444286D01*
X152371081Y-92396667D01*
X152371081Y-92301429D01*
X152347271Y-92253810D01*
X152323462Y-92230000D01*
X152275843Y-92206191D01*
X151871081Y-92206191D01*
X152371081Y-91706191D02*
X152371081Y-91991905D01*
X152371081Y-91849048D02*
X151871081Y-91849048D01*
X151942510Y-91896667D01*
X151990129Y-91944286D01*
X152013938Y-91991905D01*
X156017643Y-86812643D02*
X156017643Y-86312643D01*
X156136691Y-86312643D01*
X156208119Y-86336453D01*
X156255738Y-86384072D01*
X156279548Y-86431691D01*
X156303357Y-86526929D01*
X156303357Y-86598357D01*
X156279548Y-86693595D01*
X156255738Y-86741214D01*
X156208119Y-86788833D01*
X156136691Y-86812643D01*
X156017643Y-86812643D01*
X156779548Y-86812643D02*
X156493833Y-86812643D01*
X156636691Y-86812643D02*
X156636691Y-86312643D01*
X156589071Y-86384072D01*
X156541452Y-86431691D01*
X156493833Y-86455500D01*
X152472500Y-84701572D02*
X152448691Y-84749191D01*
X152401071Y-84796810D01*
X152329643Y-84868238D01*
X152305833Y-84915857D01*
X152305833Y-84963476D01*
X152424881Y-84939667D02*
X152401071Y-84987286D01*
X152353452Y-85034905D01*
X152258214Y-85058714D01*
X152091548Y-85058714D01*
X151996310Y-85034905D01*
X151948691Y-84987286D01*
X151924881Y-84939667D01*
X151924881Y-84844429D01*
X151948691Y-84796810D01*
X151996310Y-84749191D01*
X152091548Y-84725381D01*
X152258214Y-84725381D01*
X152353452Y-84749191D01*
X152401071Y-84796810D01*
X152424881Y-84844429D01*
X152424881Y-84939667D01*
X152424881Y-84249191D02*
X152424881Y-84534905D01*
X152424881Y-84392048D02*
X151924881Y-84392048D01*
X151996310Y-84439667D01*
X152043929Y-84487286D01*
X152067738Y-84534905D01*
X164594071Y-89590762D02*
X164546452Y-89566953D01*
X164498833Y-89519333D01*
X164427405Y-89447905D01*
X164379786Y-89424095D01*
X164332167Y-89424095D01*
X164355976Y-89543143D02*
X164308357Y-89519333D01*
X164260738Y-89471714D01*
X164236929Y-89376476D01*
X164236929Y-89209810D01*
X164260738Y-89114572D01*
X164308357Y-89066953D01*
X164355976Y-89043143D01*
X164451214Y-89043143D01*
X164498833Y-89066953D01*
X164546452Y-89114572D01*
X164570262Y-89209810D01*
X164570262Y-89376476D01*
X164546452Y-89471714D01*
X164498833Y-89519333D01*
X164451214Y-89543143D01*
X164355976Y-89543143D01*
X164760738Y-89090762D02*
X164784548Y-89066953D01*
X164832167Y-89043143D01*
X164951214Y-89043143D01*
X164998833Y-89066953D01*
X165022643Y-89090762D01*
X165046452Y-89138381D01*
X165046452Y-89186000D01*
X165022643Y-89257429D01*
X164736929Y-89543143D01*
X165046452Y-89543143D01*
X197128881Y-90724714D02*
X197628881Y-90391381D01*
X197128881Y-90391381D02*
X197628881Y-90724714D01*
X197176500Y-90224714D02*
X197152691Y-90200905D01*
X197128881Y-90153286D01*
X197128881Y-90034238D01*
X197152691Y-89986619D01*
X197176500Y-89962810D01*
X197224119Y-89939000D01*
X197271738Y-89939000D01*
X197343167Y-89962810D01*
X197628881Y-90248524D01*
X197628881Y-89939000D01*
X147999881Y-73128800D02*
X147499881Y-73128800D01*
X147499881Y-73009753D01*
X147523691Y-72938324D01*
X147571310Y-72890705D01*
X147618929Y-72866895D01*
X147714167Y-72843086D01*
X147785595Y-72843086D01*
X147880833Y-72866895D01*
X147928452Y-72890705D01*
X147976071Y-72938324D01*
X147999881Y-73009753D01*
X147999881Y-73128800D01*
X147547500Y-72652610D02*
X147523691Y-72628800D01*
X147499881Y-72581181D01*
X147499881Y-72462133D01*
X147523691Y-72414514D01*
X147547500Y-72390705D01*
X147595119Y-72366895D01*
X147642738Y-72366895D01*
X147714167Y-72390705D01*
X147999881Y-72676419D01*
X147999881Y-72366895D01*
X155484081Y-80343086D02*
X154984081Y-80343086D01*
X154984081Y-80224038D01*
X155007891Y-80152610D01*
X155055510Y-80104991D01*
X155103129Y-80081181D01*
X155198367Y-80057372D01*
X155269795Y-80057372D01*
X155365033Y-80081181D01*
X155412652Y-80104991D01*
X155460271Y-80152610D01*
X155484081Y-80224038D01*
X155484081Y-80343086D01*
X155341224Y-79866895D02*
X155341224Y-79628800D01*
X155484081Y-79914514D02*
X154984081Y-79747848D01*
X155484081Y-79581181D01*
X155484081Y-79152610D02*
X155484081Y-79438324D01*
X155484081Y-79295467D02*
X154984081Y-79295467D01*
X155055510Y-79343086D01*
X155103129Y-79390705D01*
X155126938Y-79438324D01*
X198580881Y-83778714D02*
X199080881Y-83445381D01*
X198580881Y-83445381D02*
X199080881Y-83778714D01*
X199080881Y-82993000D02*
X199080881Y-83278714D01*
X199080881Y-83135857D02*
X198580881Y-83135857D01*
X198652310Y-83183476D01*
X198699929Y-83231095D01*
X198723738Y-83278714D01*
X155389976Y-73683619D02*
X155389976Y-73850286D01*
X155651881Y-73850286D02*
X155151881Y-73850286D01*
X155151881Y-73612191D01*
X155651881Y-73421714D02*
X155151881Y-73421714D01*
X155151881Y-73302667D01*
X155175691Y-73231238D01*
X155223310Y-73183619D01*
X155270929Y-73159810D01*
X155366167Y-73136000D01*
X155437595Y-73136000D01*
X155532833Y-73159810D01*
X155580452Y-73183619D01*
X155628071Y-73231238D01*
X155651881Y-73302667D01*
X155651881Y-73421714D01*
X155651881Y-72659810D02*
X155651881Y-72945524D01*
X155651881Y-72802667D02*
X155151881Y-72802667D01*
X155223310Y-72850286D01*
X155270929Y-72897905D01*
X155294738Y-72945524D01*
X210884776Y-75217519D02*
X210884776Y-75384186D01*
X211146681Y-75384186D02*
X210646681Y-75384186D01*
X210646681Y-75146091D01*
X211146681Y-74955614D02*
X210646681Y-74955614D01*
X210646681Y-74836567D01*
X210670491Y-74765138D01*
X210718110Y-74717519D01*
X210765729Y-74693710D01*
X210860967Y-74669900D01*
X210932395Y-74669900D01*
X211027633Y-74693710D01*
X211075252Y-74717519D01*
X211122871Y-74765138D01*
X211146681Y-74836567D01*
X211146681Y-74955614D01*
X210694300Y-74479424D02*
X210670491Y-74455614D01*
X210646681Y-74407995D01*
X210646681Y-74288948D01*
X210670491Y-74241329D01*
X210694300Y-74217519D01*
X210741919Y-74193710D01*
X210789538Y-74193710D01*
X210860967Y-74217519D01*
X211146681Y-74503233D01*
X211146681Y-74193710D01*
X211427576Y-95616219D02*
X211427576Y-95782886D01*
X211689481Y-95782886D02*
X211189481Y-95782886D01*
X211189481Y-95544791D01*
X211689481Y-95354314D02*
X211189481Y-95354314D01*
X211189481Y-95235267D01*
X211213291Y-95163838D01*
X211260910Y-95116219D01*
X211308529Y-95092410D01*
X211403767Y-95068600D01*
X211475195Y-95068600D01*
X211570433Y-95092410D01*
X211618052Y-95116219D01*
X211665671Y-95163838D01*
X211689481Y-95235267D01*
X211689481Y-95354314D01*
X211189481Y-94901933D02*
X211189481Y-94592410D01*
X211379957Y-94759076D01*
X211379957Y-94687648D01*
X211403767Y-94640029D01*
X211427576Y-94616219D01*
X211475195Y-94592410D01*
X211594243Y-94592410D01*
X211641862Y-94616219D01*
X211665671Y-94640029D01*
X211689481Y-94687648D01*
X211689481Y-94830505D01*
X211665671Y-94878124D01*
X211641862Y-94901933D01*
X163470881Y-72808305D02*
X162970881Y-72808305D01*
X163208976Y-72808305D02*
X163208976Y-72522591D01*
X163470881Y-72522591D02*
X162970881Y-72522591D01*
X163018500Y-72308305D02*
X162994691Y-72284495D01*
X162970881Y-72236876D01*
X162970881Y-72117829D01*
X162994691Y-72070210D01*
X163018500Y-72046400D01*
X163066119Y-72022591D01*
X163113738Y-72022591D01*
X163185167Y-72046400D01*
X163470881Y-72332114D01*
X163470881Y-72022591D01*
X216747381Y-73124405D02*
X216247381Y-73124405D01*
X216485476Y-73124405D02*
X216485476Y-72838691D01*
X216747381Y-72838691D02*
X216247381Y-72838691D01*
X216414048Y-72386310D02*
X216747381Y-72386310D01*
X216223571Y-72505357D02*
X216580714Y-72624405D01*
X216580714Y-72314881D01*
X163547081Y-97931105D02*
X163047081Y-97931105D01*
X163285176Y-97931105D02*
X163285176Y-97645391D01*
X163547081Y-97645391D02*
X163047081Y-97645391D01*
X163547081Y-97145391D02*
X163547081Y-97431105D01*
X163547081Y-97288248D02*
X163047081Y-97288248D01*
X163118510Y-97335867D01*
X163166129Y-97383486D01*
X163189938Y-97431105D01*
X216556881Y-98027705D02*
X216056881Y-98027705D01*
X216294976Y-98027705D02*
X216294976Y-97741991D01*
X216556881Y-97741991D02*
X216056881Y-97741991D01*
X216056881Y-97551514D02*
X216056881Y-97241991D01*
X216247357Y-97408657D01*
X216247357Y-97337229D01*
X216271167Y-97289610D01*
X216294976Y-97265800D01*
X216342595Y-97241991D01*
X216461643Y-97241991D01*
X216509262Y-97265800D01*
X216533071Y-97289610D01*
X216556881Y-97337229D01*
X216556881Y-97480086D01*
X216533071Y-97527705D01*
X216509262Y-97551514D01*
X179964881Y-90790105D02*
X180369643Y-90790105D01*
X180417262Y-90766295D01*
X180441071Y-90742486D01*
X180464881Y-90694867D01*
X180464881Y-90599629D01*
X180441071Y-90552010D01*
X180417262Y-90528200D01*
X180369643Y-90504391D01*
X179964881Y-90504391D01*
X179964881Y-90313914D02*
X179964881Y-90004391D01*
X180155357Y-90171057D01*
X180155357Y-90099629D01*
X180179167Y-90052010D01*
X180202976Y-90028200D01*
X180250595Y-90004391D01*
X180369643Y-90004391D01*
X180417262Y-90028200D01*
X180441071Y-90052010D01*
X180464881Y-90099629D01*
X180464881Y-90242486D01*
X180441071Y-90290105D01*
X180417262Y-90313914D01*
X201139881Y-82425127D02*
X201544643Y-82425127D01*
X201592262Y-82401317D01*
X201616071Y-82377508D01*
X201639881Y-82329889D01*
X201639881Y-82234651D01*
X201616071Y-82187032D01*
X201592262Y-82163222D01*
X201544643Y-82139413D01*
X201139881Y-82139413D01*
X201306548Y-81687032D02*
X201639881Y-81687032D01*
X201116071Y-81806079D02*
X201473214Y-81925127D01*
X201473214Y-81615603D01*
X155643357Y-86066524D02*
X155619548Y-86090333D01*
X155548119Y-86114143D01*
X155500500Y-86114143D01*
X155429071Y-86090333D01*
X155381452Y-86042714D01*
X155357643Y-85995095D01*
X155333833Y-85899857D01*
X155333833Y-85828429D01*
X155357643Y-85733191D01*
X155381452Y-85685572D01*
X155429071Y-85637953D01*
X155500500Y-85614143D01*
X155548119Y-85614143D01*
X155619548Y-85637953D01*
X155643357Y-85661762D01*
X156119548Y-86114143D02*
X155833833Y-86114143D01*
X155976691Y-86114143D02*
X155976691Y-85614143D01*
X155929071Y-85685572D01*
X155881452Y-85733191D01*
X155833833Y-85757000D01*
X167360262Y-87647286D02*
X167384071Y-87671095D01*
X167407881Y-87742524D01*
X167407881Y-87790143D01*
X167384071Y-87861572D01*
X167336452Y-87909191D01*
X167288833Y-87933000D01*
X167193595Y-87956810D01*
X167122167Y-87956810D01*
X167026929Y-87933000D01*
X166979310Y-87909191D01*
X166931691Y-87861572D01*
X166907881Y-87790143D01*
X166907881Y-87742524D01*
X166931691Y-87671095D01*
X166955500Y-87647286D01*
X166955500Y-87456810D02*
X166931691Y-87433000D01*
X166907881Y-87385381D01*
X166907881Y-87266333D01*
X166931691Y-87218714D01*
X166955500Y-87194905D01*
X167003119Y-87171095D01*
X167050738Y-87171095D01*
X167122167Y-87194905D01*
X167407881Y-87480619D01*
X167407881Y-87171095D01*
X162698357Y-87463524D02*
X162674548Y-87487333D01*
X162603119Y-87511143D01*
X162555500Y-87511143D01*
X162484071Y-87487333D01*
X162436452Y-87439714D01*
X162412643Y-87392095D01*
X162388833Y-87296857D01*
X162388833Y-87225429D01*
X162412643Y-87130191D01*
X162436452Y-87082572D01*
X162484071Y-87034953D01*
X162555500Y-87011143D01*
X162603119Y-87011143D01*
X162674548Y-87034953D01*
X162698357Y-87058762D01*
X162865024Y-87011143D02*
X163174548Y-87011143D01*
X163007881Y-87201619D01*
X163079310Y-87201619D01*
X163126929Y-87225429D01*
X163150738Y-87249238D01*
X163174548Y-87296857D01*
X163174548Y-87415905D01*
X163150738Y-87463524D01*
X163126929Y-87487333D01*
X163079310Y-87511143D01*
X162936452Y-87511143D01*
X162888833Y-87487333D01*
X162865024Y-87463524D01*
X191694862Y-77433686D02*
X191718671Y-77457495D01*
X191742481Y-77528924D01*
X191742481Y-77576543D01*
X191718671Y-77647972D01*
X191671052Y-77695591D01*
X191623433Y-77719400D01*
X191528195Y-77743210D01*
X191456767Y-77743210D01*
X191361529Y-77719400D01*
X191313910Y-77695591D01*
X191266291Y-77647972D01*
X191242481Y-77576543D01*
X191242481Y-77528924D01*
X191266291Y-77457495D01*
X191290100Y-77433686D01*
X191409148Y-77005114D02*
X191742481Y-77005114D01*
X191218671Y-77124162D02*
X191575814Y-77243210D01*
X191575814Y-76933686D01*
X191210262Y-87158286D02*
X191234071Y-87182095D01*
X191257881Y-87253524D01*
X191257881Y-87301143D01*
X191234071Y-87372572D01*
X191186452Y-87420191D01*
X191138833Y-87444000D01*
X191043595Y-87467810D01*
X190972167Y-87467810D01*
X190876929Y-87444000D01*
X190829310Y-87420191D01*
X190781691Y-87372572D01*
X190757881Y-87301143D01*
X190757881Y-87253524D01*
X190781691Y-87182095D01*
X190805500Y-87158286D01*
X190757881Y-86705905D02*
X190757881Y-86944000D01*
X190995976Y-86967810D01*
X190972167Y-86944000D01*
X190948357Y-86896381D01*
X190948357Y-86777333D01*
X190972167Y-86729714D01*
X190995976Y-86705905D01*
X191043595Y-86682095D01*
X191162643Y-86682095D01*
X191210262Y-86705905D01*
X191234071Y-86729714D01*
X191257881Y-86777333D01*
X191257881Y-86896381D01*
X191234071Y-86944000D01*
X191210262Y-86967810D01*
X189305862Y-91330686D02*
X189329671Y-91354495D01*
X189353481Y-91425924D01*
X189353481Y-91473543D01*
X189329671Y-91544972D01*
X189282052Y-91592591D01*
X189234433Y-91616400D01*
X189139195Y-91640210D01*
X189067767Y-91640210D01*
X188972529Y-91616400D01*
X188924910Y-91592591D01*
X188877291Y-91544972D01*
X188853481Y-91473543D01*
X188853481Y-91425924D01*
X188877291Y-91354495D01*
X188901100Y-91330686D01*
X188853481Y-90902114D02*
X188853481Y-90997353D01*
X188877291Y-91044972D01*
X188901100Y-91068781D01*
X188972529Y-91116400D01*
X189067767Y-91140210D01*
X189258243Y-91140210D01*
X189305862Y-91116400D01*
X189329671Y-91092591D01*
X189353481Y-91044972D01*
X189353481Y-90949733D01*
X189329671Y-90902114D01*
X189305862Y-90878305D01*
X189258243Y-90854495D01*
X189139195Y-90854495D01*
X189091576Y-90878305D01*
X189067767Y-90902114D01*
X189043957Y-90949733D01*
X189043957Y-91044972D01*
X189067767Y-91092591D01*
X189091576Y-91116400D01*
X189139195Y-91140210D01*
X177502262Y-89887286D02*
X177526071Y-89911095D01*
X177549881Y-89982524D01*
X177549881Y-90030143D01*
X177526071Y-90101572D01*
X177478452Y-90149191D01*
X177430833Y-90173000D01*
X177335595Y-90196810D01*
X177264167Y-90196810D01*
X177168929Y-90173000D01*
X177121310Y-90149191D01*
X177073691Y-90101572D01*
X177049881Y-90030143D01*
X177049881Y-89982524D01*
X177073691Y-89911095D01*
X177097500Y-89887286D01*
X177049881Y-89720619D02*
X177049881Y-89387286D01*
X177549881Y-89601572D01*
X193527262Y-84612286D02*
X193551071Y-84636095D01*
X193574881Y-84707524D01*
X193574881Y-84755143D01*
X193551071Y-84826572D01*
X193503452Y-84874191D01*
X193455833Y-84898000D01*
X193360595Y-84921810D01*
X193289167Y-84921810D01*
X193193929Y-84898000D01*
X193146310Y-84874191D01*
X193098691Y-84826572D01*
X193074881Y-84755143D01*
X193074881Y-84707524D01*
X193098691Y-84636095D01*
X193122500Y-84612286D01*
X193289167Y-84326572D02*
X193265357Y-84374191D01*
X193241548Y-84398000D01*
X193193929Y-84421810D01*
X193170119Y-84421810D01*
X193122500Y-84398000D01*
X193098691Y-84374191D01*
X193074881Y-84326572D01*
X193074881Y-84231333D01*
X193098691Y-84183714D01*
X193122500Y-84159905D01*
X193170119Y-84136095D01*
X193193929Y-84136095D01*
X193241548Y-84159905D01*
X193265357Y-84183714D01*
X193289167Y-84231333D01*
X193289167Y-84326572D01*
X193312976Y-84374191D01*
X193336786Y-84398000D01*
X193384405Y-84421810D01*
X193479643Y-84421810D01*
X193527262Y-84398000D01*
X193551071Y-84374191D01*
X193574881Y-84326572D01*
X193574881Y-84231333D01*
X193551071Y-84183714D01*
X193527262Y-84159905D01*
X193479643Y-84136095D01*
X193384405Y-84136095D01*
X193336786Y-84159905D01*
X193312976Y-84183714D01*
X193289167Y-84231333D01*
X190289957Y-82481924D02*
X190266148Y-82505733D01*
X190194719Y-82529543D01*
X190147100Y-82529543D01*
X190075671Y-82505733D01*
X190028052Y-82458114D01*
X190004243Y-82410495D01*
X189980433Y-82315257D01*
X189980433Y-82243829D01*
X190004243Y-82148591D01*
X190028052Y-82100972D01*
X190075671Y-82053353D01*
X190147100Y-82029543D01*
X190194719Y-82029543D01*
X190266148Y-82053353D01*
X190289957Y-82077162D01*
X190528052Y-82529543D02*
X190623291Y-82529543D01*
X190670910Y-82505733D01*
X190694719Y-82481924D01*
X190742338Y-82410495D01*
X190766148Y-82315257D01*
X190766148Y-82124781D01*
X190742338Y-82077162D01*
X190718529Y-82053353D01*
X190670910Y-82029543D01*
X190575671Y-82029543D01*
X190528052Y-82053353D01*
X190504243Y-82077162D01*
X190480433Y-82124781D01*
X190480433Y-82243829D01*
X190504243Y-82291448D01*
X190528052Y-82315257D01*
X190575671Y-82339067D01*
X190670910Y-82339067D01*
X190718529Y-82315257D01*
X190742338Y-82291448D01*
X190766148Y-82243829D01*
X191404262Y-92075381D02*
X191428071Y-92099191D01*
X191451881Y-92170619D01*
X191451881Y-92218238D01*
X191428071Y-92289667D01*
X191380452Y-92337286D01*
X191332833Y-92361095D01*
X191237595Y-92384905D01*
X191166167Y-92384905D01*
X191070929Y-92361095D01*
X191023310Y-92337286D01*
X190975691Y-92289667D01*
X190951881Y-92218238D01*
X190951881Y-92170619D01*
X190975691Y-92099191D01*
X190999500Y-92075381D01*
X191451881Y-91599191D02*
X191451881Y-91884905D01*
X191451881Y-91742048D02*
X190951881Y-91742048D01*
X191023310Y-91789667D01*
X191070929Y-91837286D01*
X191094738Y-91884905D01*
X190951881Y-91289667D02*
X190951881Y-91242048D01*
X190975691Y-91194429D01*
X190999500Y-91170619D01*
X191047119Y-91146810D01*
X191142357Y-91123000D01*
X191261405Y-91123000D01*
X191356643Y-91146810D01*
X191404262Y-91170619D01*
X191428071Y-91194429D01*
X191451881Y-91242048D01*
X191451881Y-91289667D01*
X191428071Y-91337286D01*
X191404262Y-91361095D01*
X191356643Y-91384905D01*
X191261405Y-91408714D01*
X191142357Y-91408714D01*
X191047119Y-91384905D01*
X190999500Y-91361095D01*
X190975691Y-91337286D01*
X190951881Y-91289667D01*
X186307119Y-77303524D02*
X186283310Y-77279714D01*
X186259500Y-77208286D01*
X186259500Y-77160667D01*
X186283310Y-77089238D01*
X186330929Y-77041619D01*
X186378548Y-77017810D01*
X186473786Y-76994000D01*
X186545214Y-76994000D01*
X186640452Y-77017810D01*
X186688071Y-77041619D01*
X186735691Y-77089238D01*
X186759500Y-77160667D01*
X186759500Y-77208286D01*
X186735691Y-77279714D01*
X186711881Y-77303524D01*
X186259500Y-77779714D02*
X186259500Y-77494000D01*
X186259500Y-77636857D02*
X186759500Y-77636857D01*
X186688071Y-77589238D01*
X186640452Y-77541619D01*
X186616643Y-77494000D01*
X186259500Y-78255905D02*
X186259500Y-77970191D01*
X186259500Y-78113048D02*
X186759500Y-78113048D01*
X186688071Y-78065429D01*
X186640452Y-78017810D01*
X186616643Y-77970191D01*
X179052262Y-79900381D02*
X179076071Y-79924191D01*
X179099881Y-79995619D01*
X179099881Y-80043238D01*
X179076071Y-80114667D01*
X179028452Y-80162286D01*
X178980833Y-80186095D01*
X178885595Y-80209905D01*
X178814167Y-80209905D01*
X178718929Y-80186095D01*
X178671310Y-80162286D01*
X178623691Y-80114667D01*
X178599881Y-80043238D01*
X178599881Y-79995619D01*
X178623691Y-79924191D01*
X178647500Y-79900381D01*
X179099881Y-79424191D02*
X179099881Y-79709905D01*
X179099881Y-79567048D02*
X178599881Y-79567048D01*
X178671310Y-79614667D01*
X178718929Y-79662286D01*
X178742738Y-79709905D01*
X178647500Y-79233714D02*
X178623691Y-79209905D01*
X178599881Y-79162286D01*
X178599881Y-79043238D01*
X178623691Y-78995619D01*
X178647500Y-78971810D01*
X178695119Y-78948000D01*
X178742738Y-78948000D01*
X178814167Y-78971810D01*
X179099881Y-79257524D01*
X179099881Y-78948000D01*
X192595262Y-87014381D02*
X192619071Y-87038191D01*
X192642881Y-87109619D01*
X192642881Y-87157238D01*
X192619071Y-87228667D01*
X192571452Y-87276286D01*
X192523833Y-87300095D01*
X192428595Y-87323905D01*
X192357167Y-87323905D01*
X192261929Y-87300095D01*
X192214310Y-87276286D01*
X192166691Y-87228667D01*
X192142881Y-87157238D01*
X192142881Y-87109619D01*
X192166691Y-87038191D01*
X192190500Y-87014381D01*
X192642881Y-86538191D02*
X192642881Y-86823905D01*
X192642881Y-86681048D02*
X192142881Y-86681048D01*
X192214310Y-86728667D01*
X192261929Y-86776286D01*
X192285738Y-86823905D01*
X192142881Y-86371524D02*
X192142881Y-86062000D01*
X192333357Y-86228667D01*
X192333357Y-86157238D01*
X192357167Y-86109619D01*
X192380976Y-86085810D01*
X192428595Y-86062000D01*
X192547643Y-86062000D01*
X192595262Y-86085810D01*
X192619071Y-86109619D01*
X192642881Y-86157238D01*
X192642881Y-86300095D01*
X192619071Y-86347714D01*
X192595262Y-86371524D01*
X193367262Y-90654381D02*
X193391071Y-90678191D01*
X193414881Y-90749619D01*
X193414881Y-90797238D01*
X193391071Y-90868667D01*
X193343452Y-90916286D01*
X193295833Y-90940095D01*
X193200595Y-90963905D01*
X193129167Y-90963905D01*
X193033929Y-90940095D01*
X192986310Y-90916286D01*
X192938691Y-90868667D01*
X192914881Y-90797238D01*
X192914881Y-90749619D01*
X192938691Y-90678191D01*
X192962500Y-90654381D01*
X193414881Y-90178191D02*
X193414881Y-90463905D01*
X193414881Y-90321048D02*
X192914881Y-90321048D01*
X192986310Y-90368667D01*
X193033929Y-90416286D01*
X193057738Y-90463905D01*
X193081548Y-89749619D02*
X193414881Y-89749619D01*
X192891071Y-89868667D02*
X193248214Y-89987714D01*
X193248214Y-89678191D01*
X193429262Y-92600381D02*
X193453071Y-92624191D01*
X193476881Y-92695619D01*
X193476881Y-92743238D01*
X193453071Y-92814667D01*
X193405452Y-92862286D01*
X193357833Y-92886095D01*
X193262595Y-92909905D01*
X193191167Y-92909905D01*
X193095929Y-92886095D01*
X193048310Y-92862286D01*
X193000691Y-92814667D01*
X192976881Y-92743238D01*
X192976881Y-92695619D01*
X193000691Y-92624191D01*
X193024500Y-92600381D01*
X193476881Y-92124191D02*
X193476881Y-92409905D01*
X193476881Y-92267048D02*
X192976881Y-92267048D01*
X193048310Y-92314667D01*
X193095929Y-92362286D01*
X193119738Y-92409905D01*
X192976881Y-91671810D02*
X192976881Y-91909905D01*
X193214976Y-91933714D01*
X193191167Y-91909905D01*
X193167357Y-91862286D01*
X193167357Y-91743238D01*
X193191167Y-91695619D01*
X193214976Y-91671810D01*
X193262595Y-91648000D01*
X193381643Y-91648000D01*
X193429262Y-91671810D01*
X193453071Y-91695619D01*
X193476881Y-91743238D01*
X193476881Y-91862286D01*
X193453071Y-91909905D01*
X193429262Y-91933714D01*
X181802262Y-75922381D02*
X181826071Y-75946191D01*
X181849881Y-76017619D01*
X181849881Y-76065238D01*
X181826071Y-76136667D01*
X181778452Y-76184286D01*
X181730833Y-76208095D01*
X181635595Y-76231905D01*
X181564167Y-76231905D01*
X181468929Y-76208095D01*
X181421310Y-76184286D01*
X181373691Y-76136667D01*
X181349881Y-76065238D01*
X181349881Y-76017619D01*
X181373691Y-75946191D01*
X181397500Y-75922381D01*
X181849881Y-75446191D02*
X181849881Y-75731905D01*
X181849881Y-75589048D02*
X181349881Y-75589048D01*
X181421310Y-75636667D01*
X181468929Y-75684286D01*
X181492738Y-75731905D01*
X181349881Y-75017619D02*
X181349881Y-75112857D01*
X181373691Y-75160476D01*
X181397500Y-75184286D01*
X181468929Y-75231905D01*
X181564167Y-75255714D01*
X181754643Y-75255714D01*
X181802262Y-75231905D01*
X181826071Y-75208095D01*
X181849881Y-75160476D01*
X181849881Y-75065238D01*
X181826071Y-75017619D01*
X181802262Y-74993810D01*
X181754643Y-74970000D01*
X181635595Y-74970000D01*
X181587976Y-74993810D01*
X181564167Y-75017619D01*
X181540357Y-75065238D01*
X181540357Y-75160476D01*
X181564167Y-75208095D01*
X181587976Y-75231905D01*
X181635595Y-75255714D01*
X180695262Y-75922381D02*
X180719071Y-75946191D01*
X180742881Y-76017619D01*
X180742881Y-76065238D01*
X180719071Y-76136667D01*
X180671452Y-76184286D01*
X180623833Y-76208095D01*
X180528595Y-76231905D01*
X180457167Y-76231905D01*
X180361929Y-76208095D01*
X180314310Y-76184286D01*
X180266691Y-76136667D01*
X180242881Y-76065238D01*
X180242881Y-76017619D01*
X180266691Y-75946191D01*
X180290500Y-75922381D01*
X180742881Y-75446191D02*
X180742881Y-75731905D01*
X180742881Y-75589048D02*
X180242881Y-75589048D01*
X180314310Y-75636667D01*
X180361929Y-75684286D01*
X180385738Y-75731905D01*
X180242881Y-75279524D02*
X180242881Y-74946191D01*
X180742881Y-75160476D01*
X154636462Y-74281181D02*
X154660271Y-74304991D01*
X154684081Y-74376419D01*
X154684081Y-74424038D01*
X154660271Y-74495467D01*
X154612652Y-74543086D01*
X154565033Y-74566895D01*
X154469795Y-74590705D01*
X154398367Y-74590705D01*
X154303129Y-74566895D01*
X154255510Y-74543086D01*
X154207891Y-74495467D01*
X154184081Y-74424038D01*
X154184081Y-74376419D01*
X154207891Y-74304991D01*
X154231700Y-74281181D01*
X154684081Y-73804991D02*
X154684081Y-74090705D01*
X154684081Y-73947848D02*
X154184081Y-73947848D01*
X154255510Y-73995467D01*
X154303129Y-74043086D01*
X154326938Y-74090705D01*
X154398367Y-73519276D02*
X154374557Y-73566895D01*
X154350748Y-73590705D01*
X154303129Y-73614514D01*
X154279319Y-73614514D01*
X154231700Y-73590705D01*
X154207891Y-73566895D01*
X154184081Y-73519276D01*
X154184081Y-73424038D01*
X154207891Y-73376419D01*
X154231700Y-73352610D01*
X154279319Y-73328800D01*
X154303129Y-73328800D01*
X154350748Y-73352610D01*
X154374557Y-73376419D01*
X154398367Y-73424038D01*
X154398367Y-73519276D01*
X154422176Y-73566895D01*
X154445986Y-73590705D01*
X154493605Y-73614514D01*
X154588843Y-73614514D01*
X154636462Y-73590705D01*
X154660271Y-73566895D01*
X154684081Y-73519276D01*
X154684081Y-73424038D01*
X154660271Y-73376419D01*
X154636462Y-73352610D01*
X154588843Y-73328800D01*
X154493605Y-73328800D01*
X154445986Y-73352610D01*
X154422176Y-73376419D01*
X154398367Y-73424038D01*
X200357262Y-79139381D02*
X200381071Y-79163191D01*
X200404881Y-79234619D01*
X200404881Y-79282238D01*
X200381071Y-79353667D01*
X200333452Y-79401286D01*
X200285833Y-79425095D01*
X200190595Y-79448905D01*
X200119167Y-79448905D01*
X200023929Y-79425095D01*
X199976310Y-79401286D01*
X199928691Y-79353667D01*
X199904881Y-79282238D01*
X199904881Y-79234619D01*
X199928691Y-79163191D01*
X199952500Y-79139381D01*
X200404881Y-78663191D02*
X200404881Y-78948905D01*
X200404881Y-78806048D02*
X199904881Y-78806048D01*
X199976310Y-78853667D01*
X200023929Y-78901286D01*
X200047738Y-78948905D01*
X200404881Y-78425095D02*
X200404881Y-78329857D01*
X200381071Y-78282238D01*
X200357262Y-78258429D01*
X200285833Y-78210810D01*
X200190595Y-78187000D01*
X200000119Y-78187000D01*
X199952500Y-78210810D01*
X199928691Y-78234619D01*
X199904881Y-78282238D01*
X199904881Y-78377476D01*
X199928691Y-78425095D01*
X199952500Y-78448905D01*
X200000119Y-78472714D01*
X200119167Y-78472714D01*
X200166786Y-78448905D01*
X200190595Y-78425095D01*
X200214405Y-78377476D01*
X200214405Y-78282238D01*
X200190595Y-78234619D01*
X200166786Y-78210810D01*
X200119167Y-78187000D01*
X200398120Y-87720381D02*
X200421929Y-87744191D01*
X200445739Y-87815619D01*
X200445739Y-87863238D01*
X200421929Y-87934667D01*
X200374310Y-87982286D01*
X200326691Y-88006095D01*
X200231453Y-88029905D01*
X200160025Y-88029905D01*
X200064787Y-88006095D01*
X200017168Y-87982286D01*
X199969549Y-87934667D01*
X199945739Y-87863238D01*
X199945739Y-87815619D01*
X199969549Y-87744191D01*
X199993358Y-87720381D01*
X199993358Y-87529905D02*
X199969549Y-87506095D01*
X199945739Y-87458476D01*
X199945739Y-87339429D01*
X199969549Y-87291810D01*
X199993358Y-87268000D01*
X200040977Y-87244191D01*
X200088596Y-87244191D01*
X200160025Y-87268000D01*
X200445739Y-87553714D01*
X200445739Y-87244191D01*
X199945739Y-86934667D02*
X199945739Y-86887048D01*
X199969549Y-86839429D01*
X199993358Y-86815619D01*
X200040977Y-86791810D01*
X200136215Y-86768000D01*
X200255263Y-86768000D01*
X200350501Y-86791810D01*
X200398120Y-86815619D01*
X200421929Y-86839429D01*
X200445739Y-86887048D01*
X200445739Y-86934667D01*
X200421929Y-86982286D01*
X200398120Y-87006095D01*
X200350501Y-87029905D01*
X200255263Y-87053714D01*
X200136215Y-87053714D01*
X200040977Y-87029905D01*
X199993358Y-87006095D01*
X199969549Y-86982286D01*
X199945739Y-86934667D01*
X204588262Y-77289381D02*
X204612071Y-77313191D01*
X204635881Y-77384619D01*
X204635881Y-77432238D01*
X204612071Y-77503667D01*
X204564452Y-77551286D01*
X204516833Y-77575095D01*
X204421595Y-77598905D01*
X204350167Y-77598905D01*
X204254929Y-77575095D01*
X204207310Y-77551286D01*
X204159691Y-77503667D01*
X204135881Y-77432238D01*
X204135881Y-77384619D01*
X204159691Y-77313191D01*
X204183500Y-77289381D01*
X204183500Y-77098905D02*
X204159691Y-77075095D01*
X204135881Y-77027476D01*
X204135881Y-76908429D01*
X204159691Y-76860810D01*
X204183500Y-76837000D01*
X204231119Y-76813191D01*
X204278738Y-76813191D01*
X204350167Y-76837000D01*
X204635881Y-77122714D01*
X204635881Y-76813191D01*
X204635881Y-76337000D02*
X204635881Y-76622714D01*
X204635881Y-76479857D02*
X204135881Y-76479857D01*
X204207310Y-76527476D01*
X204254929Y-76575095D01*
X204278738Y-76622714D01*
X204488713Y-87830877D02*
X204464904Y-87807067D01*
X204441094Y-87735639D01*
X204441094Y-87688020D01*
X204464904Y-87616591D01*
X204512523Y-87568972D01*
X204560142Y-87545163D01*
X204655380Y-87521353D01*
X204726808Y-87521353D01*
X204822046Y-87545163D01*
X204869665Y-87568972D01*
X204917285Y-87616591D01*
X204941094Y-87688020D01*
X204941094Y-87735639D01*
X204917285Y-87807067D01*
X204893475Y-87830877D01*
X204893475Y-88021353D02*
X204917285Y-88045163D01*
X204941094Y-88092782D01*
X204941094Y-88211829D01*
X204917285Y-88259448D01*
X204893475Y-88283258D01*
X204845856Y-88307067D01*
X204798237Y-88307067D01*
X204726808Y-88283258D01*
X204441094Y-87997544D01*
X204441094Y-88307067D01*
X204893475Y-88497544D02*
X204917285Y-88521353D01*
X204941094Y-88568972D01*
X204941094Y-88688020D01*
X204917285Y-88735639D01*
X204893475Y-88759448D01*
X204845856Y-88783258D01*
X204798237Y-88783258D01*
X204726808Y-88759448D01*
X204441094Y-88473734D01*
X204441094Y-88783258D01*
X207445635Y-77695875D02*
X207469444Y-77719685D01*
X207493254Y-77791113D01*
X207493254Y-77838732D01*
X207469444Y-77910161D01*
X207421825Y-77957780D01*
X207374206Y-77981589D01*
X207278968Y-78005399D01*
X207207540Y-78005399D01*
X207112302Y-77981589D01*
X207064683Y-77957780D01*
X207017064Y-77910161D01*
X206993254Y-77838732D01*
X206993254Y-77791113D01*
X207017064Y-77719685D01*
X207040873Y-77695875D01*
X207040873Y-77505399D02*
X207017064Y-77481589D01*
X206993254Y-77433970D01*
X206993254Y-77314923D01*
X207017064Y-77267304D01*
X207040873Y-77243494D01*
X207088492Y-77219685D01*
X207136111Y-77219685D01*
X207207540Y-77243494D01*
X207493254Y-77529208D01*
X207493254Y-77219685D01*
X206993254Y-77053018D02*
X206993254Y-76743494D01*
X207183730Y-76910161D01*
X207183730Y-76838732D01*
X207207540Y-76791113D01*
X207231349Y-76767304D01*
X207278968Y-76743494D01*
X207398016Y-76743494D01*
X207445635Y-76767304D01*
X207469444Y-76791113D01*
X207493254Y-76838732D01*
X207493254Y-76981589D01*
X207469444Y-77029208D01*
X207445635Y-77053018D01*
X206553571Y-77568875D02*
X206577380Y-77592685D01*
X206601190Y-77664113D01*
X206601190Y-77711732D01*
X206577380Y-77783161D01*
X206529761Y-77830780D01*
X206482142Y-77854589D01*
X206386904Y-77878399D01*
X206315476Y-77878399D01*
X206220238Y-77854589D01*
X206172619Y-77830780D01*
X206125000Y-77783161D01*
X206101190Y-77711732D01*
X206101190Y-77664113D01*
X206125000Y-77592685D01*
X206148809Y-77568875D01*
X206148809Y-77378399D02*
X206125000Y-77354589D01*
X206101190Y-77306970D01*
X206101190Y-77187923D01*
X206125000Y-77140304D01*
X206148809Y-77116494D01*
X206196428Y-77092685D01*
X206244047Y-77092685D01*
X206315476Y-77116494D01*
X206601190Y-77402208D01*
X206601190Y-77092685D01*
X206267857Y-76664113D02*
X206601190Y-76664113D01*
X206077380Y-76783161D02*
X206434523Y-76902208D01*
X206434523Y-76592685D01*
X210633335Y-78458628D02*
X210657144Y-78482438D01*
X210680954Y-78553866D01*
X210680954Y-78601485D01*
X210657144Y-78672914D01*
X210609525Y-78720533D01*
X210561906Y-78744342D01*
X210466668Y-78768152D01*
X210395240Y-78768152D01*
X210300002Y-78744342D01*
X210252383Y-78720533D01*
X210204764Y-78672914D01*
X210180954Y-78601485D01*
X210180954Y-78553866D01*
X210204764Y-78482438D01*
X210228573Y-78458628D01*
X210228573Y-78268152D02*
X210204764Y-78244342D01*
X210180954Y-78196723D01*
X210180954Y-78077676D01*
X210204764Y-78030057D01*
X210228573Y-78006247D01*
X210276192Y-77982438D01*
X210323811Y-77982438D01*
X210395240Y-78006247D01*
X210680954Y-78291961D01*
X210680954Y-77982438D01*
X210180954Y-77530057D02*
X210180954Y-77768152D01*
X210419049Y-77791961D01*
X210395240Y-77768152D01*
X210371430Y-77720533D01*
X210371430Y-77601485D01*
X210395240Y-77553866D01*
X210419049Y-77530057D01*
X210466668Y-77506247D01*
X210585716Y-77506247D01*
X210633335Y-77530057D01*
X210657144Y-77553866D01*
X210680954Y-77601485D01*
X210680954Y-77720533D01*
X210657144Y-77768152D01*
X210633335Y-77791961D01*
X210120855Y-85377524D02*
X210097046Y-85353714D01*
X210073236Y-85282286D01*
X210073236Y-85234667D01*
X210097046Y-85163238D01*
X210144665Y-85115619D01*
X210192284Y-85091810D01*
X210287522Y-85068000D01*
X210358950Y-85068000D01*
X210454188Y-85091810D01*
X210501807Y-85115619D01*
X210549427Y-85163238D01*
X210573236Y-85234667D01*
X210573236Y-85282286D01*
X210549427Y-85353714D01*
X210525617Y-85377524D01*
X210525617Y-85568000D02*
X210549427Y-85591810D01*
X210573236Y-85639429D01*
X210573236Y-85758476D01*
X210549427Y-85806095D01*
X210525617Y-85829905D01*
X210477998Y-85853714D01*
X210430379Y-85853714D01*
X210358950Y-85829905D01*
X210073236Y-85544191D01*
X210073236Y-85853714D01*
X210573236Y-86282286D02*
X210573236Y-86187048D01*
X210549427Y-86139429D01*
X210525617Y-86115619D01*
X210454188Y-86068000D01*
X210358950Y-86044191D01*
X210168474Y-86044191D01*
X210120855Y-86068000D01*
X210097046Y-86091810D01*
X210073236Y-86139429D01*
X210073236Y-86234667D01*
X210097046Y-86282286D01*
X210120855Y-86306095D01*
X210168474Y-86329905D01*
X210287522Y-86329905D01*
X210335141Y-86306095D01*
X210358950Y-86282286D01*
X210382760Y-86234667D01*
X210382760Y-86139429D01*
X210358950Y-86091810D01*
X210335141Y-86068000D01*
X210287522Y-86044191D01*
X207620119Y-83914524D02*
X207596310Y-83890714D01*
X207572500Y-83819286D01*
X207572500Y-83771667D01*
X207596310Y-83700238D01*
X207643929Y-83652619D01*
X207691548Y-83628810D01*
X207786786Y-83605000D01*
X207858214Y-83605000D01*
X207953452Y-83628810D01*
X208001071Y-83652619D01*
X208048691Y-83700238D01*
X208072500Y-83771667D01*
X208072500Y-83819286D01*
X208048691Y-83890714D01*
X208024881Y-83914524D01*
X208024881Y-84105000D02*
X208048691Y-84128810D01*
X208072500Y-84176429D01*
X208072500Y-84295476D01*
X208048691Y-84343095D01*
X208024881Y-84366905D01*
X207977262Y-84390714D01*
X207929643Y-84390714D01*
X207858214Y-84366905D01*
X207572500Y-84081191D01*
X207572500Y-84390714D01*
X208072500Y-84557381D02*
X208072500Y-84890714D01*
X207572500Y-84676429D01*
X209144119Y-82263524D02*
X209120310Y-82239714D01*
X209096500Y-82168286D01*
X209096500Y-82120667D01*
X209120310Y-82049238D01*
X209167929Y-82001619D01*
X209215548Y-81977810D01*
X209310786Y-81954000D01*
X209382214Y-81954000D01*
X209477452Y-81977810D01*
X209525071Y-82001619D01*
X209572691Y-82049238D01*
X209596500Y-82120667D01*
X209596500Y-82168286D01*
X209572691Y-82239714D01*
X209548881Y-82263524D01*
X209548881Y-82454000D02*
X209572691Y-82477810D01*
X209596500Y-82525429D01*
X209596500Y-82644476D01*
X209572691Y-82692095D01*
X209548881Y-82715905D01*
X209501262Y-82739714D01*
X209453643Y-82739714D01*
X209382214Y-82715905D01*
X209096500Y-82430191D01*
X209096500Y-82739714D01*
X209382214Y-83025429D02*
X209406024Y-82977810D01*
X209429833Y-82954000D01*
X209477452Y-82930191D01*
X209501262Y-82930191D01*
X209548881Y-82954000D01*
X209572691Y-82977810D01*
X209596500Y-83025429D01*
X209596500Y-83120667D01*
X209572691Y-83168286D01*
X209548881Y-83192095D01*
X209501262Y-83215905D01*
X209477452Y-83215905D01*
X209429833Y-83192095D01*
X209406024Y-83168286D01*
X209382214Y-83120667D01*
X209382214Y-83025429D01*
X209358405Y-82977810D01*
X209334595Y-82954000D01*
X209286976Y-82930191D01*
X209191738Y-82930191D01*
X209144119Y-82954000D01*
X209120310Y-82977810D01*
X209096500Y-83025429D01*
X209096500Y-83120667D01*
X209120310Y-83168286D01*
X209144119Y-83192095D01*
X209191738Y-83215905D01*
X209286976Y-83215905D01*
X209334595Y-83192095D01*
X209358405Y-83168286D01*
X209382214Y-83120667D01*
X189067576Y-78783019D02*
X189067576Y-78949686D01*
X189329481Y-78949686D02*
X188829481Y-78949686D01*
X188829481Y-78711591D01*
X189067576Y-78354448D02*
X189091386Y-78283019D01*
X189115195Y-78259210D01*
X189162814Y-78235400D01*
X189234243Y-78235400D01*
X189281862Y-78259210D01*
X189305671Y-78283019D01*
X189329481Y-78330638D01*
X189329481Y-78521114D01*
X188829481Y-78521114D01*
X188829481Y-78354448D01*
X188853291Y-78306829D01*
X188877100Y-78283019D01*
X188924719Y-78259210D01*
X188972338Y-78259210D01*
X189019957Y-78283019D01*
X189043767Y-78306829D01*
X189067576Y-78354448D01*
X189067576Y-78521114D01*
X189329481Y-77759210D02*
X189329481Y-78044924D01*
X189329481Y-77902067D02*
X188829481Y-77902067D01*
X188900910Y-77949686D01*
X188948529Y-77997305D01*
X188972338Y-78044924D01*
X154922176Y-76076419D02*
X154922176Y-76243086D01*
X155184081Y-76243086D02*
X154684081Y-76243086D01*
X154684081Y-76004991D01*
X154922176Y-75647848D02*
X154945986Y-75576419D01*
X154969795Y-75552610D01*
X155017414Y-75528800D01*
X155088843Y-75528800D01*
X155136462Y-75552610D01*
X155160271Y-75576419D01*
X155184081Y-75624038D01*
X155184081Y-75814514D01*
X154684081Y-75814514D01*
X154684081Y-75647848D01*
X154707891Y-75600229D01*
X154731700Y-75576419D01*
X154779319Y-75552610D01*
X154826938Y-75552610D01*
X154874557Y-75576419D01*
X154898367Y-75600229D01*
X154922176Y-75647848D01*
X154922176Y-75814514D01*
X154731700Y-75338324D02*
X154707891Y-75314514D01*
X154684081Y-75266895D01*
X154684081Y-75147848D01*
X154707891Y-75100229D01*
X154731700Y-75076419D01*
X154779319Y-75052610D01*
X154826938Y-75052610D01*
X154898367Y-75076419D01*
X155184081Y-75362133D01*
X155184081Y-75052610D01*
X150895881Y-89688619D02*
X151253024Y-89688619D01*
X151324452Y-89712429D01*
X151372071Y-89760048D01*
X151395881Y-89831476D01*
X151395881Y-89879095D01*
X151395881Y-89188619D02*
X151395881Y-89474333D01*
X151395881Y-89331476D02*
X150895881Y-89331476D01*
X150967310Y-89379095D01*
X151014929Y-89426714D01*
X151038738Y-89474333D01*
X150871681Y-98194019D02*
X151228824Y-98194019D01*
X151300252Y-98217829D01*
X151347871Y-98265448D01*
X151371681Y-98336876D01*
X151371681Y-98384495D01*
X150919300Y-97979733D02*
X150895491Y-97955924D01*
X150871681Y-97908305D01*
X150871681Y-97789257D01*
X150895491Y-97741638D01*
X150919300Y-97717829D01*
X150966919Y-97694019D01*
X151014538Y-97694019D01*
X151085967Y-97717829D01*
X151371681Y-98003543D01*
X151371681Y-97694019D01*
X164402881Y-85844219D02*
X164760024Y-85844219D01*
X164831452Y-85868029D01*
X164879071Y-85915648D01*
X164902881Y-85987076D01*
X164902881Y-86034695D01*
X164402881Y-85653743D02*
X164402881Y-85344219D01*
X164593357Y-85510886D01*
X164593357Y-85439457D01*
X164617167Y-85391838D01*
X164640976Y-85368029D01*
X164688595Y-85344219D01*
X164807643Y-85344219D01*
X164855262Y-85368029D01*
X164879071Y-85391838D01*
X164902881Y-85439457D01*
X164902881Y-85582314D01*
X164879071Y-85629933D01*
X164855262Y-85653743D01*
X150974881Y-83076619D02*
X151332024Y-83076619D01*
X151403452Y-83100429D01*
X151451071Y-83148048D01*
X151474881Y-83219476D01*
X151474881Y-83267095D01*
X151141548Y-82624238D02*
X151474881Y-82624238D01*
X150951071Y-82743286D02*
X151308214Y-82862333D01*
X151308214Y-82552810D01*
X156391367Y-95664243D02*
X156153271Y-95664243D01*
X156153271Y-95164243D01*
X156558033Y-95402338D02*
X156724700Y-95402338D01*
X156796129Y-95664243D02*
X156558033Y-95664243D01*
X156558033Y-95164243D01*
X156796129Y-95164243D01*
X157010414Y-95664243D02*
X157010414Y-95164243D01*
X157129462Y-95164243D01*
X157200891Y-95188053D01*
X157248510Y-95235672D01*
X157272319Y-95283291D01*
X157296129Y-95378529D01*
X157296129Y-95449957D01*
X157272319Y-95545195D01*
X157248510Y-95592814D01*
X157200891Y-95640433D01*
X157129462Y-95664243D01*
X157010414Y-95664243D01*
X157772319Y-95664243D02*
X157486605Y-95664243D01*
X157629462Y-95664243D02*
X157629462Y-95164243D01*
X157581843Y-95235672D01*
X157534224Y-95283291D01*
X157486605Y-95307100D01*
X156360167Y-97086643D02*
X156122071Y-97086643D01*
X156122071Y-96586643D01*
X156526833Y-96824738D02*
X156693500Y-96824738D01*
X156764929Y-97086643D02*
X156526833Y-97086643D01*
X156526833Y-96586643D01*
X156764929Y-96586643D01*
X156979214Y-97086643D02*
X156979214Y-96586643D01*
X157098262Y-96586643D01*
X157169691Y-96610453D01*
X157217310Y-96658072D01*
X157241119Y-96705691D01*
X157264929Y-96800929D01*
X157264929Y-96872357D01*
X157241119Y-96967595D01*
X157217310Y-97015214D01*
X157169691Y-97062833D01*
X157098262Y-97086643D01*
X156979214Y-97086643D01*
X157455405Y-96634262D02*
X157479214Y-96610453D01*
X157526833Y-96586643D01*
X157645881Y-96586643D01*
X157693500Y-96610453D01*
X157717310Y-96634262D01*
X157741119Y-96681881D01*
X157741119Y-96729500D01*
X157717310Y-96800929D01*
X157431595Y-97086643D01*
X157741119Y-97086643D01*
X175274881Y-78573476D02*
X175274881Y-78811572D01*
X174774881Y-78811572D01*
X175012976Y-78406810D02*
X175012976Y-78240143D01*
X175274881Y-78168714D02*
X175274881Y-78406810D01*
X174774881Y-78406810D01*
X174774881Y-78168714D01*
X175274881Y-77954429D02*
X174774881Y-77954429D01*
X174774881Y-77835381D01*
X174798691Y-77763953D01*
X174846310Y-77716333D01*
X174893929Y-77692524D01*
X174989167Y-77668714D01*
X175060595Y-77668714D01*
X175155833Y-77692524D01*
X175203452Y-77716333D01*
X175251071Y-77763953D01*
X175274881Y-77835381D01*
X175274881Y-77954429D01*
X174774881Y-77502048D02*
X174774881Y-77192524D01*
X174965357Y-77359191D01*
X174965357Y-77287762D01*
X174989167Y-77240143D01*
X175012976Y-77216333D01*
X175060595Y-77192524D01*
X175179643Y-77192524D01*
X175227262Y-77216333D01*
X175251071Y-77240143D01*
X175274881Y-77287762D01*
X175274881Y-77430619D01*
X175251071Y-77478238D01*
X175227262Y-77502048D01*
X205152500Y-89855429D02*
X205152500Y-89617333D01*
X205652500Y-89617333D01*
X205414405Y-90022095D02*
X205414405Y-90188762D01*
X205152500Y-90260191D02*
X205152500Y-90022095D01*
X205652500Y-90022095D01*
X205652500Y-90260191D01*
X205152500Y-90474476D02*
X205652500Y-90474476D01*
X205652500Y-90593524D01*
X205628691Y-90664953D01*
X205581071Y-90712572D01*
X205533452Y-90736381D01*
X205438214Y-90760191D01*
X205366786Y-90760191D01*
X205271548Y-90736381D01*
X205223929Y-90712572D01*
X205176310Y-90664953D01*
X205152500Y-90593524D01*
X205152500Y-90474476D01*
X205485833Y-91188762D02*
X205152500Y-91188762D01*
X205676310Y-91069714D02*
X205319167Y-90950667D01*
X205319167Y-91260191D01*
X158132557Y-90241643D02*
X157965891Y-90003548D01*
X157846843Y-90241643D02*
X157846843Y-89741643D01*
X158037319Y-89741643D01*
X158084938Y-89765453D01*
X158108748Y-89789262D01*
X158132557Y-89836881D01*
X158132557Y-89908310D01*
X158108748Y-89955929D01*
X158084938Y-89979738D01*
X158037319Y-90003548D01*
X157846843Y-90003548D01*
X158608748Y-90241643D02*
X158323033Y-90241643D01*
X158465891Y-90241643D02*
X158465891Y-89741643D01*
X158418271Y-89813072D01*
X158370652Y-89860691D01*
X158323033Y-89884500D01*
X156201357Y-90241643D02*
X156034691Y-90003548D01*
X155915643Y-90241643D02*
X155915643Y-89741643D01*
X156106119Y-89741643D01*
X156153738Y-89765453D01*
X156177548Y-89789262D01*
X156201357Y-89836881D01*
X156201357Y-89908310D01*
X156177548Y-89955929D01*
X156153738Y-89979738D01*
X156106119Y-90003548D01*
X155915643Y-90003548D01*
X156391833Y-89789262D02*
X156415643Y-89765453D01*
X156463262Y-89741643D01*
X156582310Y-89741643D01*
X156629929Y-89765453D01*
X156653738Y-89789262D01*
X156677548Y-89836881D01*
X156677548Y-89884500D01*
X156653738Y-89955929D01*
X156368024Y-90241643D01*
X156677548Y-90241643D01*
X152182357Y-95664243D02*
X152015691Y-95426148D01*
X151896643Y-95664243D02*
X151896643Y-95164243D01*
X152087119Y-95164243D01*
X152134738Y-95188053D01*
X152158548Y-95211862D01*
X152182357Y-95259481D01*
X152182357Y-95330910D01*
X152158548Y-95378529D01*
X152134738Y-95402338D01*
X152087119Y-95426148D01*
X151896643Y-95426148D01*
X152349024Y-95164243D02*
X152658548Y-95164243D01*
X152491881Y-95354719D01*
X152563310Y-95354719D01*
X152610929Y-95378529D01*
X152634738Y-95402338D01*
X152658548Y-95449957D01*
X152658548Y-95569005D01*
X152634738Y-95616624D01*
X152610929Y-95640433D01*
X152563310Y-95664243D01*
X152420452Y-95664243D01*
X152372833Y-95640433D01*
X152349024Y-95616624D01*
X152182357Y-97086643D02*
X152015691Y-96848548D01*
X151896643Y-97086643D02*
X151896643Y-96586643D01*
X152087119Y-96586643D01*
X152134738Y-96610453D01*
X152158548Y-96634262D01*
X152182357Y-96681881D01*
X152182357Y-96753310D01*
X152158548Y-96800929D01*
X152134738Y-96824738D01*
X152087119Y-96848548D01*
X151896643Y-96848548D01*
X152610929Y-96753310D02*
X152610929Y-97086643D01*
X152491881Y-96562833D02*
X152372833Y-96919976D01*
X152682357Y-96919976D01*
X158147500Y-93195619D02*
X158385595Y-93028953D01*
X158147500Y-92909905D02*
X158647500Y-92909905D01*
X158647500Y-93100381D01*
X158623691Y-93148000D01*
X158599881Y-93171810D01*
X158552262Y-93195619D01*
X158480833Y-93195619D01*
X158433214Y-93171810D01*
X158409405Y-93148000D01*
X158385595Y-93100381D01*
X158385595Y-92909905D01*
X158647500Y-93648000D02*
X158647500Y-93409905D01*
X158409405Y-93386095D01*
X158433214Y-93409905D01*
X158457024Y-93457524D01*
X158457024Y-93576572D01*
X158433214Y-93624191D01*
X158409405Y-93648000D01*
X158361786Y-93671810D01*
X158242738Y-93671810D01*
X158195119Y-93648000D01*
X158171310Y-93624191D01*
X158147500Y-93576572D01*
X158147500Y-93457524D01*
X158171310Y-93409905D01*
X158195119Y-93386095D01*
X162247500Y-93095619D02*
X162485595Y-92928953D01*
X162247500Y-92809905D02*
X162747500Y-92809905D01*
X162747500Y-93000381D01*
X162723691Y-93048000D01*
X162699881Y-93071810D01*
X162652262Y-93095619D01*
X162580833Y-93095619D01*
X162533214Y-93071810D01*
X162509405Y-93048000D01*
X162485595Y-93000381D01*
X162485595Y-92809905D01*
X162747500Y-93524191D02*
X162747500Y-93428953D01*
X162723691Y-93381333D01*
X162699881Y-93357524D01*
X162628452Y-93309905D01*
X162533214Y-93286095D01*
X162342738Y-93286095D01*
X162295119Y-93309905D01*
X162271310Y-93333714D01*
X162247500Y-93381333D01*
X162247500Y-93476572D01*
X162271310Y-93524191D01*
X162295119Y-93548000D01*
X162342738Y-93571810D01*
X162461786Y-93571810D01*
X162509405Y-93548000D01*
X162533214Y-93524191D01*
X162557024Y-93476572D01*
X162557024Y-93381333D01*
X162533214Y-93333714D01*
X162509405Y-93309905D01*
X162461786Y-93286095D01*
X185849881Y-92162286D02*
X185611786Y-92328953D01*
X185849881Y-92448000D02*
X185349881Y-92448000D01*
X185349881Y-92257524D01*
X185373691Y-92209905D01*
X185397500Y-92186095D01*
X185445119Y-92162286D01*
X185516548Y-92162286D01*
X185564167Y-92186095D01*
X185587976Y-92209905D01*
X185611786Y-92257524D01*
X185611786Y-92448000D01*
X185349881Y-91995619D02*
X185349881Y-91662286D01*
X185849881Y-91876572D01*
X191931881Y-86526286D02*
X191693786Y-86692953D01*
X191931881Y-86812000D02*
X191431881Y-86812000D01*
X191431881Y-86621524D01*
X191455691Y-86573905D01*
X191479500Y-86550095D01*
X191527119Y-86526286D01*
X191598548Y-86526286D01*
X191646167Y-86550095D01*
X191669976Y-86573905D01*
X191693786Y-86621524D01*
X191693786Y-86812000D01*
X191646167Y-86240572D02*
X191622357Y-86288191D01*
X191598548Y-86312000D01*
X191550929Y-86335810D01*
X191527119Y-86335810D01*
X191479500Y-86312000D01*
X191455691Y-86288191D01*
X191431881Y-86240572D01*
X191431881Y-86145333D01*
X191455691Y-86097714D01*
X191479500Y-86073905D01*
X191527119Y-86050095D01*
X191550929Y-86050095D01*
X191598548Y-86073905D01*
X191622357Y-86097714D01*
X191646167Y-86145333D01*
X191646167Y-86240572D01*
X191669976Y-86288191D01*
X191693786Y-86312000D01*
X191741405Y-86335810D01*
X191836643Y-86335810D01*
X191884262Y-86312000D01*
X191908071Y-86288191D01*
X191931881Y-86240572D01*
X191931881Y-86145333D01*
X191908071Y-86097714D01*
X191884262Y-86073905D01*
X191836643Y-86050095D01*
X191741405Y-86050095D01*
X191693786Y-86073905D01*
X191669976Y-86097714D01*
X191646167Y-86145333D01*
X177465357Y-80856343D02*
X177298691Y-80618248D01*
X177179643Y-80856343D02*
X177179643Y-80356343D01*
X177370119Y-80356343D01*
X177417738Y-80380153D01*
X177441548Y-80403962D01*
X177465357Y-80451581D01*
X177465357Y-80523010D01*
X177441548Y-80570629D01*
X177417738Y-80594438D01*
X177370119Y-80618248D01*
X177179643Y-80618248D01*
X177703452Y-80856343D02*
X177798691Y-80856343D01*
X177846310Y-80832533D01*
X177870119Y-80808724D01*
X177917738Y-80737295D01*
X177941548Y-80642057D01*
X177941548Y-80451581D01*
X177917738Y-80403962D01*
X177893929Y-80380153D01*
X177846310Y-80356343D01*
X177751071Y-80356343D01*
X177703452Y-80380153D01*
X177679643Y-80403962D01*
X177655833Y-80451581D01*
X177655833Y-80570629D01*
X177679643Y-80618248D01*
X177703452Y-80642057D01*
X177751071Y-80665867D01*
X177846310Y-80665867D01*
X177893929Y-80642057D01*
X177917738Y-80618248D01*
X177941548Y-80570629D01*
X157844062Y-77301743D02*
X157677395Y-77063648D01*
X157558348Y-77301743D02*
X157558348Y-76801743D01*
X157748824Y-76801743D01*
X157796443Y-76825553D01*
X157820252Y-76849362D01*
X157844062Y-76896981D01*
X157844062Y-76968410D01*
X157820252Y-77016029D01*
X157796443Y-77039838D01*
X157748824Y-77063648D01*
X157558348Y-77063648D01*
X158320252Y-77301743D02*
X158034538Y-77301743D01*
X158177395Y-77301743D02*
X158177395Y-76801743D01*
X158129776Y-76873172D01*
X158082157Y-76920791D01*
X158034538Y-76944600D01*
X158629776Y-76801743D02*
X158677395Y-76801743D01*
X158725014Y-76825553D01*
X158748824Y-76849362D01*
X158772633Y-76896981D01*
X158796443Y-76992219D01*
X158796443Y-77111267D01*
X158772633Y-77206505D01*
X158748824Y-77254124D01*
X158725014Y-77277933D01*
X158677395Y-77301743D01*
X158629776Y-77301743D01*
X158582157Y-77277933D01*
X158558348Y-77254124D01*
X158534538Y-77206505D01*
X158510729Y-77111267D01*
X158510729Y-76992219D01*
X158534538Y-76896981D01*
X158558348Y-76849362D01*
X158582157Y-76825553D01*
X158629776Y-76801743D01*
X157827262Y-78155143D02*
X157660595Y-77917048D01*
X157541548Y-78155143D02*
X157541548Y-77655143D01*
X157732024Y-77655143D01*
X157779643Y-77678953D01*
X157803452Y-77702762D01*
X157827262Y-77750381D01*
X157827262Y-77821810D01*
X157803452Y-77869429D01*
X157779643Y-77893238D01*
X157732024Y-77917048D01*
X157541548Y-77917048D01*
X158303452Y-78155143D02*
X158017738Y-78155143D01*
X158160595Y-78155143D02*
X158160595Y-77655143D01*
X158112976Y-77726572D01*
X158065357Y-77774191D01*
X158017738Y-77798000D01*
X158779643Y-78155143D02*
X158493929Y-78155143D01*
X158636786Y-78155143D02*
X158636786Y-77655143D01*
X158589167Y-77726572D01*
X158541548Y-77774191D01*
X158493929Y-77798000D01*
X157852262Y-78980143D02*
X157685595Y-78742048D01*
X157566548Y-78980143D02*
X157566548Y-78480143D01*
X157757024Y-78480143D01*
X157804643Y-78503953D01*
X157828452Y-78527762D01*
X157852262Y-78575381D01*
X157852262Y-78646810D01*
X157828452Y-78694429D01*
X157804643Y-78718238D01*
X157757024Y-78742048D01*
X157566548Y-78742048D01*
X158328452Y-78980143D02*
X158042738Y-78980143D01*
X158185595Y-78980143D02*
X158185595Y-78480143D01*
X158137976Y-78551572D01*
X158090357Y-78599191D01*
X158042738Y-78623000D01*
X158518929Y-78527762D02*
X158542738Y-78503953D01*
X158590357Y-78480143D01*
X158709405Y-78480143D01*
X158757024Y-78503953D01*
X158780833Y-78527762D01*
X158804643Y-78575381D01*
X158804643Y-78623000D01*
X158780833Y-78694429D01*
X158495119Y-78980143D01*
X158804643Y-78980143D01*
X182798881Y-75922381D02*
X182560786Y-76089048D01*
X182798881Y-76208095D02*
X182298881Y-76208095D01*
X182298881Y-76017619D01*
X182322691Y-75970000D01*
X182346500Y-75946191D01*
X182394119Y-75922381D01*
X182465548Y-75922381D01*
X182513167Y-75946191D01*
X182536976Y-75970000D01*
X182560786Y-76017619D01*
X182560786Y-76208095D01*
X182798881Y-75446191D02*
X182798881Y-75731905D01*
X182798881Y-75589048D02*
X182298881Y-75589048D01*
X182370310Y-75636667D01*
X182417929Y-75684286D01*
X182441738Y-75731905D01*
X182298881Y-75279524D02*
X182298881Y-74970000D01*
X182489357Y-75136667D01*
X182489357Y-75065238D01*
X182513167Y-75017619D01*
X182536976Y-74993810D01*
X182584595Y-74970000D01*
X182703643Y-74970000D01*
X182751262Y-74993810D01*
X182775071Y-75017619D01*
X182798881Y-75065238D01*
X182798881Y-75208095D01*
X182775071Y-75255714D01*
X182751262Y-75279524D01*
X168032662Y-84226143D02*
X167865995Y-83988048D01*
X167746948Y-84226143D02*
X167746948Y-83726143D01*
X167937424Y-83726143D01*
X167985043Y-83749953D01*
X168008852Y-83773762D01*
X168032662Y-83821381D01*
X168032662Y-83892810D01*
X168008852Y-83940429D01*
X167985043Y-83964238D01*
X167937424Y-83988048D01*
X167746948Y-83988048D01*
X168508852Y-84226143D02*
X168223138Y-84226143D01*
X168365995Y-84226143D02*
X168365995Y-83726143D01*
X168318376Y-83797572D01*
X168270757Y-83845191D01*
X168223138Y-83869000D01*
X168937424Y-83892810D02*
X168937424Y-84226143D01*
X168818376Y-83702333D02*
X168699329Y-84059476D01*
X169008852Y-84059476D01*
X152584081Y-83481181D02*
X152345986Y-83647848D01*
X152584081Y-83766895D02*
X152084081Y-83766895D01*
X152084081Y-83576419D01*
X152107891Y-83528800D01*
X152131700Y-83504991D01*
X152179319Y-83481181D01*
X152250748Y-83481181D01*
X152298367Y-83504991D01*
X152322176Y-83528800D01*
X152345986Y-83576419D01*
X152345986Y-83766895D01*
X152584081Y-83004991D02*
X152584081Y-83290705D01*
X152584081Y-83147848D02*
X152084081Y-83147848D01*
X152155510Y-83195467D01*
X152203129Y-83243086D01*
X152226938Y-83290705D01*
X152084081Y-82552610D02*
X152084081Y-82790705D01*
X152322176Y-82814514D01*
X152298367Y-82790705D01*
X152274557Y-82743086D01*
X152274557Y-82624038D01*
X152298367Y-82576419D01*
X152322176Y-82552610D01*
X152369795Y-82528800D01*
X152488843Y-82528800D01*
X152536462Y-82552610D01*
X152560271Y-82576419D01*
X152584081Y-82624038D01*
X152584081Y-82743086D01*
X152560271Y-82790705D01*
X152536462Y-82814514D01*
X168013662Y-82956143D02*
X167846995Y-82718048D01*
X167727948Y-82956143D02*
X167727948Y-82456143D01*
X167918424Y-82456143D01*
X167966043Y-82479953D01*
X167989852Y-82503762D01*
X168013662Y-82551381D01*
X168013662Y-82622810D01*
X167989852Y-82670429D01*
X167966043Y-82694238D01*
X167918424Y-82718048D01*
X167727948Y-82718048D01*
X168489852Y-82956143D02*
X168204138Y-82956143D01*
X168346995Y-82956143D02*
X168346995Y-82456143D01*
X168299376Y-82527572D01*
X168251757Y-82575191D01*
X168204138Y-82599000D01*
X168918424Y-82456143D02*
X168823186Y-82456143D01*
X168775567Y-82479953D01*
X168751757Y-82503762D01*
X168704138Y-82575191D01*
X168680329Y-82670429D01*
X168680329Y-82860905D01*
X168704138Y-82908524D01*
X168727948Y-82932333D01*
X168775567Y-82956143D01*
X168870805Y-82956143D01*
X168918424Y-82932333D01*
X168942233Y-82908524D01*
X168966043Y-82860905D01*
X168966043Y-82741857D01*
X168942233Y-82694238D01*
X168918424Y-82670429D01*
X168870805Y-82646619D01*
X168775567Y-82646619D01*
X168727948Y-82670429D01*
X168704138Y-82694238D01*
X168680329Y-82741857D01*
X168032662Y-81686143D02*
X167865995Y-81448048D01*
X167746948Y-81686143D02*
X167746948Y-81186143D01*
X167937424Y-81186143D01*
X167985043Y-81209953D01*
X168008852Y-81233762D01*
X168032662Y-81281381D01*
X168032662Y-81352810D01*
X168008852Y-81400429D01*
X167985043Y-81424238D01*
X167937424Y-81448048D01*
X167746948Y-81448048D01*
X168508852Y-81686143D02*
X168223138Y-81686143D01*
X168365995Y-81686143D02*
X168365995Y-81186143D01*
X168318376Y-81257572D01*
X168270757Y-81305191D01*
X168223138Y-81329000D01*
X168675519Y-81186143D02*
X169008852Y-81186143D01*
X168794567Y-81686143D01*
X168013662Y-80416143D02*
X167846995Y-80178048D01*
X167727948Y-80416143D02*
X167727948Y-79916143D01*
X167918424Y-79916143D01*
X167966043Y-79939953D01*
X167989852Y-79963762D01*
X168013662Y-80011381D01*
X168013662Y-80082810D01*
X167989852Y-80130429D01*
X167966043Y-80154238D01*
X167918424Y-80178048D01*
X167727948Y-80178048D01*
X168489852Y-80416143D02*
X168204138Y-80416143D01*
X168346995Y-80416143D02*
X168346995Y-79916143D01*
X168299376Y-79987572D01*
X168251757Y-80035191D01*
X168204138Y-80059000D01*
X168775567Y-80130429D02*
X168727948Y-80106619D01*
X168704138Y-80082810D01*
X168680329Y-80035191D01*
X168680329Y-80011381D01*
X168704138Y-79963762D01*
X168727948Y-79939953D01*
X168775567Y-79916143D01*
X168870805Y-79916143D01*
X168918424Y-79939953D01*
X168942233Y-79963762D01*
X168966043Y-80011381D01*
X168966043Y-80035191D01*
X168942233Y-80082810D01*
X168918424Y-80106619D01*
X168870805Y-80130429D01*
X168775567Y-80130429D01*
X168727948Y-80154238D01*
X168704138Y-80178048D01*
X168680329Y-80225667D01*
X168680329Y-80320905D01*
X168704138Y-80368524D01*
X168727948Y-80392333D01*
X168775567Y-80416143D01*
X168870805Y-80416143D01*
X168918424Y-80392333D01*
X168942233Y-80368524D01*
X168966043Y-80320905D01*
X168966043Y-80225667D01*
X168942233Y-80178048D01*
X168918424Y-80154238D01*
X168870805Y-80130429D01*
X168013662Y-79060143D02*
X167846995Y-78822048D01*
X167727948Y-79060143D02*
X167727948Y-78560143D01*
X167918424Y-78560143D01*
X167966043Y-78583953D01*
X167989852Y-78607762D01*
X168013662Y-78655381D01*
X168013662Y-78726810D01*
X167989852Y-78774429D01*
X167966043Y-78798238D01*
X167918424Y-78822048D01*
X167727948Y-78822048D01*
X168489852Y-79060143D02*
X168204138Y-79060143D01*
X168346995Y-79060143D02*
X168346995Y-78560143D01*
X168299376Y-78631572D01*
X168251757Y-78679191D01*
X168204138Y-78703000D01*
X168727948Y-79060143D02*
X168823186Y-79060143D01*
X168870805Y-79036333D01*
X168894614Y-79012524D01*
X168942233Y-78941095D01*
X168966043Y-78845857D01*
X168966043Y-78655381D01*
X168942233Y-78607762D01*
X168918424Y-78583953D01*
X168870805Y-78560143D01*
X168775567Y-78560143D01*
X168727948Y-78583953D01*
X168704138Y-78607762D01*
X168680329Y-78655381D01*
X168680329Y-78774429D01*
X168704138Y-78822048D01*
X168727948Y-78845857D01*
X168775567Y-78869667D01*
X168870805Y-78869667D01*
X168918424Y-78845857D01*
X168942233Y-78822048D01*
X168966043Y-78774429D01*
X209741154Y-78172428D02*
X209503059Y-78339095D01*
X209741154Y-78458142D02*
X209241154Y-78458142D01*
X209241154Y-78267666D01*
X209264964Y-78220047D01*
X209288773Y-78196238D01*
X209336392Y-78172428D01*
X209407821Y-78172428D01*
X209455440Y-78196238D01*
X209479249Y-78220047D01*
X209503059Y-78267666D01*
X209503059Y-78458142D01*
X209288773Y-77981952D02*
X209264964Y-77958142D01*
X209241154Y-77910523D01*
X209241154Y-77791476D01*
X209264964Y-77743857D01*
X209288773Y-77720047D01*
X209336392Y-77696238D01*
X209384011Y-77696238D01*
X209455440Y-77720047D01*
X209741154Y-78005761D01*
X209741154Y-77696238D01*
X209241154Y-77386714D02*
X209241154Y-77339095D01*
X209264964Y-77291476D01*
X209288773Y-77267666D01*
X209336392Y-77243857D01*
X209431630Y-77220047D01*
X209550678Y-77220047D01*
X209645916Y-77243857D01*
X209693535Y-77267666D01*
X209717344Y-77291476D01*
X209741154Y-77339095D01*
X209741154Y-77386714D01*
X209717344Y-77434333D01*
X209693535Y-77458142D01*
X209645916Y-77481952D01*
X209550678Y-77505761D01*
X209431630Y-77505761D01*
X209336392Y-77481952D01*
X209288773Y-77458142D01*
X209264964Y-77434333D01*
X209241154Y-77386714D01*
X200631300Y-89305724D02*
X200869395Y-89139057D01*
X200631300Y-89020010D02*
X201131300Y-89020010D01*
X201131300Y-89210486D01*
X201107491Y-89258105D01*
X201083681Y-89281914D01*
X201036062Y-89305724D01*
X200964633Y-89305724D01*
X200917014Y-89281914D01*
X200893205Y-89258105D01*
X200869395Y-89210486D01*
X200869395Y-89020010D01*
X201083681Y-89496200D02*
X201107491Y-89520010D01*
X201131300Y-89567629D01*
X201131300Y-89686676D01*
X201107491Y-89734295D01*
X201083681Y-89758105D01*
X201036062Y-89781914D01*
X200988443Y-89781914D01*
X200917014Y-89758105D01*
X200631300Y-89472391D01*
X200631300Y-89781914D01*
X200631300Y-90258105D02*
X200631300Y-89972391D01*
X200631300Y-90115248D02*
X201131300Y-90115248D01*
X201059871Y-90067629D01*
X201012252Y-90020010D01*
X200988443Y-89972391D01*
X205361856Y-87210096D02*
X205195189Y-86972001D01*
X205076142Y-87210096D02*
X205076142Y-86710096D01*
X205266618Y-86710096D01*
X205314237Y-86733906D01*
X205338046Y-86757715D01*
X205361856Y-86805334D01*
X205361856Y-86876763D01*
X205338046Y-86924382D01*
X205314237Y-86948191D01*
X205266618Y-86972001D01*
X205076142Y-86972001D01*
X205552332Y-86757715D02*
X205576142Y-86733906D01*
X205623761Y-86710096D01*
X205742808Y-86710096D01*
X205790427Y-86733906D01*
X205814237Y-86757715D01*
X205838046Y-86805334D01*
X205838046Y-86852953D01*
X205814237Y-86924382D01*
X205528523Y-87210096D01*
X205838046Y-87210096D01*
X206028523Y-86757715D02*
X206052332Y-86733906D01*
X206099951Y-86710096D01*
X206218999Y-86710096D01*
X206266618Y-86733906D01*
X206290427Y-86757715D01*
X206314237Y-86805334D01*
X206314237Y-86852953D01*
X206290427Y-86924382D01*
X206004713Y-87210096D01*
X206314237Y-87210096D01*
X193471310Y-78062286D02*
X193447500Y-78133714D01*
X193447500Y-78252762D01*
X193471310Y-78300381D01*
X193495119Y-78324191D01*
X193542738Y-78348000D01*
X193590357Y-78348000D01*
X193637976Y-78324191D01*
X193661786Y-78300381D01*
X193685595Y-78252762D01*
X193709405Y-78157524D01*
X193733214Y-78109905D01*
X193757024Y-78086095D01*
X193804643Y-78062286D01*
X193852262Y-78062286D01*
X193899881Y-78086095D01*
X193923691Y-78109905D01*
X193947500Y-78157524D01*
X193947500Y-78276572D01*
X193923691Y-78348000D01*
X193947500Y-78514667D02*
X193447500Y-78633714D01*
X193804643Y-78728953D01*
X193447500Y-78824191D01*
X193947500Y-78943238D01*
X193447500Y-79395619D02*
X193447500Y-79109905D01*
X193447500Y-79252762D02*
X193947500Y-79252762D01*
X193876071Y-79205143D01*
X193828452Y-79157524D01*
X193804643Y-79109905D01*
X213928280Y-81157119D02*
X213952090Y-81085691D01*
X213952090Y-80966643D01*
X213928280Y-80919024D01*
X213904471Y-80895214D01*
X213856852Y-80871405D01*
X213809233Y-80871405D01*
X213761614Y-80895214D01*
X213737804Y-80919024D01*
X213713995Y-80966643D01*
X213690185Y-81061881D01*
X213666376Y-81109500D01*
X213642566Y-81133310D01*
X213594947Y-81157119D01*
X213547328Y-81157119D01*
X213499709Y-81133310D01*
X213475900Y-81109500D01*
X213452090Y-81061881D01*
X213452090Y-80942833D01*
X213475900Y-80871405D01*
X213452090Y-80704738D02*
X213952090Y-80585691D01*
X213594947Y-80490453D01*
X213952090Y-80395214D01*
X213452090Y-80276167D01*
X213499709Y-80109500D02*
X213475900Y-80085691D01*
X213452090Y-80038072D01*
X213452090Y-79919024D01*
X213475900Y-79871405D01*
X213499709Y-79847595D01*
X213547328Y-79823786D01*
X213594947Y-79823786D01*
X213666376Y-79847595D01*
X213952090Y-80133310D01*
X213952090Y-79823786D01*
X212511681Y-88909805D02*
X212511681Y-88624091D01*
X213011681Y-88766948D02*
X212511681Y-88766948D01*
X213011681Y-88195519D02*
X213011681Y-88481233D01*
X213011681Y-88338376D02*
X212511681Y-88338376D01*
X212583110Y-88385995D01*
X212630729Y-88433614D01*
X212654538Y-88481233D01*
X165248798Y-95438863D02*
X165248798Y-95843625D01*
X165272608Y-95891244D01*
X165296417Y-95915053D01*
X165344036Y-95938863D01*
X165439274Y-95938863D01*
X165486893Y-95915053D01*
X165510703Y-95891244D01*
X165534512Y-95843625D01*
X165534512Y-95438863D01*
X165748798Y-95486482D02*
X165772608Y-95462673D01*
X165820227Y-95438863D01*
X165939274Y-95438863D01*
X165986893Y-95462673D01*
X166010703Y-95486482D01*
X166034512Y-95534101D01*
X166034512Y-95581720D01*
X166010703Y-95653149D01*
X165724989Y-95938863D01*
X166034512Y-95938863D01*
X201148190Y-77453267D02*
X201648190Y-77119934D01*
X201148190Y-77119934D02*
X201648190Y-77453267D01*
X201148190Y-76977077D02*
X201148190Y-76667553D01*
X201338666Y-76834220D01*
X201338666Y-76762791D01*
X201362476Y-76715172D01*
X201386285Y-76691363D01*
X201433904Y-76667553D01*
X201552952Y-76667553D01*
X201600571Y-76691363D01*
X201624380Y-76715172D01*
X201648190Y-76762791D01*
X201648190Y-76905648D01*
X201624380Y-76953267D01*
X201600571Y-76977077D01*
X208125190Y-77639428D02*
X207887095Y-77806095D01*
X208125190Y-77925142D02*
X207625190Y-77925142D01*
X207625190Y-77734666D01*
X207649000Y-77687047D01*
X207672809Y-77663238D01*
X207720428Y-77639428D01*
X207791857Y-77639428D01*
X207839476Y-77663238D01*
X207863285Y-77687047D01*
X207887095Y-77734666D01*
X207887095Y-77925142D01*
X207672809Y-77448952D02*
X207649000Y-77425142D01*
X207625190Y-77377523D01*
X207625190Y-77258476D01*
X207649000Y-77210857D01*
X207672809Y-77187047D01*
X207720428Y-77163238D01*
X207768047Y-77163238D01*
X207839476Y-77187047D01*
X208125190Y-77472761D01*
X208125190Y-77163238D01*
X207625190Y-76996571D02*
X207625190Y-76687047D01*
X207815666Y-76853714D01*
X207815666Y-76782285D01*
X207839476Y-76734666D01*
X207863285Y-76710857D01*
X207910904Y-76687047D01*
X208029952Y-76687047D01*
X208077571Y-76710857D01*
X208101380Y-76734666D01*
X208125190Y-76782285D01*
X208125190Y-76925142D01*
X208101380Y-76972761D01*
X208077571Y-76996571D01*
M02*
